M48
; DRILL file {KiCad 9.0.4} date 2025-09-16T12:31:06+0200
; FORMAT={-:-/ absolute / metric / decimal}
; #@! TF.CreationDate,2025-09-16T12:31:06+02:00
; #@! TF.GenerationSoftware,Kicad,Pcbnew,9.0.4
; #@! TF.FileFunction,Plated,1,2,PTH
FMAT,2
METRIC
; #@! TA.AperFunction,Plated,PTH,ViaDrill
T1C0.300
; #@! TA.AperFunction,Plated,PTH,ComponentDrill
T2C1.000
; #@! TA.AperFunction,Plated,PTH,ComponentDrill
T3C1.016
; #@! TA.AperFunction,Plated,PTH,ComponentDrill
T4C1.100
; #@! TA.AperFunction,Plated,PTH,ComponentDrill
T5C3.000
%
G90
G05
T1
X43.096Y-76.096
X56.0Y-89.5
X56.5Y-58.5
X59.5Y-81.0
X63.0Y-78.5
X67.0Y-94.0
X69.596Y-69.596
X70.0Y-63.5
X73.5Y-70.0
X74.5Y-80.5
X85.0Y-64.0
X86.5Y-94.0
X103.5Y-88.0
X120.0Y-88.5
X129.0Y-73.5
X131.5Y-56.0
X135.5Y-84.5
X140.58Y-54.0
X142.404Y-60.596
X146.154Y-64.346
X147.0Y-72.5
X147.0Y-74.5
X147.25Y-88.75
X148.5Y-86.0
X149.0Y-95.5
X149.5Y-58.5
X151.0Y-93.5
X154.804Y-92.0
X154.804Y-94.5
X167.5Y-92.0
T2
X76.5Y-67.22
X76.5Y-69.76
X76.5Y-72.3
X76.5Y-74.84
X93.5Y-74.84
X93.5Y-77.38
X93.5Y-79.92
X93.5Y-82.46
X151.5Y-65.95
X151.5Y-68.49
X151.5Y-71.03
X151.5Y-73.57
X151.5Y-76.11
X151.5Y-78.65
X151.5Y-81.19
X151.5Y-83.73
X151.5Y-86.27
X151.5Y-88.81
X151.5Y-91.35
X156.5Y-54.52
X156.5Y-57.06
X156.5Y-59.6
X156.5Y-62.14
X156.5Y-64.68
X156.5Y-67.22
X156.5Y-69.76
X156.5Y-72.3
X156.5Y-74.84
X156.5Y-77.38
X156.5Y-79.92
X156.5Y-82.46
X156.5Y-85.0
X156.5Y-87.54
T3
X117.5Y-51.5
X117.5Y-99.76
X120.04Y-51.5
X120.04Y-99.76
X122.58Y-51.5
X122.58Y-99.76
X125.12Y-51.5
X125.12Y-99.76
X127.66Y-51.5
X127.66Y-99.76
X130.2Y-51.5
X130.2Y-99.76
X132.74Y-99.76
X135.28Y-99.76
X135.28Y-51.5
X137.82Y-51.5
X139.344Y-99.76
X140.36Y-51.5
X141.884Y-99.76
X142.9Y-51.5
X144.424Y-99.76
X145.44Y-51.5
X146.964Y-99.76
X147.98Y-51.5
X149.504Y-99.76
X150.52Y-51.5
X152.044Y-99.76
X153.06Y-51.5
X154.584Y-99.76
X157.124Y-99.76
X159.664Y-99.76
X162.204Y-99.76
T4
X47.222Y-75.182
X50.404Y-72.0
X51.818Y-79.778
X53.5Y-69.0
X54.318Y-82.182
X55.0Y-76.596
X56.682Y-65.818
X57.5Y-79.0
X58.096Y-73.596
X58.914Y-86.778
X60.5Y-76.0
X61.278Y-70.414
X62.096Y-83.596
X63.682Y-72.818
X65.096Y-80.596
X68.278Y-77.414
X161.0Y-89.0
X161.0Y-95.5
X165.5Y-89.0
X165.5Y-95.5
X170.0Y-89.0
X170.0Y-95.5
X174.5Y-89.0
X174.5Y-95.5
T5
X44.0Y-98.0
X45.0Y-53.0
M30
