%TF.GenerationSoftware,KiCad,Pcbnew,9.0.4*%
%TF.CreationDate,2025-09-16T12:24:55+02:00*%
%TF.ProjectId,game-shield,67616d65-2d73-4686-9965-6c642e6b6963,rev?*%
%TF.SameCoordinates,Original*%
%TF.FileFunction,Copper,L2,Bot*%
%TF.FilePolarity,Positive*%
%FSLAX46Y46*%
G04 Gerber Fmt 4.6, Leading zero omitted, Abs format (unit mm)*
G04 Created by KiCad (PCBNEW 9.0.4) date 2025-09-16 12:24:55*
%MOMM*%
%LPD*%
G01*
G04 APERTURE LIST*
%TA.AperFunction,ComponentPad*%
%ADD10R,1.700000X1.700000*%
%TD*%
%TA.AperFunction,ComponentPad*%
%ADD11C,1.700000*%
%TD*%
%TA.AperFunction,ComponentPad*%
%ADD12C,2.000000*%
%TD*%
%TA.AperFunction,ComponentPad*%
%ADD13C,5.000000*%
%TD*%
%TA.AperFunction,ComponentPad*%
%ADD14O,1.727200X1.727200*%
%TD*%
%TA.AperFunction,ComponentPad*%
%ADD15R,1.727200X1.727200*%
%TD*%
%TA.AperFunction,ViaPad*%
%ADD16C,0.600000*%
%TD*%
%TA.AperFunction,Conductor*%
%ADD17C,0.800000*%
%TD*%
%TA.AperFunction,Conductor*%
%ADD18C,0.400000*%
%TD*%
G04 APERTURE END LIST*
D10*
%TO.P,J1,1,Pin_1*%
%TO.N,+3.3V*%
X151500000Y-65950000D03*
X156500000Y-87540000D03*
D11*
%TO.P,J1,2,Pin_2*%
%TO.N,GND*%
X151500000Y-68490000D03*
X156500000Y-85000000D03*
%TO.P,J1,3,Pin_3*%
X151500000Y-71030000D03*
%TO.P,J1,4,Pin_4*%
%TO.N,unconnected-(J1-Pin_4-Pad4)*%
X151500000Y-73570000D03*
%TO.P,J1,5,Pin_5*%
%TO.N,unconnected-(J1-Pin_5-Pad5)*%
X151500000Y-76110000D03*
%TO.P,J1,6,Pin_6*%
%TO.N,unconnected-(J1-Pin_6-Pad6)*%
X151500000Y-78650000D03*
%TO.P,J1,7,Pin_7*%
%TO.N,sck*%
X151500000Y-81190000D03*
X156500000Y-72300000D03*
%TO.P,J1,8,Pin_8*%
%TO.N,mosi*%
X151500000Y-83730000D03*
X156500000Y-74840000D03*
%TO.P,J1,9,Pin_9*%
%TO.N,cs*%
X151500000Y-86270000D03*
X156500000Y-77380000D03*
%TO.P,J1,10,Pin_10*%
%TO.N,rst*%
X151500000Y-88810000D03*
X156500000Y-79920000D03*
%TO.P,J1,11,Pin_11*%
%TO.N,rs*%
X151500000Y-91350000D03*
X156500000Y-82460000D03*
%TO.P,J1,12,Pin_12*%
%TO.N,unconnected-(J1-Pin_12-Pad12)*%
X76500000Y-74840000D03*
D10*
X93500000Y-82460000D03*
D11*
%TO.P,J1,13,Pin_13*%
%TO.N,unconnected-(J1-Pin_13-Pad13)*%
X76500000Y-72300000D03*
X93500000Y-79920000D03*
%TO.P,J1,14,Pin_14*%
%TO.N,unconnected-(J1-Pin_14-Pad14)*%
X76500000Y-69760000D03*
X93500000Y-77380000D03*
%TO.P,J1,15,Pin_15*%
%TO.N,unconnected-(J1-Pin_15-Pad15)*%
X76500000Y-67220000D03*
X93500000Y-74840000D03*
%TO.P,J1,16,Pin_16*%
%TO.N,+3.3V*%
X156500000Y-69760000D03*
%TO.P,J1,17,Pin_17*%
%TO.N,MISO*%
X156500000Y-67220000D03*
%TO.P,J1,18,Pin_18*%
%TO.N,unconnected-(J1-Pin_18-Pad18)*%
X156500000Y-64680000D03*
%TO.P,J1,19,Pin_19*%
%TO.N,unconnected-(J1-Pin_19-Pad19)*%
X156500000Y-62140000D03*
%TO.P,J1,20,Pin_20*%
%TO.N,unconnected-(J1-Pin_20-Pad20)*%
X156500000Y-59600000D03*
%TO.P,J1,21,Pin_21*%
%TO.N,unconnected-(J1-Pin_21-Pad21)*%
X156500000Y-57060000D03*
%TO.P,J1,22,Pin_22*%
%TO.N,unconnected-(J1-Pin_22-Pad22)*%
X156500000Y-54520000D03*
%TD*%
D12*
%TO.P,SW3,1,1*%
%TO.N,lf*%
X51818019Y-79778174D03*
X47221825Y-75181980D03*
%TO.P,SW3,2,2*%
%TO.N,GND*%
X55000000Y-76596193D03*
X50403805Y-71999999D03*
%TD*%
%TO.P,SW5,1,1*%
%TO.N,A*%
X170000000Y-95499999D03*
X170000000Y-88999999D03*
%TO.P,SW5,2,2*%
%TO.N,GND*%
X174500001Y-95499999D03*
X174500000Y-88999998D03*
%TD*%
D13*
%TO.P,REF\u002A\u002A,0*%
%TO.N,N/C*%
X44000000Y-98000000D03*
%TD*%
D12*
%TO.P,SW2,1,1*%
%TO.N,dn*%
X58914213Y-86778174D03*
X54318019Y-82181980D03*
%TO.P,SW2,2,2*%
%TO.N,GND*%
X62096194Y-83596193D03*
X57499999Y-78999999D03*
%TD*%
D14*
%TO.P,A2,3V3,3.3V*%
%TO.N,+3.3V*%
X145440000Y-51500000D03*
%TO.P,A2,5V1,5V*%
%TO.N,+5V*%
X142900000Y-51500000D03*
%TO.P,A2,A0,A0*%
%TO.N,dn*%
X130200000Y-51500000D03*
%TO.P,A2,A1,A1*%
%TO.N,lf*%
X127660000Y-51500000D03*
%TO.P,A2,A2,A2*%
%TO.N,ri*%
X125120000Y-51500000D03*
%TO.P,A2,A3,A3*%
%TO.N,up*%
X122580000Y-51500000D03*
%TO.P,A2,A4,A4*%
%TO.N,unconnected-(A2-PadA4)*%
X120040000Y-51500000D03*
%TO.P,A2,A5,A5*%
%TO.N,unconnected-(A2-PadA5)*%
X117500000Y-51500000D03*
%TO.P,A2,AREF,AREF*%
%TO.N,unconnected-(A2-PadAREF)*%
X157124000Y-99760000D03*
%TO.P,A2,ATN,ATN*%
%TO.N,unconnected-(A2-PadATN)*%
X153060000Y-51500000D03*
%TO.P,A2,D0,D0/RX*%
%TO.N,unconnected-(A2-D0{slash}RX-PadD0)*%
X117500000Y-99760000D03*
%TO.P,A2,D1,D1/TX*%
%TO.N,unconnected-(A2-D1{slash}TX-PadD1)*%
X120040000Y-99760000D03*
%TO.P,A2,D2,D2*%
%TO.N,unconnected-(A2-PadD2)*%
X122580000Y-99760000D03*
%TO.P,A2,D3,D3*%
%TO.N,unconnected-(A2-PadD3)*%
X125120001Y-99760000D03*
%TO.P,A2,D4,D4*%
%TO.N,unconnected-(A2-PadD4)*%
X127660000Y-99760000D03*
%TO.P,A2,D5,D5*%
%TO.N,unconnected-(A2-PadD5)*%
X130200000Y-99760000D03*
%TO.P,A2,D6,D6*%
%TO.N,unconnected-(A2-PadD6)*%
X132740000Y-99760000D03*
%TO.P,A2,D7,D7*%
%TO.N,unconnected-(A2-PadD7)*%
X135279999Y-99760000D03*
%TO.P,A2,D8,D8*%
%TO.N,cs*%
X139343999Y-99760000D03*
%TO.P,A2,D9,D9*%
%TO.N,rst*%
X141884000Y-99760000D03*
%TO.P,A2,D10,D10_CS*%
%TO.N,rs*%
X144424000Y-99760000D03*
%TO.P,A2,D11,D11*%
%TO.N,mosi*%
X146964000Y-99760000D03*
%TO.P,A2,D12,D12*%
%TO.N,MISO*%
X149504000Y-99760000D03*
%TO.P,A2,D13,D13*%
%TO.N,sck*%
X152044001Y-99760000D03*
D15*
%TO.P,A2,GND1,GND*%
%TO.N,GND*%
X154584000Y-99760000D03*
%TO.P,A2,GND2,GND*%
X140360000Y-51500000D03*
%TO.P,A2,GND3,GND*%
X137820000Y-51500000D03*
D14*
%TO.P,A2,IORF,IOREF*%
%TO.N,unconnected-(A2-IOREF-PadIORF)*%
X150520000Y-51500000D03*
%TO.P,A2,RST1,RESET*%
%TO.N,unconnected-(A2-RESET-PadRST1)*%
X147980000Y-51500000D03*
%TO.P,A2,SCL,SCL*%
%TO.N,A*%
X162203999Y-99760000D03*
%TO.P,A2,SDA,SDA*%
%TO.N,B*%
X159664000Y-99760000D03*
%TO.P,A2,VIN,VIN*%
%TO.N,unconnected-(A2-PadVIN)*%
X135280000Y-51500000D03*
%TD*%
D13*
%TO.P,REF\u002A\u002A,0*%
%TO.N,N/C*%
X45000000Y-53000000D03*
%TD*%
D12*
%TO.P,SW6,1,1*%
%TO.N,B*%
X165500000Y-88999999D03*
X165500000Y-95499999D03*
%TO.P,SW6,2,2*%
%TO.N,GND*%
X160999999Y-88999999D03*
X161000000Y-95500000D03*
%TD*%
%TO.P,SW4,1,1*%
%TO.N,up*%
X56681980Y-65818019D03*
X61278174Y-70414213D03*
%TO.P,SW4,2,2*%
%TO.N,GND*%
X53499999Y-69000000D03*
X58096194Y-73596194D03*
%TD*%
%TO.P,SW1,1,1*%
%TO.N,ri*%
X63681981Y-72818019D03*
X68278175Y-77414213D03*
%TO.P,SW1,2,2*%
%TO.N,GND*%
X60500000Y-76000000D03*
X65096195Y-80596194D03*
%TD*%
D16*
%TO.N,GND*%
X74500000Y-80500000D03*
X59500000Y-81000000D03*
X73500000Y-70000000D03*
X103500000Y-88000000D03*
X147000000Y-74500000D03*
X154804000Y-94500000D03*
X167500000Y-92000000D03*
X63000000Y-78500000D03*
X131500000Y-56000000D03*
X70000000Y-63500000D03*
X146153959Y-64346041D03*
X149500000Y-58500000D03*
X140580000Y-54000000D03*
X135500000Y-84500000D03*
X56000000Y-89500000D03*
X56500000Y-58500000D03*
X67000000Y-94000000D03*
X147000000Y-72500000D03*
X142403959Y-60596041D03*
X86500000Y-94000000D03*
X85000000Y-64000000D03*
X154804000Y-92000000D03*
X129000000Y-73500000D03*
X120000000Y-88500000D03*
%TO.N,mosi*%
X147250000Y-88750000D03*
%TO.N,sck*%
X151000000Y-93500000D03*
%TO.N,+3.3V*%
X69596195Y-69596194D03*
X43096195Y-76096194D03*
%TO.N,MISO*%
X148500000Y-86000000D03*
X149000000Y-95500000D03*
%TD*%
D17*
%TO.N,GND*%
X50403805Y-71999999D02*
X50500000Y-71999999D01*
X50500000Y-71999999D02*
X53499999Y-69000000D01*
X58096194Y-73596194D02*
X60500000Y-76000000D01*
X63000000Y-78500000D02*
X65096195Y-80596194D01*
X62096194Y-83596193D02*
X65096195Y-80596194D01*
X60500000Y-76000000D02*
X63000000Y-78500000D01*
X151500000Y-68490000D02*
X151500000Y-71030000D01*
X57499999Y-78999999D02*
X60500000Y-76000000D01*
X55000000Y-76596193D02*
X55096195Y-76596193D01*
X59500000Y-81000000D02*
X62096194Y-83596193D01*
X55096195Y-76596193D02*
X58096194Y-73596194D01*
X142403959Y-60596041D02*
X147403959Y-60596041D01*
X55096193Y-76596193D02*
X57499999Y-78999999D01*
X154804000Y-94500000D02*
X154804000Y-92000000D01*
X147403959Y-60596041D02*
X149500000Y-58500000D01*
X55000000Y-76596193D02*
X55096193Y-76596193D01*
X57499999Y-78999999D02*
X59500000Y-81000000D01*
X154804000Y-99760000D02*
X154804000Y-94500000D01*
D18*
%TO.N,rst*%
X154003000Y-82417000D02*
X156500000Y-79920000D01*
X151500000Y-88810000D02*
X154003000Y-86307000D01*
X142104000Y-99760000D02*
X142104000Y-98206000D01*
X154003000Y-86307000D02*
X154003000Y-82417000D01*
X142104000Y-98206000D02*
X151500000Y-88810000D01*
D17*
%TO.N,dn*%
X58914213Y-86778174D02*
X54318019Y-82181980D01*
D18*
%TO.N,rs*%
X144644000Y-98206000D02*
X144644000Y-99760000D01*
X151500000Y-91350000D02*
X144644000Y-98206000D01*
%TO.N,mosi*%
X151500000Y-83730000D02*
X151500000Y-83500000D01*
X147250000Y-88750000D02*
X147250000Y-88250000D01*
X154000000Y-77340000D02*
X156500000Y-74840000D01*
X147250000Y-88250000D02*
X151500000Y-84000000D01*
X154000000Y-81000000D02*
X154000000Y-77340000D01*
X151500000Y-84000000D02*
X151500000Y-83730000D01*
X151500000Y-83500000D02*
X154000000Y-81000000D01*
%TO.N,sck*%
X152264001Y-99760000D02*
X152264001Y-94764001D01*
X152264001Y-94764001D02*
X151000000Y-93500000D01*
D17*
%TO.N,+3.3V*%
X68596195Y-69596194D02*
X69596195Y-69596194D01*
X43096195Y-76096194D02*
X45096195Y-78096194D01*
X49096195Y-78096194D02*
X60596195Y-66596194D01*
X65596195Y-66596194D02*
X68596195Y-69596194D01*
X77692389Y-61500000D02*
X69596195Y-69596194D01*
X145660000Y-51500000D02*
X135660000Y-61500000D01*
X60596195Y-66596194D02*
X65596195Y-66596194D01*
X135660000Y-61500000D02*
X77692389Y-61500000D01*
X45096195Y-78096194D02*
X49096195Y-78096194D01*
%TO.N,ri*%
X68278175Y-77414213D02*
X63681981Y-72818019D01*
D18*
%TO.N,cs*%
X139563999Y-98206001D02*
X151500000Y-86270000D01*
X139563999Y-99760000D02*
X139563999Y-98206001D01*
D17*
%TO.N,A*%
X162423999Y-99760000D02*
X164240000Y-99760000D01*
X164240000Y-99760000D02*
X166000000Y-98000000D01*
X167499999Y-98000000D02*
X170000000Y-95499999D01*
X170000000Y-88999999D02*
X170000000Y-95499999D01*
X166000000Y-98000000D02*
X167499999Y-98000000D01*
%TO.N,B*%
X159884000Y-99760000D02*
X162144000Y-97500000D01*
X163499999Y-97500000D02*
X165500000Y-95499999D01*
X162144000Y-97500000D02*
X163499999Y-97500000D01*
X165500000Y-88999999D02*
X165500000Y-95499999D01*
X165500000Y-95499999D02*
X165500000Y-96039999D01*
%TO.N,unconnected-(J1-Pin_14-Pad14)*%
X81760000Y-69760000D02*
X89380000Y-77380000D01*
X76500000Y-69760000D02*
X81760000Y-69760000D01*
X89380000Y-77380000D02*
X93500000Y-77380000D01*
%TO.N,unconnected-(J1-Pin_13-Pad13)*%
X76500000Y-72300000D02*
X81300000Y-72300000D01*
X81300000Y-72300000D02*
X88920000Y-79920000D01*
X88920000Y-79920000D02*
X93500000Y-79920000D01*
%TO.N,unconnected-(J1-Pin_12-Pad12)*%
X76500000Y-74840000D02*
X80840000Y-74840000D01*
X80840000Y-74840000D02*
X88460000Y-82460000D01*
X88460000Y-82460000D02*
X93500000Y-82460000D01*
%TO.N,unconnected-(J1-Pin_15-Pad15)*%
X93500000Y-74840000D02*
X93340000Y-75000000D01*
X93340000Y-75000000D02*
X90500000Y-75000000D01*
X90500000Y-75000000D02*
X82720000Y-67220000D01*
X82720000Y-67220000D02*
X76500000Y-67220000D01*
D18*
%TO.N,MISO*%
X149000000Y-84000000D02*
X148500000Y-84500000D01*
X149000000Y-64500000D02*
X149000000Y-84000000D01*
X149500000Y-64000000D02*
X149000000Y-64500000D01*
X153280000Y-64000000D02*
X149500000Y-64000000D01*
X149724000Y-99760000D02*
X149724000Y-96224000D01*
X148500000Y-84500000D02*
X148500000Y-86000000D01*
X156500000Y-67220000D02*
X153280000Y-64000000D01*
X149724000Y-96224000D02*
X149000000Y-95500000D01*
%TD*%
%TA.AperFunction,Conductor*%
%TO.N,GND*%
G36*
X150153270Y-64720185D02*
G01*
X150199025Y-64772989D01*
X150208969Y-64842147D01*
X150202413Y-64867833D01*
X150155908Y-64992517D01*
X150151708Y-65031586D01*
X150149501Y-65052123D01*
X150149500Y-65052135D01*
X150149500Y-66847870D01*
X150149501Y-66847876D01*
X150155908Y-66907483D01*
X150206202Y-67042328D01*
X150206206Y-67042335D01*
X150292452Y-67157544D01*
X150292455Y-67157547D01*
X150407664Y-67243793D01*
X150407671Y-67243797D01*
X150452618Y-67260561D01*
X150542517Y-67294091D01*
X150602127Y-67300500D01*
X150612685Y-67300499D01*
X150679723Y-67320179D01*
X150700372Y-67336818D01*
X151370591Y-68007037D01*
X151307007Y-68024075D01*
X151192993Y-68089901D01*
X151099901Y-68182993D01*
X151034075Y-68297007D01*
X151017037Y-68360591D01*
X150384728Y-67728282D01*
X150384727Y-67728282D01*
X150345380Y-67782439D01*
X150248904Y-67971782D01*
X150183242Y-68173869D01*
X150183242Y-68173872D01*
X150150000Y-68383753D01*
X150150000Y-68596246D01*
X150183242Y-68806127D01*
X150183242Y-68806130D01*
X150248904Y-69008217D01*
X150345375Y-69197550D01*
X150384728Y-69251716D01*
X151017037Y-68619408D01*
X151034075Y-68682993D01*
X151099901Y-68797007D01*
X151192993Y-68890099D01*
X151307007Y-68955925D01*
X151370590Y-68972962D01*
X150738282Y-69605269D01*
X150738282Y-69605270D01*
X150792452Y-69644626D01*
X150802048Y-69649516D01*
X150852844Y-69697491D01*
X150869638Y-69765312D01*
X150847100Y-69831447D01*
X150802051Y-69870483D01*
X150792440Y-69875380D01*
X150738282Y-69914727D01*
X150738282Y-69914728D01*
X151370591Y-70547037D01*
X151307007Y-70564075D01*
X151192993Y-70629901D01*
X151099901Y-70722993D01*
X151034075Y-70837007D01*
X151017037Y-70900591D01*
X150384728Y-70268282D01*
X150384727Y-70268282D01*
X150345380Y-70322439D01*
X150248904Y-70511782D01*
X150183242Y-70713869D01*
X150183242Y-70713872D01*
X150150000Y-70923753D01*
X150150000Y-71136246D01*
X150183242Y-71346127D01*
X150183242Y-71346130D01*
X150248904Y-71548217D01*
X150345375Y-71737550D01*
X150384728Y-71791716D01*
X151017037Y-71159408D01*
X151034075Y-71222993D01*
X151099901Y-71337007D01*
X151192993Y-71430099D01*
X151307007Y-71495925D01*
X151370590Y-71512962D01*
X150738282Y-72145269D01*
X150738282Y-72145270D01*
X150792452Y-72184626D01*
X150792451Y-72184626D01*
X150801495Y-72189234D01*
X150852292Y-72237208D01*
X150869087Y-72305029D01*
X150846550Y-72371164D01*
X150801499Y-72410202D01*
X150792182Y-72414949D01*
X150620213Y-72539890D01*
X150469890Y-72690213D01*
X150344951Y-72862179D01*
X150248444Y-73051585D01*
X150182753Y-73253760D01*
X150170661Y-73330109D01*
X150149500Y-73463713D01*
X150149500Y-73676287D01*
X150150872Y-73684949D01*
X150168386Y-73795531D01*
X150182754Y-73886243D01*
X150231889Y-74037465D01*
X150248444Y-74088414D01*
X150344951Y-74277820D01*
X150469890Y-74449786D01*
X150620213Y-74600109D01*
X150792182Y-74725050D01*
X150800946Y-74729516D01*
X150851742Y-74777491D01*
X150868536Y-74845312D01*
X150845998Y-74911447D01*
X150800946Y-74950484D01*
X150792182Y-74954949D01*
X150620213Y-75079890D01*
X150469890Y-75230213D01*
X150344951Y-75402179D01*
X150248444Y-75591585D01*
X150182753Y-75793760D01*
X150149500Y-76003713D01*
X150149500Y-76216286D01*
X150176047Y-76383901D01*
X150182754Y-76426243D01*
X150248237Y-76627779D01*
X150248444Y-76628414D01*
X150344951Y-76817820D01*
X150469890Y-76989786D01*
X150620213Y-77140109D01*
X150792182Y-77265050D01*
X150800946Y-77269516D01*
X150851742Y-77317491D01*
X150868536Y-77385312D01*
X150845998Y-77451447D01*
X150800946Y-77490484D01*
X150792182Y-77494949D01*
X150620213Y-77619890D01*
X150469890Y-77770213D01*
X150344951Y-77942179D01*
X150248444Y-78131585D01*
X150182753Y-78333760D01*
X150164343Y-78449999D01*
X150149500Y-78543713D01*
X150149500Y-78756287D01*
X150157180Y-78804775D01*
X150171344Y-78894207D01*
X150182754Y-78966243D01*
X150236978Y-79133128D01*
X150248444Y-79168414D01*
X150344951Y-79357820D01*
X150469890Y-79529786D01*
X150620213Y-79680109D01*
X150792182Y-79805050D01*
X150800946Y-79809516D01*
X150851742Y-79857491D01*
X150868536Y-79925312D01*
X150845998Y-79991447D01*
X150800946Y-80030484D01*
X150792182Y-80034949D01*
X150620213Y-80159890D01*
X150469890Y-80310213D01*
X150344951Y-80482179D01*
X150248444Y-80671585D01*
X150182753Y-80873760D01*
X150149500Y-81083713D01*
X150149500Y-81296286D01*
X150182163Y-81502517D01*
X150182754Y-81506243D01*
X150215163Y-81605988D01*
X150248444Y-81708414D01*
X150344951Y-81897820D01*
X150469890Y-82069786D01*
X150620213Y-82220109D01*
X150792182Y-82345050D01*
X150800946Y-82349516D01*
X150851742Y-82397491D01*
X150868536Y-82465312D01*
X150845998Y-82531447D01*
X150800946Y-82570484D01*
X150792182Y-82574949D01*
X150620213Y-82699890D01*
X150469890Y-82850213D01*
X150344951Y-83022179D01*
X150248444Y-83211585D01*
X150182753Y-83413760D01*
X150170661Y-83490109D01*
X150149500Y-83623713D01*
X150149500Y-83836287D01*
X150150209Y-83840763D01*
X150181179Y-84036303D01*
X150182754Y-84046243D01*
X150223613Y-84171995D01*
X150228024Y-84185568D01*
X150230019Y-84255409D01*
X150197774Y-84311567D01*
X149412181Y-85097161D01*
X149392744Y-85107773D01*
X149376011Y-85122274D01*
X149362679Y-85124190D01*
X149350858Y-85130646D01*
X149328771Y-85129066D01*
X149306853Y-85132218D01*
X149294601Y-85126622D01*
X149281167Y-85125662D01*
X149263441Y-85112392D01*
X149243297Y-85103193D01*
X149236014Y-85091860D01*
X149225233Y-85083790D01*
X149217495Y-85063044D01*
X149205523Y-85044415D01*
X149202371Y-85022496D01*
X149200816Y-85018326D01*
X149200500Y-85009480D01*
X149200500Y-84841519D01*
X149220185Y-84774480D01*
X149236819Y-84753838D01*
X149544112Y-84446545D01*
X149544114Y-84446543D01*
X149620775Y-84331811D01*
X149629161Y-84311567D01*
X149647177Y-84268069D01*
X149673580Y-84204328D01*
X149700500Y-84068994D01*
X149700500Y-83931006D01*
X149700500Y-64841519D01*
X149720185Y-64774480D01*
X149736819Y-64753838D01*
X149753838Y-64736819D01*
X149815161Y-64703334D01*
X149841519Y-64700500D01*
X150086231Y-64700500D01*
X150153270Y-64720185D01*
G37*
%TD.AperFunction*%
%TA.AperFunction,Conductor*%
G36*
X153005520Y-64720185D02*
G01*
X153026162Y-64736819D01*
X155139492Y-66850149D01*
X155172977Y-66911472D01*
X155174284Y-66957227D01*
X155160805Y-67042335D01*
X155149500Y-67113713D01*
X155149500Y-67326287D01*
X155182754Y-67536243D01*
X155241513Y-67717085D01*
X155248444Y-67738414D01*
X155344951Y-67927820D01*
X155469890Y-68099786D01*
X155620213Y-68250109D01*
X155792182Y-68375050D01*
X155800946Y-68379516D01*
X155851742Y-68427491D01*
X155868536Y-68495312D01*
X155845998Y-68561447D01*
X155800946Y-68600484D01*
X155792182Y-68604949D01*
X155620213Y-68729890D01*
X155469890Y-68880213D01*
X155344951Y-69052179D01*
X155248444Y-69241585D01*
X155182753Y-69443760D01*
X155161840Y-69575802D01*
X155149500Y-69653713D01*
X155149500Y-69866287D01*
X155150940Y-69875380D01*
X155182753Y-70076239D01*
X155248444Y-70278414D01*
X155344951Y-70467820D01*
X155469890Y-70639786D01*
X155620213Y-70790109D01*
X155792182Y-70915050D01*
X155800946Y-70919516D01*
X155851742Y-70967491D01*
X155868536Y-71035312D01*
X155845998Y-71101447D01*
X155800946Y-71140484D01*
X155792182Y-71144949D01*
X155620213Y-71269890D01*
X155469890Y-71420213D01*
X155344951Y-71592179D01*
X155248444Y-71781585D01*
X155182753Y-71983760D01*
X155168713Y-72072408D01*
X155149500Y-72193713D01*
X155149500Y-72406287D01*
X155150872Y-72414949D01*
X155176348Y-72575801D01*
X155182754Y-72616243D01*
X155206788Y-72690213D01*
X155248444Y-72818414D01*
X155344951Y-73007820D01*
X155469890Y-73179786D01*
X155620213Y-73330109D01*
X155792182Y-73455050D01*
X155800946Y-73459516D01*
X155851742Y-73507491D01*
X155868536Y-73575312D01*
X155845998Y-73641447D01*
X155800946Y-73680484D01*
X155792182Y-73684949D01*
X155620213Y-73809890D01*
X155469890Y-73960213D01*
X155344951Y-74132179D01*
X155248444Y-74321585D01*
X155182753Y-74523760D01*
X155149500Y-74733713D01*
X155149500Y-74946287D01*
X155149499Y-74946287D01*
X155174284Y-75102771D01*
X155165329Y-75172064D01*
X155139492Y-75209849D01*
X153455888Y-76893453D01*
X153455882Y-76893461D01*
X153386947Y-76996630D01*
X153386948Y-76996631D01*
X153379226Y-77008187D01*
X153379223Y-77008192D01*
X153326420Y-77135671D01*
X153326418Y-77135677D01*
X153299500Y-77271004D01*
X153299500Y-80658481D01*
X153279815Y-80725520D01*
X153263181Y-80746162D01*
X153032856Y-80976486D01*
X152971533Y-81009971D01*
X152901841Y-81004987D01*
X152845908Y-80963115D01*
X152822702Y-80908203D01*
X152817246Y-80873760D01*
X152817246Y-80873757D01*
X152751557Y-80671588D01*
X152655051Y-80482184D01*
X152655049Y-80482181D01*
X152655048Y-80482179D01*
X152530109Y-80310213D01*
X152379786Y-80159890D01*
X152207820Y-80034951D01*
X152207115Y-80034591D01*
X152199054Y-80030485D01*
X152148259Y-79982512D01*
X152131463Y-79914692D01*
X152153999Y-79848556D01*
X152199054Y-79809515D01*
X152207816Y-79805051D01*
X152233804Y-79786170D01*
X152379786Y-79680109D01*
X152379788Y-79680106D01*
X152379792Y-79680104D01*
X152530104Y-79529792D01*
X152530106Y-79529788D01*
X152530109Y-79529786D01*
X152655048Y-79357820D01*
X152655047Y-79357820D01*
X152655051Y-79357816D01*
X152751557Y-79168412D01*
X152817246Y-78966243D01*
X152850500Y-78756287D01*
X152850500Y-78543713D01*
X152817246Y-78333757D01*
X152751557Y-78131588D01*
X152655051Y-77942184D01*
X152655049Y-77942181D01*
X152655048Y-77942179D01*
X152530109Y-77770213D01*
X152379786Y-77619890D01*
X152207820Y-77494951D01*
X152207115Y-77494591D01*
X152199054Y-77490485D01*
X152148259Y-77442512D01*
X152131463Y-77374692D01*
X152153999Y-77308556D01*
X152199054Y-77269515D01*
X152207816Y-77265051D01*
X152229789Y-77249086D01*
X152379786Y-77140109D01*
X152379788Y-77140106D01*
X152379792Y-77140104D01*
X152530104Y-76989792D01*
X152530106Y-76989788D01*
X152530109Y-76989786D01*
X152655048Y-76817820D01*
X152655047Y-76817820D01*
X152655051Y-76817816D01*
X152751557Y-76628412D01*
X152817246Y-76426243D01*
X152850500Y-76216287D01*
X152850500Y-76003713D01*
X152817246Y-75793757D01*
X152751557Y-75591588D01*
X152655051Y-75402184D01*
X152655049Y-75402181D01*
X152655048Y-75402179D01*
X152530109Y-75230213D01*
X152379786Y-75079890D01*
X152207820Y-74954951D01*
X152207115Y-74954591D01*
X152199054Y-74950485D01*
X152148259Y-74902512D01*
X152131463Y-74834692D01*
X152153999Y-74768556D01*
X152199054Y-74729515D01*
X152207816Y-74725051D01*
X152229789Y-74709086D01*
X152379786Y-74600109D01*
X152379788Y-74600106D01*
X152379792Y-74600104D01*
X152530104Y-74449792D01*
X152530106Y-74449788D01*
X152530109Y-74449786D01*
X152655048Y-74277820D01*
X152655047Y-74277820D01*
X152655051Y-74277816D01*
X152751557Y-74088412D01*
X152817246Y-73886243D01*
X152850500Y-73676287D01*
X152850500Y-73463713D01*
X152817246Y-73253757D01*
X152751557Y-73051588D01*
X152655051Y-72862184D01*
X152655049Y-72862181D01*
X152655048Y-72862179D01*
X152530109Y-72690213D01*
X152379786Y-72539890D01*
X152207817Y-72414949D01*
X152198504Y-72410204D01*
X152147707Y-72362230D01*
X152130912Y-72294409D01*
X152153449Y-72228274D01*
X152198507Y-72189232D01*
X152207555Y-72184622D01*
X152261716Y-72145270D01*
X152261717Y-72145270D01*
X151629408Y-71512962D01*
X151692993Y-71495925D01*
X151807007Y-71430099D01*
X151900099Y-71337007D01*
X151965925Y-71222993D01*
X151982962Y-71159409D01*
X152615270Y-71791717D01*
X152615270Y-71791716D01*
X152654622Y-71737554D01*
X152751095Y-71548217D01*
X152816757Y-71346130D01*
X152816757Y-71346127D01*
X152850000Y-71136246D01*
X152850000Y-70923753D01*
X152816757Y-70713872D01*
X152816757Y-70713869D01*
X152751095Y-70511782D01*
X152654624Y-70322449D01*
X152615270Y-70268282D01*
X152615269Y-70268282D01*
X151982962Y-70900590D01*
X151965925Y-70837007D01*
X151900099Y-70722993D01*
X151807007Y-70629901D01*
X151692993Y-70564075D01*
X151629409Y-70547037D01*
X152261716Y-69914728D01*
X152207550Y-69875375D01*
X152197954Y-69870486D01*
X152147157Y-69822512D01*
X152130361Y-69754692D01*
X152152897Y-69688556D01*
X152197954Y-69649514D01*
X152207554Y-69644622D01*
X152261716Y-69605270D01*
X152261717Y-69605270D01*
X151629408Y-68972962D01*
X151692993Y-68955925D01*
X151807007Y-68890099D01*
X151900099Y-68797007D01*
X151965925Y-68682993D01*
X151982962Y-68619409D01*
X152615270Y-69251717D01*
X152615270Y-69251716D01*
X152654622Y-69197554D01*
X152751095Y-69008217D01*
X152816757Y-68806130D01*
X152816757Y-68806127D01*
X152850000Y-68596246D01*
X152850000Y-68383753D01*
X152816757Y-68173872D01*
X152816757Y-68173869D01*
X152751095Y-67971782D01*
X152654624Y-67782449D01*
X152615270Y-67728282D01*
X152615269Y-67728282D01*
X151982962Y-68360590D01*
X151965925Y-68297007D01*
X151900099Y-68182993D01*
X151807007Y-68089901D01*
X151692993Y-68024075D01*
X151629409Y-68007037D01*
X152299627Y-67336818D01*
X152360950Y-67303333D01*
X152387307Y-67300499D01*
X152397872Y-67300499D01*
X152457483Y-67294091D01*
X152592331Y-67243796D01*
X152707546Y-67157546D01*
X152793796Y-67042331D01*
X152844091Y-66907483D01*
X152850500Y-66847873D01*
X152850499Y-65052128D01*
X152844091Y-64992517D01*
X152797587Y-64867833D01*
X152795398Y-64837224D01*
X152791031Y-64806853D01*
X152792928Y-64802697D01*
X152792603Y-64798141D01*
X152807309Y-64771208D01*
X152820056Y-64743297D01*
X152823898Y-64740827D01*
X152826088Y-64736818D01*
X152853021Y-64722111D01*
X152878834Y-64705523D01*
X152885034Y-64704631D01*
X152887411Y-64703334D01*
X152913769Y-64700500D01*
X152938481Y-64700500D01*
X153005520Y-64720185D01*
G37*
%TD.AperFunction*%
%TA.AperFunction,Conductor*%
G36*
X139886619Y-51303919D02*
G01*
X139852000Y-51433120D01*
X139852000Y-51566880D01*
X139886619Y-51696081D01*
X139917749Y-51750000D01*
X138262251Y-51750000D01*
X138293381Y-51696081D01*
X138328000Y-51566880D01*
X138328000Y-51433120D01*
X138293381Y-51303919D01*
X138262251Y-51250000D01*
X139917749Y-51250000D01*
X139886619Y-51303919D01*
G37*
%TD.AperFunction*%
%TA.AperFunction,Conductor*%
G36*
X159442539Y-49020185D02*
G01*
X159488294Y-49072989D01*
X159499500Y-49124500D01*
X159499500Y-83065891D01*
X159533608Y-83193187D01*
X159544232Y-83211588D01*
X159599500Y-83307314D01*
X159692686Y-83400500D01*
X159791521Y-83457563D01*
X159804960Y-83465322D01*
X159806814Y-83466392D01*
X159934108Y-83500500D01*
X160065892Y-83500500D01*
X180375500Y-83500500D01*
X180442539Y-83520185D01*
X180488294Y-83572989D01*
X180499500Y-83624500D01*
X180499500Y-101875500D01*
X180479815Y-101942539D01*
X180427011Y-101988294D01*
X180375500Y-101999500D01*
X40624500Y-101999500D01*
X40557461Y-101979815D01*
X40511706Y-101927011D01*
X40500500Y-101875500D01*
X40500500Y-97831491D01*
X40999500Y-97831491D01*
X40999500Y-98168508D01*
X41037231Y-98503381D01*
X41037233Y-98503397D01*
X41112223Y-98831953D01*
X41112227Y-98831965D01*
X41223532Y-99150054D01*
X41369752Y-99453683D01*
X41369754Y-99453686D01*
X41549054Y-99739039D01*
X41759175Y-100002523D01*
X41997477Y-100240825D01*
X42260961Y-100450946D01*
X42539391Y-100625896D01*
X42546316Y-100630247D01*
X42609135Y-100660499D01*
X42849949Y-100776469D01*
X43088848Y-100860063D01*
X43168034Y-100887772D01*
X43168046Y-100887776D01*
X43496606Y-100962767D01*
X43831492Y-101000499D01*
X43831493Y-101000500D01*
X43831496Y-101000500D01*
X44168507Y-101000500D01*
X44168507Y-101000499D01*
X44503394Y-100962767D01*
X44831954Y-100887776D01*
X45150051Y-100776469D01*
X45453686Y-100630246D01*
X45739039Y-100450946D01*
X46002523Y-100240825D01*
X46240825Y-100002523D01*
X46450946Y-99739039D01*
X46505232Y-99652643D01*
X116135900Y-99652643D01*
X116135900Y-99867356D01*
X116169489Y-100079428D01*
X116235837Y-100283630D01*
X116235838Y-100283633D01*
X116331308Y-100471002D01*
X116333317Y-100474944D01*
X116459523Y-100648651D01*
X116611349Y-100800477D01*
X116785056Y-100926683D01*
X116855873Y-100962766D01*
X116976366Y-101024161D01*
X116976369Y-101024162D01*
X117078470Y-101057336D01*
X117180573Y-101090511D01*
X117392643Y-101124100D01*
X117392644Y-101124100D01*
X117607356Y-101124100D01*
X117607357Y-101124100D01*
X117819427Y-101090511D01*
X118023633Y-101024161D01*
X118214944Y-100926683D01*
X118388651Y-100800477D01*
X118540477Y-100648651D01*
X118666683Y-100474944D01*
X118666683Y-100474943D01*
X118669547Y-100471002D01*
X118671478Y-100472405D01*
X118715927Y-100432078D01*
X118784840Y-100420558D01*
X118849042Y-100448125D01*
X118869478Y-100471709D01*
X118870453Y-100471002D01*
X118873316Y-100474943D01*
X118873317Y-100474944D01*
X118999523Y-100648651D01*
X119151349Y-100800477D01*
X119325056Y-100926683D01*
X119395873Y-100962766D01*
X119516366Y-101024161D01*
X119516369Y-101024162D01*
X119618470Y-101057336D01*
X119720573Y-101090511D01*
X119932643Y-101124100D01*
X119932644Y-101124100D01*
X120147356Y-101124100D01*
X120147357Y-101124100D01*
X120359427Y-101090511D01*
X120563633Y-101024161D01*
X120754944Y-100926683D01*
X120928651Y-100800477D01*
X121080477Y-100648651D01*
X121206683Y-100474944D01*
X121206683Y-100474943D01*
X121209547Y-100471002D01*
X121211478Y-100472405D01*
X121255927Y-100432078D01*
X121324840Y-100420558D01*
X121389042Y-100448125D01*
X121409478Y-100471709D01*
X121410453Y-100471002D01*
X121413316Y-100474943D01*
X121413317Y-100474944D01*
X121539523Y-100648651D01*
X121691349Y-100800477D01*
X121865056Y-100926683D01*
X121935873Y-100962766D01*
X122056366Y-101024161D01*
X122056369Y-101024162D01*
X122158470Y-101057336D01*
X122260573Y-101090511D01*
X122472643Y-101124100D01*
X122472644Y-101124100D01*
X122687356Y-101124100D01*
X122687357Y-101124100D01*
X122899427Y-101090511D01*
X123103633Y-101024161D01*
X123294944Y-100926683D01*
X123468651Y-100800477D01*
X123620477Y-100648651D01*
X123746683Y-100474944D01*
X123746683Y-100474943D01*
X123749547Y-100471002D01*
X123751519Y-100472435D01*
X123795703Y-100432186D01*
X123864593Y-100420528D01*
X123928850Y-100447965D01*
X123949487Y-100471703D01*
X123950454Y-100471002D01*
X123953317Y-100474943D01*
X123953318Y-100474944D01*
X124079524Y-100648651D01*
X124231350Y-100800477D01*
X124405057Y-100926683D01*
X124475874Y-100962766D01*
X124596367Y-101024161D01*
X124596370Y-101024162D01*
X124698471Y-101057336D01*
X124800574Y-101090511D01*
X125012644Y-101124100D01*
X125012645Y-101124100D01*
X125227357Y-101124100D01*
X125227358Y-101124100D01*
X125439428Y-101090511D01*
X125643634Y-101024161D01*
X125834945Y-100926683D01*
X126008652Y-100800477D01*
X126160478Y-100648651D01*
X126286684Y-100474944D01*
X126286684Y-100474943D01*
X126289548Y-100471002D01*
X126291506Y-100472424D01*
X126335783Y-100432149D01*
X126404682Y-100420540D01*
X126468919Y-100448024D01*
X126489498Y-100471695D01*
X126490453Y-100471002D01*
X126493316Y-100474943D01*
X126493317Y-100474944D01*
X126619523Y-100648651D01*
X126771349Y-100800477D01*
X126945056Y-100926683D01*
X127015873Y-100962766D01*
X127136366Y-101024161D01*
X127136369Y-101024162D01*
X127238470Y-101057336D01*
X127340573Y-101090511D01*
X127552643Y-101124100D01*
X127552644Y-101124100D01*
X127767356Y-101124100D01*
X127767357Y-101124100D01*
X127979427Y-101090511D01*
X128183633Y-101024161D01*
X128374944Y-100926683D01*
X128548651Y-100800477D01*
X128700477Y-100648651D01*
X128826683Y-100474944D01*
X128826683Y-100474943D01*
X128829547Y-100471002D01*
X128831478Y-100472405D01*
X128875927Y-100432078D01*
X128944840Y-100420558D01*
X129009042Y-100448125D01*
X129029478Y-100471709D01*
X129030453Y-100471002D01*
X129033316Y-100474943D01*
X129033317Y-100474944D01*
X129159523Y-100648651D01*
X129311349Y-100800477D01*
X129485056Y-100926683D01*
X129555873Y-100962766D01*
X129676366Y-101024161D01*
X129676369Y-101024162D01*
X129778470Y-101057336D01*
X129880573Y-101090511D01*
X130092643Y-101124100D01*
X130092644Y-101124100D01*
X130307356Y-101124100D01*
X130307357Y-101124100D01*
X130519427Y-101090511D01*
X130723633Y-101024161D01*
X130914944Y-100926683D01*
X131088651Y-100800477D01*
X131240477Y-100648651D01*
X131366683Y-100474944D01*
X131366683Y-100474943D01*
X131369547Y-100471002D01*
X131371478Y-100472405D01*
X131415927Y-100432078D01*
X131484840Y-100420558D01*
X131549042Y-100448125D01*
X131569478Y-100471709D01*
X131570453Y-100471002D01*
X131573316Y-100474943D01*
X131573317Y-100474944D01*
X131699523Y-100648651D01*
X131851349Y-100800477D01*
X132025056Y-100926683D01*
X132095873Y-100962766D01*
X132216366Y-101024161D01*
X132216369Y-101024162D01*
X132318470Y-101057336D01*
X132420573Y-101090511D01*
X132632643Y-101124100D01*
X132632644Y-101124100D01*
X132847356Y-101124100D01*
X132847357Y-101124100D01*
X133059427Y-101090511D01*
X133263633Y-101024161D01*
X133454944Y-100926683D01*
X133628651Y-100800477D01*
X133780477Y-100648651D01*
X133906683Y-100474944D01*
X133906683Y-100474943D01*
X133909547Y-100471002D01*
X133911505Y-100472424D01*
X133955782Y-100432149D01*
X134024681Y-100420540D01*
X134088918Y-100448024D01*
X134109497Y-100471695D01*
X134110452Y-100471002D01*
X134113315Y-100474943D01*
X134113316Y-100474944D01*
X134239522Y-100648651D01*
X134391348Y-100800477D01*
X134565055Y-100926683D01*
X134635872Y-100962766D01*
X134756365Y-101024161D01*
X134756368Y-101024162D01*
X134858469Y-101057336D01*
X134960572Y-101090511D01*
X135172642Y-101124100D01*
X135172643Y-101124100D01*
X135387355Y-101124100D01*
X135387356Y-101124100D01*
X135599426Y-101090511D01*
X135803632Y-101024161D01*
X135994943Y-100926683D01*
X136168650Y-100800477D01*
X136320476Y-100648651D01*
X136446682Y-100474944D01*
X136544160Y-100283633D01*
X136610510Y-100079427D01*
X136644099Y-99867357D01*
X136644099Y-99652643D01*
X137979899Y-99652643D01*
X137979899Y-99867356D01*
X138013488Y-100079428D01*
X138079836Y-100283630D01*
X138079837Y-100283633D01*
X138175307Y-100471002D01*
X138177316Y-100474944D01*
X138303522Y-100648651D01*
X138455348Y-100800477D01*
X138629055Y-100926683D01*
X138699872Y-100962766D01*
X138820365Y-101024161D01*
X138820368Y-101024162D01*
X138922469Y-101057336D01*
X139024572Y-101090511D01*
X139236642Y-101124100D01*
X139236643Y-101124100D01*
X139451355Y-101124100D01*
X139451356Y-101124100D01*
X139663426Y-101090511D01*
X139867632Y-101024161D01*
X140058943Y-100926683D01*
X140232650Y-100800477D01*
X140384476Y-100648651D01*
X140510682Y-100474944D01*
X140510682Y-100474943D01*
X140513546Y-100471002D01*
X140515518Y-100472435D01*
X140559702Y-100432186D01*
X140628592Y-100420528D01*
X140692849Y-100447965D01*
X140713486Y-100471703D01*
X140714453Y-100471002D01*
X140717316Y-100474943D01*
X140717317Y-100474944D01*
X140843523Y-100648651D01*
X140995349Y-100800477D01*
X141169056Y-100926683D01*
X141239873Y-100962766D01*
X141360366Y-101024161D01*
X141360369Y-101024162D01*
X141462470Y-101057336D01*
X141564573Y-101090511D01*
X141776643Y-101124100D01*
X141776644Y-101124100D01*
X141991356Y-101124100D01*
X141991357Y-101124100D01*
X142203427Y-101090511D01*
X142407633Y-101024161D01*
X142598944Y-100926683D01*
X142772651Y-100800477D01*
X142924477Y-100648651D01*
X143050683Y-100474944D01*
X143050683Y-100474943D01*
X143053547Y-100471002D01*
X143055478Y-100472405D01*
X143099927Y-100432078D01*
X143168840Y-100420558D01*
X143233042Y-100448125D01*
X143253478Y-100471709D01*
X143254453Y-100471002D01*
X143257316Y-100474943D01*
X143257317Y-100474944D01*
X143383523Y-100648651D01*
X143535349Y-100800477D01*
X143709056Y-100926683D01*
X143779873Y-100962766D01*
X143900366Y-101024161D01*
X143900369Y-101024162D01*
X144002470Y-101057336D01*
X144104573Y-101090511D01*
X144316643Y-101124100D01*
X144316644Y-101124100D01*
X144531356Y-101124100D01*
X144531357Y-101124100D01*
X144743427Y-101090511D01*
X144947633Y-101024161D01*
X145138944Y-100926683D01*
X145312651Y-100800477D01*
X145464477Y-100648651D01*
X145590683Y-100474944D01*
X145590683Y-100474943D01*
X145593547Y-100471002D01*
X145595478Y-100472405D01*
X145639927Y-100432078D01*
X145708840Y-100420558D01*
X145773042Y-100448125D01*
X145793478Y-100471709D01*
X145794453Y-100471002D01*
X145797316Y-100474943D01*
X145797317Y-100474944D01*
X145923523Y-100648651D01*
X146075349Y-100800477D01*
X146249056Y-100926683D01*
X146319873Y-100962766D01*
X146440366Y-101024161D01*
X146440369Y-101024162D01*
X146542470Y-101057336D01*
X146644573Y-101090511D01*
X146856643Y-101124100D01*
X146856644Y-101124100D01*
X147071356Y-101124100D01*
X147071357Y-101124100D01*
X147283427Y-101090511D01*
X147487633Y-101024161D01*
X147678944Y-100926683D01*
X147852651Y-100800477D01*
X148004477Y-100648651D01*
X148130683Y-100474944D01*
X148130683Y-100474943D01*
X148133547Y-100471002D01*
X148135478Y-100472405D01*
X148179927Y-100432078D01*
X148248840Y-100420558D01*
X148313042Y-100448125D01*
X148333478Y-100471709D01*
X148334453Y-100471002D01*
X148337316Y-100474943D01*
X148337317Y-100474944D01*
X148463523Y-100648651D01*
X148615349Y-100800477D01*
X148789056Y-100926683D01*
X148859873Y-100962766D01*
X148980366Y-101024161D01*
X148980369Y-101024162D01*
X149082470Y-101057336D01*
X149184573Y-101090511D01*
X149396643Y-101124100D01*
X149396644Y-101124100D01*
X149611356Y-101124100D01*
X149611357Y-101124100D01*
X149823427Y-101090511D01*
X150027633Y-101024161D01*
X150218944Y-100926683D01*
X150392651Y-100800477D01*
X150544477Y-100648651D01*
X150670683Y-100474944D01*
X150670683Y-100474943D01*
X150673547Y-100471002D01*
X150675519Y-100472435D01*
X150719703Y-100432186D01*
X150788593Y-100420528D01*
X150852850Y-100447965D01*
X150873487Y-100471703D01*
X150874454Y-100471002D01*
X150877317Y-100474943D01*
X150877318Y-100474944D01*
X151003524Y-100648651D01*
X151155350Y-100800477D01*
X151329057Y-100926683D01*
X151399874Y-100962766D01*
X151520367Y-101024161D01*
X151520370Y-101024162D01*
X151622471Y-101057336D01*
X151724574Y-101090511D01*
X151936644Y-101124100D01*
X151936645Y-101124100D01*
X152151357Y-101124100D01*
X152151358Y-101124100D01*
X152363428Y-101090511D01*
X152567634Y-101024161D01*
X152758945Y-100926683D01*
X152932652Y-100800477D01*
X153029342Y-100703786D01*
X153090661Y-100670304D01*
X153160353Y-100675288D01*
X153216287Y-100717159D01*
X153233202Y-100748137D01*
X153277045Y-100865686D01*
X153277049Y-100865693D01*
X153363209Y-100980787D01*
X153363212Y-100980790D01*
X153478306Y-101066950D01*
X153478313Y-101066954D01*
X153613020Y-101117196D01*
X153613027Y-101117198D01*
X153672555Y-101123599D01*
X153672572Y-101123600D01*
X154334000Y-101123600D01*
X154334000Y-100202251D01*
X154387919Y-100233381D01*
X154517120Y-100268000D01*
X154650880Y-100268000D01*
X154780081Y-100233381D01*
X154834000Y-100202251D01*
X154834000Y-101123600D01*
X155495428Y-101123600D01*
X155495444Y-101123599D01*
X155554972Y-101117198D01*
X155554979Y-101117196D01*
X155689686Y-101066954D01*
X155689693Y-101066950D01*
X155804787Y-100980790D01*
X155804790Y-100980787D01*
X155890950Y-100865693D01*
X155890955Y-100865684D01*
X155934797Y-100748137D01*
X155976668Y-100692203D01*
X156042132Y-100667785D01*
X156110405Y-100682636D01*
X156138660Y-100703788D01*
X156235349Y-100800477D01*
X156409056Y-100926683D01*
X156479873Y-100962766D01*
X156600366Y-101024161D01*
X156600369Y-101024162D01*
X156702470Y-101057336D01*
X156804573Y-101090511D01*
X157016643Y-101124100D01*
X157016644Y-101124100D01*
X157231356Y-101124100D01*
X157231357Y-101124100D01*
X157443427Y-101090511D01*
X157647633Y-101024161D01*
X157838944Y-100926683D01*
X158012651Y-100800477D01*
X158164477Y-100648651D01*
X158290683Y-100474944D01*
X158290683Y-100474943D01*
X158293547Y-100471002D01*
X158295478Y-100472405D01*
X158339927Y-100432078D01*
X158408840Y-100420558D01*
X158473042Y-100448125D01*
X158493478Y-100471709D01*
X158494453Y-100471002D01*
X158497316Y-100474943D01*
X158497317Y-100474944D01*
X158623523Y-100648651D01*
X158775349Y-100800477D01*
X158949056Y-100926683D01*
X159019873Y-100962766D01*
X159140366Y-101024161D01*
X159140369Y-101024162D01*
X159242470Y-101057336D01*
X159344573Y-101090511D01*
X159556643Y-101124100D01*
X159556644Y-101124100D01*
X159771356Y-101124100D01*
X159771357Y-101124100D01*
X159983427Y-101090511D01*
X160187633Y-101024161D01*
X160378944Y-100926683D01*
X160552651Y-100800477D01*
X160704477Y-100648651D01*
X160830683Y-100474944D01*
X160830683Y-100474943D01*
X160833547Y-100471002D01*
X160835505Y-100472424D01*
X160879782Y-100432149D01*
X160948681Y-100420540D01*
X161012918Y-100448024D01*
X161033497Y-100471695D01*
X161034452Y-100471002D01*
X161037315Y-100474943D01*
X161037316Y-100474944D01*
X161163522Y-100648651D01*
X161315348Y-100800477D01*
X161489055Y-100926683D01*
X161559872Y-100962766D01*
X161680365Y-101024161D01*
X161680368Y-101024162D01*
X161782469Y-101057336D01*
X161884572Y-101090511D01*
X162096642Y-101124100D01*
X162096643Y-101124100D01*
X162311355Y-101124100D01*
X162311356Y-101124100D01*
X162523426Y-101090511D01*
X162727632Y-101024161D01*
X162918943Y-100926683D01*
X163092650Y-100800477D01*
X163196308Y-100696819D01*
X163257631Y-100663334D01*
X163283989Y-100660500D01*
X164328693Y-100660500D01*
X164328694Y-100660499D01*
X164502666Y-100625895D01*
X164584606Y-100591953D01*
X164666547Y-100558013D01*
X164790868Y-100474944D01*
X164814036Y-100459464D01*
X166336681Y-98936819D01*
X166398004Y-98903334D01*
X166424362Y-98900500D01*
X167588692Y-98900500D01*
X167588693Y-98900499D01*
X167762665Y-98865895D01*
X167857105Y-98826776D01*
X167926546Y-98798013D01*
X167996349Y-98751372D01*
X168044013Y-98719524D01*
X168054021Y-98712836D01*
X168074035Y-98699464D01*
X169743216Y-97030281D01*
X169804537Y-96996798D01*
X169850289Y-96995491D01*
X169881908Y-97000499D01*
X169881911Y-97000499D01*
X170118097Y-97000499D01*
X170351368Y-96963552D01*
X170352870Y-96963064D01*
X170575992Y-96890567D01*
X170786433Y-96783342D01*
X170977510Y-96644516D01*
X171144517Y-96477509D01*
X171283343Y-96286432D01*
X171390568Y-96075991D01*
X171463553Y-95851367D01*
X171479739Y-95749172D01*
X171500500Y-95618096D01*
X171500500Y-95381946D01*
X173000001Y-95381946D01*
X173000001Y-95618051D01*
X173036935Y-95851246D01*
X173109898Y-96075801D01*
X173217088Y-96286173D01*
X173277339Y-96369103D01*
X173277341Y-96369104D01*
X173976213Y-95670232D01*
X173987483Y-95712291D01*
X174059891Y-95837707D01*
X174162293Y-95940109D01*
X174287709Y-96012517D01*
X174329766Y-96023786D01*
X173630894Y-96722657D01*
X173713829Y-96782913D01*
X173924198Y-96890101D01*
X174148753Y-96963064D01*
X174148752Y-96963064D01*
X174381949Y-96999999D01*
X174618053Y-96999999D01*
X174851248Y-96963064D01*
X175075803Y-96890101D01*
X175286164Y-96782917D01*
X175286170Y-96782913D01*
X175369105Y-96722657D01*
X175369106Y-96722657D01*
X174670234Y-96023786D01*
X174712293Y-96012517D01*
X174837709Y-95940109D01*
X174940111Y-95837707D01*
X175012519Y-95712291D01*
X175023788Y-95670232D01*
X175722659Y-96369104D01*
X175722659Y-96369103D01*
X175782915Y-96286168D01*
X175782919Y-96286162D01*
X175890103Y-96075801D01*
X175963066Y-95851246D01*
X176000001Y-95618051D01*
X176000001Y-95381946D01*
X175963066Y-95148751D01*
X175890103Y-94924196D01*
X175782915Y-94713827D01*
X175722659Y-94630893D01*
X175722659Y-94630892D01*
X175023788Y-95329764D01*
X175012519Y-95287707D01*
X174940111Y-95162291D01*
X174837709Y-95059889D01*
X174712293Y-94987481D01*
X174670235Y-94976211D01*
X175369106Y-94277339D01*
X175369105Y-94277337D01*
X175286175Y-94217086D01*
X175075803Y-94109896D01*
X174851248Y-94036933D01*
X174851249Y-94036933D01*
X174618053Y-93999999D01*
X174381949Y-93999999D01*
X174148753Y-94036933D01*
X173924198Y-94109896D01*
X173713831Y-94217083D01*
X173630895Y-94277339D01*
X174329767Y-94976211D01*
X174287709Y-94987481D01*
X174162293Y-95059889D01*
X174059891Y-95162291D01*
X173987483Y-95287707D01*
X173976213Y-95329765D01*
X173277341Y-94630893D01*
X173217085Y-94713829D01*
X173109898Y-94924196D01*
X173036935Y-95148751D01*
X173000001Y-95381946D01*
X171500500Y-95381946D01*
X171500500Y-95381901D01*
X171463553Y-95148630D01*
X171415097Y-94999500D01*
X171390568Y-94924007D01*
X171390566Y-94924004D01*
X171390566Y-94924002D01*
X171309664Y-94765224D01*
X171283343Y-94713566D01*
X171144517Y-94522489D01*
X170977510Y-94355482D01*
X170946225Y-94332752D01*
X170941283Y-94328278D01*
X170926375Y-94303935D01*
X170908948Y-94281334D01*
X170907362Y-94272888D01*
X170904793Y-94268694D01*
X170904977Y-94260191D01*
X170900500Y-94236349D01*
X170900500Y-90263647D01*
X170920185Y-90196608D01*
X170951612Y-90163331D01*
X170977510Y-90144516D01*
X171144517Y-89977509D01*
X171283343Y-89786432D01*
X171390568Y-89575991D01*
X171463553Y-89351367D01*
X171477978Y-89260292D01*
X171500500Y-89118096D01*
X171500500Y-88881945D01*
X173000000Y-88881945D01*
X173000000Y-89118050D01*
X173036934Y-89351245D01*
X173109897Y-89575800D01*
X173217087Y-89786172D01*
X173277338Y-89869102D01*
X173277340Y-89869103D01*
X173976212Y-89170231D01*
X173987482Y-89212290D01*
X174059890Y-89337706D01*
X174162292Y-89440108D01*
X174287708Y-89512516D01*
X174329765Y-89523785D01*
X173630893Y-90222656D01*
X173713828Y-90282912D01*
X173924197Y-90390100D01*
X174148752Y-90463063D01*
X174148751Y-90463063D01*
X174381948Y-90499998D01*
X174618052Y-90499998D01*
X174851247Y-90463063D01*
X175075802Y-90390100D01*
X175286163Y-90282916D01*
X175286169Y-90282912D01*
X175369104Y-90222656D01*
X175369105Y-90222656D01*
X174670233Y-89523785D01*
X174712292Y-89512516D01*
X174837708Y-89440108D01*
X174940110Y-89337706D01*
X175012518Y-89212290D01*
X175023787Y-89170232D01*
X175722658Y-89869103D01*
X175722658Y-89869102D01*
X175782914Y-89786167D01*
X175782918Y-89786161D01*
X175890102Y-89575800D01*
X175963065Y-89351245D01*
X176000000Y-89118050D01*
X176000000Y-88881945D01*
X175963065Y-88648750D01*
X175890102Y-88424195D01*
X175782914Y-88213826D01*
X175722658Y-88130892D01*
X175722658Y-88130891D01*
X175023787Y-88829763D01*
X175012518Y-88787706D01*
X174940110Y-88662290D01*
X174837708Y-88559888D01*
X174712292Y-88487480D01*
X174670234Y-88476210D01*
X175369105Y-87777338D01*
X175369104Y-87777336D01*
X175286174Y-87717085D01*
X175075802Y-87609895D01*
X174851247Y-87536932D01*
X174851248Y-87536932D01*
X174618052Y-87499998D01*
X174381948Y-87499998D01*
X174148752Y-87536932D01*
X173924197Y-87609895D01*
X173713830Y-87717082D01*
X173630894Y-87777338D01*
X174329766Y-88476210D01*
X174287708Y-88487480D01*
X174162292Y-88559888D01*
X174059890Y-88662290D01*
X173987482Y-88787706D01*
X173976212Y-88829764D01*
X173277340Y-88130892D01*
X173217084Y-88213828D01*
X173109897Y-88424195D01*
X173036934Y-88648750D01*
X173000000Y-88881945D01*
X171500500Y-88881945D01*
X171500500Y-88881901D01*
X171463553Y-88648630D01*
X171414442Y-88497483D01*
X171390568Y-88424007D01*
X171390566Y-88424004D01*
X171390566Y-88424002D01*
X171316517Y-88278674D01*
X171283343Y-88213566D01*
X171144517Y-88022489D01*
X170977510Y-87855482D01*
X170786433Y-87716656D01*
X170575996Y-87609432D01*
X170351368Y-87536445D01*
X170118097Y-87499499D01*
X170118092Y-87499499D01*
X169881908Y-87499499D01*
X169881903Y-87499499D01*
X169648631Y-87536445D01*
X169424003Y-87609432D01*
X169213566Y-87716656D01*
X169130044Y-87777339D01*
X169022490Y-87855482D01*
X169022488Y-87855484D01*
X169022487Y-87855484D01*
X168855485Y-88022486D01*
X168855485Y-88022487D01*
X168855483Y-88022489D01*
X168795862Y-88104549D01*
X168716657Y-88213565D01*
X168609433Y-88424002D01*
X168536446Y-88648630D01*
X168499500Y-88881901D01*
X168499500Y-89118096D01*
X168536446Y-89351367D01*
X168609433Y-89575995D01*
X168636979Y-89630056D01*
X168716657Y-89786432D01*
X168855483Y-89977509D01*
X169022490Y-90144516D01*
X169048385Y-90163330D01*
X169091050Y-90218657D01*
X169099500Y-90263647D01*
X169099500Y-94236349D01*
X169079815Y-94303388D01*
X169048388Y-94336665D01*
X169022493Y-94355479D01*
X169022487Y-94355484D01*
X168855485Y-94522486D01*
X168855485Y-94522487D01*
X168855483Y-94522489D01*
X168828471Y-94559668D01*
X168716657Y-94713565D01*
X168609433Y-94924002D01*
X168536446Y-95148630D01*
X168499500Y-95381901D01*
X168499500Y-95618090D01*
X168504507Y-95649705D01*
X168495551Y-95718999D01*
X168469714Y-95756783D01*
X167163318Y-97063181D01*
X167101995Y-97096666D01*
X167075637Y-97099500D01*
X166182436Y-97099500D01*
X166115397Y-97079815D01*
X166069642Y-97027011D01*
X166059698Y-96957853D01*
X166088723Y-96894297D01*
X166126141Y-96865015D01*
X166155717Y-96849945D01*
X166286433Y-96783342D01*
X166477510Y-96644516D01*
X166644517Y-96477509D01*
X166783343Y-96286432D01*
X166890568Y-96075991D01*
X166963553Y-95851367D01*
X166979739Y-95749172D01*
X167000500Y-95618096D01*
X167000500Y-95381901D01*
X166963553Y-95148630D01*
X166915097Y-94999500D01*
X166890568Y-94924007D01*
X166890566Y-94924004D01*
X166890566Y-94924002D01*
X166809664Y-94765224D01*
X166783343Y-94713566D01*
X166644517Y-94522489D01*
X166477510Y-94355482D01*
X166477506Y-94355479D01*
X166451612Y-94336665D01*
X166408948Y-94281334D01*
X166400500Y-94236349D01*
X166400500Y-90263647D01*
X166420185Y-90196608D01*
X166451612Y-90163331D01*
X166477510Y-90144516D01*
X166644517Y-89977509D01*
X166783343Y-89786432D01*
X166890568Y-89575991D01*
X166963553Y-89351367D01*
X166977978Y-89260292D01*
X167000500Y-89118096D01*
X167000500Y-88881901D01*
X166963553Y-88648630D01*
X166914442Y-88497483D01*
X166890568Y-88424007D01*
X166890566Y-88424004D01*
X166890566Y-88424002D01*
X166816517Y-88278674D01*
X166783343Y-88213566D01*
X166644517Y-88022489D01*
X166477510Y-87855482D01*
X166286433Y-87716656D01*
X166075996Y-87609432D01*
X165851368Y-87536445D01*
X165618097Y-87499499D01*
X165618092Y-87499499D01*
X165381908Y-87499499D01*
X165381903Y-87499499D01*
X165148631Y-87536445D01*
X164924003Y-87609432D01*
X164713566Y-87716656D01*
X164630044Y-87777339D01*
X164522490Y-87855482D01*
X164522488Y-87855484D01*
X164522487Y-87855484D01*
X164355485Y-88022486D01*
X164355485Y-88022487D01*
X164355483Y-88022489D01*
X164295862Y-88104549D01*
X164216657Y-88213565D01*
X164109433Y-88424002D01*
X164036446Y-88648630D01*
X163999500Y-88881901D01*
X163999500Y-89118096D01*
X164036446Y-89351367D01*
X164109433Y-89575995D01*
X164136979Y-89630056D01*
X164216657Y-89786432D01*
X164355483Y-89977509D01*
X164522490Y-90144516D01*
X164548385Y-90163330D01*
X164591050Y-90218657D01*
X164599500Y-90263647D01*
X164599500Y-94236349D01*
X164579815Y-94303388D01*
X164548388Y-94336665D01*
X164522493Y-94355479D01*
X164522487Y-94355484D01*
X164355485Y-94522486D01*
X164355485Y-94522487D01*
X164355483Y-94522489D01*
X164328471Y-94559668D01*
X164216657Y-94713565D01*
X164109433Y-94924002D01*
X164036446Y-95148630D01*
X163999500Y-95381901D01*
X163999500Y-95618090D01*
X164004507Y-95649705D01*
X163995551Y-95718999D01*
X163969714Y-95756783D01*
X163163318Y-96563181D01*
X163101995Y-96596666D01*
X163075637Y-96599500D01*
X162298632Y-96599500D01*
X162231593Y-96579815D01*
X162185838Y-96527011D01*
X162175894Y-96457853D01*
X162198314Y-96402615D01*
X162282912Y-96286174D01*
X162390102Y-96075802D01*
X162463065Y-95851247D01*
X162500000Y-95618052D01*
X162500000Y-95381947D01*
X162463065Y-95148752D01*
X162390102Y-94924197D01*
X162282914Y-94713828D01*
X162222658Y-94630894D01*
X162222658Y-94630893D01*
X161523787Y-95329765D01*
X161512518Y-95287708D01*
X161440110Y-95162292D01*
X161337708Y-95059890D01*
X161212292Y-94987482D01*
X161170234Y-94976212D01*
X161869105Y-94277340D01*
X161869104Y-94277338D01*
X161786174Y-94217087D01*
X161575802Y-94109897D01*
X161351247Y-94036934D01*
X161351248Y-94036934D01*
X161118052Y-94000000D01*
X160881948Y-94000000D01*
X160648752Y-94036934D01*
X160424197Y-94109897D01*
X160213830Y-94217084D01*
X160130894Y-94277340D01*
X160829766Y-94976212D01*
X160787708Y-94987482D01*
X160662292Y-95059890D01*
X160559890Y-95162292D01*
X160487482Y-95287708D01*
X160476212Y-95329766D01*
X159777340Y-94630894D01*
X159717084Y-94713830D01*
X159609897Y-94924197D01*
X159536934Y-95148752D01*
X159500000Y-95381947D01*
X159500000Y-95618052D01*
X159536934Y-95851247D01*
X159609897Y-96075802D01*
X159717087Y-96286174D01*
X159777338Y-96369104D01*
X159777340Y-96369105D01*
X160476212Y-95670233D01*
X160487482Y-95712292D01*
X160559890Y-95837708D01*
X160662292Y-95940110D01*
X160787708Y-96012518D01*
X160829765Y-96023787D01*
X160130893Y-96722658D01*
X160213828Y-96782914D01*
X160424197Y-96890102D01*
X160648752Y-96963065D01*
X160648751Y-96963065D01*
X160881948Y-97000000D01*
X161071138Y-97000000D01*
X161138177Y-97019685D01*
X161183932Y-97072489D01*
X161193876Y-97141647D01*
X161164851Y-97205203D01*
X161158819Y-97211681D01*
X159991485Y-98379013D01*
X159930162Y-98412498D01*
X159884405Y-98413805D01*
X159771361Y-98395900D01*
X159771357Y-98395900D01*
X159556643Y-98395900D01*
X159485953Y-98407096D01*
X159344571Y-98429489D01*
X159140369Y-98495837D01*
X159140366Y-98495838D01*
X158949055Y-98593317D01*
X158775346Y-98719525D01*
X158623525Y-98871346D01*
X158623525Y-98871347D01*
X158623523Y-98871349D01*
X158575956Y-98936819D01*
X158494453Y-99048998D01*
X158492562Y-99047624D01*
X158447848Y-99088030D01*
X158378911Y-99099411D01*
X158314765Y-99071715D01*
X158294488Y-99048314D01*
X158293547Y-99048998D01*
X158290682Y-99045055D01*
X158164477Y-98871349D01*
X158012651Y-98719523D01*
X157838944Y-98593317D01*
X157838940Y-98593315D01*
X157647633Y-98495838D01*
X157647630Y-98495837D01*
X157443428Y-98429489D01*
X157336151Y-98412498D01*
X157231357Y-98395900D01*
X157016643Y-98395900D01*
X156945953Y-98407096D01*
X156804571Y-98429489D01*
X156600369Y-98495837D01*
X156600366Y-98495838D01*
X156409055Y-98593317D01*
X156235350Y-98719522D01*
X156138660Y-98816212D01*
X156077336Y-98849696D01*
X156007645Y-98844712D01*
X155951712Y-98802840D01*
X155934797Y-98771863D01*
X155890954Y-98654313D01*
X155890950Y-98654306D01*
X155804790Y-98539212D01*
X155804787Y-98539209D01*
X155689693Y-98453049D01*
X155689686Y-98453045D01*
X155554979Y-98402803D01*
X155554972Y-98402801D01*
X155495444Y-98396400D01*
X154834000Y-98396400D01*
X154834000Y-99317748D01*
X154780081Y-99286619D01*
X154650880Y-99252000D01*
X154517120Y-99252000D01*
X154387919Y-99286619D01*
X154334000Y-99317748D01*
X154334000Y-98396400D01*
X153672555Y-98396400D01*
X153613027Y-98402801D01*
X153613020Y-98402803D01*
X153478313Y-98453045D01*
X153478306Y-98453049D01*
X153363212Y-98539209D01*
X153363209Y-98539212D01*
X153277049Y-98654306D01*
X153277046Y-98654311D01*
X153233202Y-98771863D01*
X153191330Y-98827796D01*
X153125866Y-98852213D01*
X153057593Y-98837361D01*
X153029339Y-98816210D01*
X153000820Y-98787691D01*
X152967335Y-98726368D01*
X152964501Y-98700010D01*
X152964501Y-94695005D01*
X152937582Y-94559678D01*
X152937581Y-94559677D01*
X152937581Y-94559673D01*
X152922178Y-94522486D01*
X152884779Y-94432196D01*
X152884772Y-94432183D01*
X152858918Y-94393490D01*
X152808116Y-94317460D01*
X152759350Y-94268694D01*
X152710543Y-94219887D01*
X151796072Y-93305416D01*
X151769192Y-93265187D01*
X151709397Y-93120827D01*
X151709390Y-93120814D01*
X151621789Y-92989711D01*
X151621786Y-92989707D01*
X151542086Y-92910007D01*
X151508601Y-92848684D01*
X151513585Y-92778992D01*
X151555457Y-92723059D01*
X151610367Y-92699853D01*
X151816243Y-92667246D01*
X152018412Y-92601557D01*
X152207816Y-92505051D01*
X152229789Y-92489086D01*
X152379786Y-92380109D01*
X152379788Y-92380106D01*
X152379792Y-92380104D01*
X152530104Y-92229792D01*
X152530106Y-92229788D01*
X152530109Y-92229786D01*
X152655048Y-92057820D01*
X152655047Y-92057820D01*
X152655051Y-92057816D01*
X152751557Y-91868412D01*
X152817246Y-91666243D01*
X152850500Y-91456287D01*
X152850500Y-91243713D01*
X152817246Y-91033757D01*
X152751557Y-90831588D01*
X152655051Y-90642184D01*
X152655049Y-90642181D01*
X152655048Y-90642179D01*
X152530109Y-90470213D01*
X152379792Y-90319896D01*
X152328889Y-90282913D01*
X152207816Y-90194949D01*
X152191380Y-90186574D01*
X152184323Y-90181643D01*
X152167650Y-90160826D01*
X152148259Y-90142512D01*
X152146144Y-90133973D01*
X152140646Y-90127108D01*
X152137874Y-90100581D01*
X152131463Y-90074692D01*
X152134300Y-90066365D01*
X152133386Y-90057616D01*
X152145396Y-90033801D01*
X152153999Y-90008556D01*
X152161334Y-90002199D01*
X152164849Y-89995231D01*
X152179000Y-89986892D01*
X152199054Y-89969515D01*
X152207816Y-89965051D01*
X152339877Y-89869104D01*
X152379786Y-89840109D01*
X152379788Y-89840106D01*
X152379792Y-89840104D01*
X152530104Y-89689792D01*
X152530106Y-89689788D01*
X152530109Y-89689786D01*
X152655048Y-89517820D01*
X152655047Y-89517820D01*
X152655051Y-89517816D01*
X152751557Y-89328412D01*
X152817246Y-89126243D01*
X152850500Y-88916287D01*
X152850500Y-88703713D01*
X152825715Y-88547227D01*
X152834670Y-88477933D01*
X152860504Y-88440151D01*
X154547114Y-86753543D01*
X154623775Y-86638811D01*
X154626526Y-86632171D01*
X154643433Y-86591353D01*
X154643433Y-86591352D01*
X154676580Y-86511328D01*
X154693393Y-86426805D01*
X154703500Y-86375996D01*
X154703500Y-82758518D01*
X154723185Y-82691479D01*
X154739815Y-82670841D01*
X154937820Y-82472836D01*
X154999142Y-82439352D01*
X155068834Y-82444336D01*
X155124767Y-82486208D01*
X155149184Y-82551672D01*
X155149500Y-82560518D01*
X155149500Y-82566287D01*
X155157850Y-82619006D01*
X155179946Y-82758518D01*
X155182754Y-82776243D01*
X155222912Y-82899837D01*
X155248444Y-82978414D01*
X155344951Y-83167820D01*
X155469890Y-83339786D01*
X155620213Y-83490109D01*
X155792179Y-83615048D01*
X155792181Y-83615049D01*
X155792184Y-83615051D01*
X155801493Y-83619794D01*
X155852290Y-83667766D01*
X155869087Y-83735587D01*
X155846552Y-83801722D01*
X155801505Y-83840760D01*
X155792446Y-83845376D01*
X155792440Y-83845380D01*
X155738282Y-83884727D01*
X155738282Y-83884728D01*
X156370591Y-84517037D01*
X156307007Y-84534075D01*
X156192993Y-84599901D01*
X156099901Y-84692993D01*
X156034075Y-84807007D01*
X156017037Y-84870591D01*
X155384728Y-84238282D01*
X155384727Y-84238282D01*
X155345380Y-84292439D01*
X155248904Y-84481782D01*
X155183242Y-84683869D01*
X155183242Y-84683872D01*
X155150000Y-84893753D01*
X155150000Y-85106246D01*
X155183242Y-85316127D01*
X155183242Y-85316130D01*
X155248904Y-85518217D01*
X155345375Y-85707550D01*
X155384728Y-85761716D01*
X156017037Y-85129408D01*
X156034075Y-85192993D01*
X156099901Y-85307007D01*
X156192993Y-85400099D01*
X156307007Y-85465925D01*
X156370590Y-85482962D01*
X155700370Y-86153181D01*
X155639047Y-86186666D01*
X155612698Y-86189500D01*
X155602134Y-86189500D01*
X155602123Y-86189501D01*
X155542516Y-86195908D01*
X155407671Y-86246202D01*
X155407664Y-86246206D01*
X155292455Y-86332452D01*
X155292452Y-86332455D01*
X155206206Y-86447664D01*
X155206202Y-86447671D01*
X155155908Y-86582517D01*
X155149501Y-86642116D01*
X155149501Y-86642123D01*
X155149500Y-86642135D01*
X155149500Y-88437870D01*
X155149501Y-88437876D01*
X155155908Y-88497483D01*
X155206202Y-88632328D01*
X155206206Y-88632335D01*
X155292452Y-88747544D01*
X155292455Y-88747547D01*
X155407664Y-88833793D01*
X155407671Y-88833797D01*
X155542517Y-88884091D01*
X155542516Y-88884091D01*
X155549444Y-88884835D01*
X155602127Y-88890500D01*
X157397872Y-88890499D01*
X157457483Y-88884091D01*
X157463234Y-88881946D01*
X159499999Y-88881946D01*
X159499999Y-89118051D01*
X159536933Y-89351246D01*
X159609896Y-89575801D01*
X159717086Y-89786173D01*
X159777337Y-89869103D01*
X159777339Y-89869104D01*
X160476211Y-89170232D01*
X160487481Y-89212291D01*
X160559889Y-89337707D01*
X160662291Y-89440109D01*
X160787707Y-89512517D01*
X160829764Y-89523786D01*
X160130892Y-90222657D01*
X160213827Y-90282913D01*
X160424196Y-90390101D01*
X160648751Y-90463064D01*
X160648750Y-90463064D01*
X160881947Y-90499999D01*
X161118051Y-90499999D01*
X161351246Y-90463064D01*
X161575801Y-90390101D01*
X161786162Y-90282917D01*
X161786168Y-90282913D01*
X161869103Y-90222657D01*
X161869104Y-90222657D01*
X161170232Y-89523786D01*
X161212291Y-89512517D01*
X161337707Y-89440109D01*
X161440109Y-89337707D01*
X161512517Y-89212291D01*
X161523786Y-89170233D01*
X162222657Y-89869104D01*
X162222657Y-89869103D01*
X162282913Y-89786168D01*
X162282917Y-89786162D01*
X162390101Y-89575801D01*
X162463064Y-89351246D01*
X162499999Y-89118051D01*
X162499999Y-88881946D01*
X162463064Y-88648751D01*
X162390101Y-88424196D01*
X162282913Y-88213827D01*
X162222657Y-88130893D01*
X162222657Y-88130892D01*
X161523786Y-88829764D01*
X161512517Y-88787707D01*
X161440109Y-88662291D01*
X161337707Y-88559889D01*
X161212291Y-88487481D01*
X161170233Y-88476211D01*
X161869104Y-87777339D01*
X161869103Y-87777337D01*
X161786173Y-87717086D01*
X161575801Y-87609896D01*
X161351246Y-87536933D01*
X161351247Y-87536933D01*
X161118051Y-87499999D01*
X160881947Y-87499999D01*
X160648751Y-87536933D01*
X160424196Y-87609896D01*
X160213829Y-87717083D01*
X160130893Y-87777339D01*
X160829765Y-88476211D01*
X160787707Y-88487481D01*
X160662291Y-88559889D01*
X160559889Y-88662291D01*
X160487481Y-88787707D01*
X160476211Y-88829765D01*
X159777339Y-88130893D01*
X159717083Y-88213829D01*
X159609896Y-88424196D01*
X159536933Y-88648751D01*
X159499999Y-88881946D01*
X157463234Y-88881946D01*
X157592331Y-88833796D01*
X157598949Y-88828842D01*
X157667122Y-88777808D01*
X157688811Y-88761570D01*
X157707546Y-88747546D01*
X157793796Y-88632331D01*
X157844091Y-88497483D01*
X157850500Y-88437873D01*
X157850499Y-87536933D01*
X157850499Y-86642129D01*
X157850498Y-86642123D01*
X157850497Y-86642116D01*
X157844091Y-86582517D01*
X157839687Y-86570710D01*
X157793797Y-86447671D01*
X157793793Y-86447664D01*
X157707547Y-86332455D01*
X157707544Y-86332452D01*
X157592335Y-86246206D01*
X157592328Y-86246202D01*
X157457482Y-86195908D01*
X157457483Y-86195908D01*
X157397883Y-86189501D01*
X157397881Y-86189500D01*
X157397873Y-86189500D01*
X157397865Y-86189500D01*
X157387309Y-86189500D01*
X157320270Y-86169815D01*
X157299628Y-86153181D01*
X156629408Y-85482962D01*
X156692993Y-85465925D01*
X156807007Y-85400099D01*
X156900099Y-85307007D01*
X156965925Y-85192993D01*
X156982962Y-85129408D01*
X157615270Y-85761717D01*
X157615270Y-85761716D01*
X157654622Y-85707554D01*
X157751095Y-85518217D01*
X157816757Y-85316130D01*
X157816757Y-85316127D01*
X157850000Y-85106246D01*
X157850000Y-84893753D01*
X157816757Y-84683872D01*
X157816757Y-84683869D01*
X157751095Y-84481782D01*
X157654624Y-84292449D01*
X157615270Y-84238282D01*
X157615269Y-84238282D01*
X156982962Y-84870590D01*
X156965925Y-84807007D01*
X156900099Y-84692993D01*
X156807007Y-84599901D01*
X156692993Y-84534075D01*
X156629409Y-84517037D01*
X157261716Y-83884728D01*
X157207547Y-83845373D01*
X157207547Y-83845372D01*
X157198500Y-83840763D01*
X157147706Y-83792788D01*
X157130912Y-83724966D01*
X157153451Y-83658832D01*
X157198508Y-83619793D01*
X157207816Y-83615051D01*
X157294147Y-83552328D01*
X157379786Y-83490109D01*
X157379788Y-83490106D01*
X157379792Y-83490104D01*
X157530104Y-83339792D01*
X157530106Y-83339788D01*
X157530109Y-83339786D01*
X157655048Y-83167820D01*
X157655047Y-83167820D01*
X157655051Y-83167816D01*
X157751557Y-82978412D01*
X157817246Y-82776243D01*
X157850500Y-82566287D01*
X157850500Y-82353713D01*
X157817246Y-82143757D01*
X157751557Y-81941588D01*
X157655051Y-81752184D01*
X157655049Y-81752181D01*
X157655048Y-81752179D01*
X157530109Y-81580213D01*
X157379786Y-81429890D01*
X157207820Y-81304951D01*
X157207115Y-81304591D01*
X157199054Y-81300485D01*
X157148259Y-81252512D01*
X157131463Y-81184692D01*
X157153999Y-81118556D01*
X157199054Y-81079515D01*
X157207816Y-81075051D01*
X157304252Y-81004987D01*
X157379786Y-80950109D01*
X157379788Y-80950106D01*
X157379792Y-80950104D01*
X157530104Y-80799792D01*
X157530106Y-80799788D01*
X157530109Y-80799786D01*
X157655048Y-80627820D01*
X157655047Y-80627820D01*
X157655051Y-80627816D01*
X157751557Y-80438412D01*
X157817246Y-80236243D01*
X157850500Y-80026287D01*
X157850500Y-79813713D01*
X157817246Y-79603757D01*
X157751557Y-79401588D01*
X157655051Y-79212184D01*
X157655049Y-79212181D01*
X157655048Y-79212179D01*
X157530109Y-79040213D01*
X157379786Y-78889890D01*
X157207820Y-78764951D01*
X157207115Y-78764591D01*
X157199054Y-78760485D01*
X157148259Y-78712512D01*
X157131463Y-78644692D01*
X157153999Y-78578556D01*
X157199054Y-78539515D01*
X157207816Y-78535051D01*
X157229789Y-78519086D01*
X157379786Y-78410109D01*
X157379788Y-78410106D01*
X157379792Y-78410104D01*
X157530104Y-78259792D01*
X157530106Y-78259788D01*
X157530109Y-78259786D01*
X157655048Y-78087820D01*
X157655047Y-78087820D01*
X157655051Y-78087816D01*
X157751557Y-77898412D01*
X157817246Y-77696243D01*
X157850500Y-77486287D01*
X157850500Y-77273713D01*
X157817246Y-77063757D01*
X157751557Y-76861588D01*
X157655051Y-76672184D01*
X157655049Y-76672181D01*
X157655048Y-76672179D01*
X157530109Y-76500213D01*
X157379786Y-76349890D01*
X157207820Y-76224951D01*
X157207115Y-76224591D01*
X157199054Y-76220485D01*
X157148259Y-76172512D01*
X157131463Y-76104692D01*
X157153999Y-76038556D01*
X157199054Y-75999515D01*
X157207816Y-75995051D01*
X157244480Y-75968413D01*
X157379786Y-75870109D01*
X157379788Y-75870106D01*
X157379792Y-75870104D01*
X157530104Y-75719792D01*
X157530106Y-75719788D01*
X157530109Y-75719786D01*
X157655048Y-75547820D01*
X157655047Y-75547820D01*
X157655051Y-75547816D01*
X157751557Y-75358412D01*
X157817246Y-75156243D01*
X157850500Y-74946287D01*
X157850500Y-74733713D01*
X157817246Y-74523757D01*
X157751557Y-74321588D01*
X157655051Y-74132184D01*
X157655049Y-74132181D01*
X157655048Y-74132179D01*
X157530109Y-73960213D01*
X157379786Y-73809890D01*
X157207820Y-73684951D01*
X157207115Y-73684591D01*
X157199054Y-73680485D01*
X157148259Y-73632512D01*
X157131463Y-73564692D01*
X157153999Y-73498556D01*
X157199054Y-73459515D01*
X157207816Y-73455051D01*
X157229789Y-73439086D01*
X157379786Y-73330109D01*
X157379788Y-73330106D01*
X157379792Y-73330104D01*
X157530104Y-73179792D01*
X157530106Y-73179788D01*
X157530109Y-73179786D01*
X157655048Y-73007820D01*
X157655047Y-73007820D01*
X157655051Y-73007816D01*
X157751557Y-72818412D01*
X157817246Y-72616243D01*
X157850500Y-72406287D01*
X157850500Y-72193713D01*
X157817246Y-71983757D01*
X157751557Y-71781588D01*
X157655051Y-71592184D01*
X157655049Y-71592181D01*
X157655048Y-71592179D01*
X157530109Y-71420213D01*
X157379786Y-71269890D01*
X157207820Y-71144951D01*
X157207115Y-71144591D01*
X157199054Y-71140485D01*
X157148259Y-71092512D01*
X157131463Y-71024692D01*
X157153999Y-70958556D01*
X157199054Y-70919515D01*
X157207816Y-70915051D01*
X157289279Y-70855865D01*
X157379786Y-70790109D01*
X157379788Y-70790106D01*
X157379792Y-70790104D01*
X157530104Y-70639792D01*
X157530106Y-70639788D01*
X157530109Y-70639786D01*
X157655048Y-70467820D01*
X157655047Y-70467820D01*
X157655051Y-70467816D01*
X157751557Y-70278412D01*
X157817246Y-70076243D01*
X157850500Y-69866287D01*
X157850500Y-69653713D01*
X157817246Y-69443757D01*
X157751557Y-69241588D01*
X157655051Y-69052184D01*
X157655049Y-69052181D01*
X157655048Y-69052179D01*
X157530109Y-68880213D01*
X157379786Y-68729890D01*
X157207820Y-68604951D01*
X157207115Y-68604591D01*
X157199054Y-68600485D01*
X157148259Y-68552512D01*
X157131463Y-68484692D01*
X157153999Y-68418556D01*
X157199054Y-68379515D01*
X157207816Y-68375051D01*
X157229789Y-68359086D01*
X157379786Y-68250109D01*
X157379788Y-68250106D01*
X157379792Y-68250104D01*
X157530104Y-68099792D01*
X157530106Y-68099788D01*
X157530109Y-68099786D01*
X157655048Y-67927820D01*
X157655047Y-67927820D01*
X157655051Y-67927816D01*
X157751557Y-67738412D01*
X157817246Y-67536243D01*
X157850500Y-67326287D01*
X157850500Y-67113713D01*
X157817246Y-66903757D01*
X157751557Y-66701588D01*
X157655051Y-66512184D01*
X157655049Y-66512181D01*
X157655048Y-66512179D01*
X157530109Y-66340213D01*
X157379786Y-66189890D01*
X157207820Y-66064951D01*
X157207115Y-66064591D01*
X157199054Y-66060485D01*
X157148259Y-66012512D01*
X157131463Y-65944692D01*
X157153999Y-65878556D01*
X157199054Y-65839515D01*
X157207816Y-65835051D01*
X157308750Y-65761719D01*
X157379786Y-65710109D01*
X157379788Y-65710106D01*
X157379792Y-65710104D01*
X157530104Y-65559792D01*
X157530106Y-65559788D01*
X157530109Y-65559786D01*
X157655048Y-65387820D01*
X157655047Y-65387820D01*
X157655051Y-65387816D01*
X157751557Y-65198412D01*
X157817246Y-64996243D01*
X157850500Y-64786287D01*
X157850500Y-64573713D01*
X157817246Y-64363757D01*
X157751557Y-64161588D01*
X157655051Y-63972184D01*
X157655049Y-63972181D01*
X157655048Y-63972179D01*
X157530109Y-63800213D01*
X157379786Y-63649890D01*
X157207820Y-63524951D01*
X157207115Y-63524591D01*
X157199054Y-63520485D01*
X157148259Y-63472512D01*
X157131463Y-63404692D01*
X157153999Y-63338556D01*
X157199054Y-63299515D01*
X157207816Y-63295051D01*
X157229789Y-63279086D01*
X157379786Y-63170109D01*
X157379788Y-63170106D01*
X157379792Y-63170104D01*
X157530104Y-63019792D01*
X157530106Y-63019788D01*
X157530109Y-63019786D01*
X157655048Y-62847820D01*
X157655047Y-62847820D01*
X157655051Y-62847816D01*
X157751557Y-62658412D01*
X157817246Y-62456243D01*
X157850500Y-62246287D01*
X157850500Y-62033713D01*
X157817246Y-61823757D01*
X157751557Y-61621588D01*
X157655051Y-61432184D01*
X157655049Y-61432181D01*
X157655048Y-61432179D01*
X157530109Y-61260213D01*
X157379786Y-61109890D01*
X157207820Y-60984951D01*
X157207115Y-60984591D01*
X157199054Y-60980485D01*
X157148259Y-60932512D01*
X157131463Y-60864692D01*
X157153999Y-60798556D01*
X157199054Y-60759515D01*
X157207816Y-60755051D01*
X157280853Y-60701987D01*
X157379786Y-60630109D01*
X157379792Y-60630104D01*
X157446715Y-60563181D01*
X157530104Y-60479792D01*
X157530106Y-60479788D01*
X157530109Y-60479786D01*
X157655048Y-60307820D01*
X157655047Y-60307820D01*
X157655051Y-60307816D01*
X157751557Y-60118412D01*
X157817246Y-59916243D01*
X157850500Y-59706287D01*
X157850500Y-59493713D01*
X157817246Y-59283757D01*
X157751557Y-59081588D01*
X157655051Y-58892184D01*
X157655049Y-58892181D01*
X157655048Y-58892179D01*
X157530109Y-58720213D01*
X157379786Y-58569890D01*
X157207820Y-58444951D01*
X157207115Y-58444591D01*
X157199054Y-58440485D01*
X157148259Y-58392512D01*
X157131463Y-58324692D01*
X157153999Y-58258556D01*
X157199054Y-58219515D01*
X157207816Y-58215051D01*
X157229789Y-58199086D01*
X157379786Y-58090109D01*
X157379788Y-58090106D01*
X157379792Y-58090104D01*
X157530104Y-57939792D01*
X157530106Y-57939788D01*
X157530109Y-57939786D01*
X157655048Y-57767820D01*
X157655047Y-57767820D01*
X157655051Y-57767816D01*
X157751557Y-57578412D01*
X157817246Y-57376243D01*
X157850500Y-57166287D01*
X157850500Y-56953713D01*
X157817246Y-56743757D01*
X157751557Y-56541588D01*
X157655051Y-56352184D01*
X157655049Y-56352181D01*
X157655048Y-56352179D01*
X157530109Y-56180213D01*
X157379786Y-56029890D01*
X157207820Y-55904951D01*
X157207115Y-55904591D01*
X157199054Y-55900485D01*
X157148259Y-55852512D01*
X157131463Y-55784692D01*
X157153999Y-55718556D01*
X157199054Y-55679515D01*
X157207816Y-55675051D01*
X157269485Y-55630246D01*
X157379786Y-55550109D01*
X157379788Y-55550106D01*
X157379792Y-55550104D01*
X157530104Y-55399792D01*
X157530106Y-55399788D01*
X157530109Y-55399786D01*
X157655048Y-55227820D01*
X157655047Y-55227820D01*
X157655051Y-55227816D01*
X157751557Y-55038412D01*
X157817246Y-54836243D01*
X157850500Y-54626287D01*
X157850500Y-54413713D01*
X157817246Y-54203757D01*
X157751557Y-54001588D01*
X157655051Y-53812184D01*
X157655049Y-53812181D01*
X157655048Y-53812179D01*
X157530109Y-53640213D01*
X157379786Y-53489890D01*
X157207820Y-53364951D01*
X157018414Y-53268444D01*
X157018413Y-53268443D01*
X157018412Y-53268443D01*
X156816243Y-53202754D01*
X156816241Y-53202753D01*
X156816240Y-53202753D01*
X156654957Y-53177208D01*
X156606287Y-53169500D01*
X156393713Y-53169500D01*
X156345042Y-53177208D01*
X156183760Y-53202753D01*
X155981585Y-53268444D01*
X155792179Y-53364951D01*
X155620213Y-53489890D01*
X155469890Y-53640213D01*
X155344951Y-53812179D01*
X155248444Y-54001585D01*
X155182753Y-54203760D01*
X155149500Y-54413713D01*
X155149500Y-54626286D01*
X155182753Y-54836239D01*
X155248444Y-55038414D01*
X155344951Y-55227820D01*
X155469890Y-55399786D01*
X155620213Y-55550109D01*
X155792182Y-55675050D01*
X155800946Y-55679516D01*
X155851742Y-55727491D01*
X155868536Y-55795312D01*
X155845998Y-55861447D01*
X155800946Y-55900484D01*
X155792182Y-55904949D01*
X155620213Y-56029890D01*
X155469890Y-56180213D01*
X155344951Y-56352179D01*
X155248444Y-56541585D01*
X155182753Y-56743760D01*
X155149500Y-56953713D01*
X155149500Y-57166286D01*
X155182753Y-57376239D01*
X155248444Y-57578414D01*
X155344951Y-57767820D01*
X155469890Y-57939786D01*
X155620213Y-58090109D01*
X155792182Y-58215050D01*
X155800946Y-58219516D01*
X155851742Y-58267491D01*
X155868536Y-58335312D01*
X155845998Y-58401447D01*
X155800946Y-58440484D01*
X155792182Y-58444949D01*
X155620213Y-58569890D01*
X155469890Y-58720213D01*
X155344951Y-58892179D01*
X155248444Y-59081585D01*
X155182753Y-59283760D01*
X155149500Y-59493713D01*
X155149500Y-59706286D01*
X155182753Y-59916239D01*
X155248444Y-60118414D01*
X155344951Y-60307820D01*
X155469890Y-60479786D01*
X155620213Y-60630109D01*
X155792182Y-60755050D01*
X155800946Y-60759516D01*
X155851742Y-60807491D01*
X155868536Y-60875312D01*
X155845998Y-60941447D01*
X155800946Y-60980484D01*
X155792182Y-60984949D01*
X155620213Y-61109890D01*
X155469890Y-61260213D01*
X155344951Y-61432179D01*
X155248444Y-61621585D01*
X155182753Y-61823760D01*
X155149500Y-62033713D01*
X155149500Y-62246286D01*
X155182753Y-62456239D01*
X155248444Y-62658414D01*
X155344951Y-62847820D01*
X155469890Y-63019786D01*
X155620213Y-63170109D01*
X155792182Y-63295050D01*
X155800946Y-63299516D01*
X155851742Y-63347491D01*
X155868536Y-63415312D01*
X155845998Y-63481447D01*
X155800946Y-63520484D01*
X155792182Y-63524949D01*
X155620213Y-63649890D01*
X155469890Y-63800213D01*
X155344951Y-63972179D01*
X155248444Y-64161585D01*
X155182753Y-64363760D01*
X155149500Y-64573713D01*
X155149500Y-64579480D01*
X155129815Y-64646519D01*
X155077011Y-64692274D01*
X155007853Y-64702218D01*
X154944297Y-64673193D01*
X154937819Y-64667161D01*
X153726545Y-63455887D01*
X153611807Y-63379222D01*
X153484332Y-63326421D01*
X153484322Y-63326418D01*
X153348996Y-63299500D01*
X153348994Y-63299500D01*
X153348993Y-63299500D01*
X149568994Y-63299500D01*
X149431006Y-63299500D01*
X149431004Y-63299500D01*
X149295677Y-63326418D01*
X149295667Y-63326421D01*
X149168192Y-63379222D01*
X149053454Y-63455887D01*
X149053453Y-63455888D01*
X148455887Y-64053455D01*
X148455883Y-64053459D01*
X148445506Y-64068992D01*
X148445505Y-64068994D01*
X148379228Y-64168182D01*
X148379221Y-64168195D01*
X148326421Y-64295667D01*
X148326418Y-64295677D01*
X148299500Y-64431004D01*
X148299500Y-83658480D01*
X148279815Y-83725519D01*
X148263181Y-83746161D01*
X147955888Y-84053453D01*
X147955887Y-84053454D01*
X147879222Y-84168192D01*
X147826421Y-84295667D01*
X147826418Y-84295679D01*
X147804956Y-84403578D01*
X147804956Y-84403581D01*
X147799500Y-84431006D01*
X147799500Y-85574684D01*
X147790061Y-85622136D01*
X147730264Y-85766498D01*
X147730261Y-85766510D01*
X147699500Y-85921153D01*
X147699500Y-86078846D01*
X147730261Y-86233489D01*
X147730264Y-86233501D01*
X147790602Y-86379172D01*
X147790609Y-86379185D01*
X147870076Y-86498114D01*
X147890954Y-86564791D01*
X147872470Y-86632171D01*
X147854655Y-86654686D01*
X146705887Y-87803454D01*
X146629222Y-87918192D01*
X146576421Y-88045667D01*
X146576418Y-88045679D01*
X146551940Y-88168737D01*
X146551940Y-88168742D01*
X146549500Y-88181007D01*
X146549500Y-88181010D01*
X146549500Y-88324684D01*
X146540061Y-88372136D01*
X146480264Y-88516498D01*
X146480261Y-88516510D01*
X146449500Y-88671153D01*
X146449500Y-88828846D01*
X146480261Y-88983489D01*
X146480264Y-88983501D01*
X146540602Y-89129172D01*
X146540609Y-89129185D01*
X146628210Y-89260288D01*
X146628213Y-89260292D01*
X146739707Y-89371786D01*
X146739711Y-89371789D01*
X146870814Y-89459390D01*
X146870827Y-89459397D01*
X146983628Y-89506120D01*
X147011865Y-89517816D01*
X147016950Y-89519922D01*
X147071354Y-89563762D01*
X147093419Y-89630056D01*
X147076140Y-89697756D01*
X147057179Y-89722164D01*
X139019887Y-97759454D01*
X139019886Y-97759455D01*
X138995764Y-97795556D01*
X138971751Y-97831496D01*
X138957438Y-97852916D01*
X138943222Y-97874192D01*
X138890420Y-98001668D01*
X138890417Y-98001678D01*
X138863499Y-98137005D01*
X138863499Y-98397873D01*
X138843814Y-98464912D01*
X138795795Y-98508357D01*
X138629056Y-98593315D01*
X138455345Y-98719525D01*
X138303524Y-98871346D01*
X138303524Y-98871347D01*
X138303522Y-98871349D01*
X138255955Y-98936819D01*
X138177316Y-99045055D01*
X138079837Y-99236366D01*
X138079836Y-99236369D01*
X138013488Y-99440571D01*
X137979899Y-99652643D01*
X136644099Y-99652643D01*
X136610510Y-99440573D01*
X136560488Y-99286619D01*
X136544161Y-99236369D01*
X136544160Y-99236366D01*
X136474377Y-99099411D01*
X136446682Y-99045056D01*
X136320476Y-98871349D01*
X136168650Y-98719523D01*
X135994943Y-98593317D01*
X135994939Y-98593315D01*
X135803632Y-98495838D01*
X135803629Y-98495837D01*
X135599427Y-98429489D01*
X135492150Y-98412498D01*
X135387356Y-98395900D01*
X135172642Y-98395900D01*
X135101952Y-98407096D01*
X134960570Y-98429489D01*
X134756368Y-98495837D01*
X134756365Y-98495838D01*
X134565054Y-98593317D01*
X134391345Y-98719525D01*
X134239524Y-98871346D01*
X134239524Y-98871347D01*
X134239522Y-98871349D01*
X134191955Y-98936819D01*
X134110452Y-99048998D01*
X134108604Y-99047655D01*
X134063620Y-99088138D01*
X133994660Y-99099379D01*
X133930570Y-99071552D01*
X133910496Y-99048307D01*
X133909547Y-99048998D01*
X133906682Y-99045055D01*
X133780477Y-98871349D01*
X133628651Y-98719523D01*
X133454944Y-98593317D01*
X133454940Y-98593315D01*
X133263633Y-98495838D01*
X133263630Y-98495837D01*
X133059428Y-98429489D01*
X132952151Y-98412498D01*
X132847357Y-98395900D01*
X132632643Y-98395900D01*
X132561953Y-98407096D01*
X132420571Y-98429489D01*
X132216369Y-98495837D01*
X132216366Y-98495838D01*
X132025055Y-98593317D01*
X131851346Y-98719525D01*
X131699525Y-98871346D01*
X131699525Y-98871347D01*
X131699523Y-98871349D01*
X131651956Y-98936819D01*
X131570453Y-99048998D01*
X131568562Y-99047624D01*
X131523848Y-99088030D01*
X131454911Y-99099411D01*
X131390765Y-99071715D01*
X131370488Y-99048314D01*
X131369547Y-99048998D01*
X131366682Y-99045055D01*
X131240477Y-98871349D01*
X131088651Y-98719523D01*
X130914944Y-98593317D01*
X130914940Y-98593315D01*
X130723633Y-98495838D01*
X130723630Y-98495837D01*
X130519428Y-98429489D01*
X130412151Y-98412498D01*
X130307357Y-98395900D01*
X130092643Y-98395900D01*
X130021953Y-98407096D01*
X129880571Y-98429489D01*
X129676369Y-98495837D01*
X129676366Y-98495838D01*
X129485055Y-98593317D01*
X129311346Y-98719525D01*
X129159525Y-98871346D01*
X129159525Y-98871347D01*
X129159523Y-98871349D01*
X129111956Y-98936819D01*
X129030453Y-99048998D01*
X129028562Y-99047624D01*
X128983848Y-99088030D01*
X128914911Y-99099411D01*
X128850765Y-99071715D01*
X128830488Y-99048314D01*
X128829547Y-99048998D01*
X128826682Y-99045055D01*
X128700477Y-98871349D01*
X128548651Y-98719523D01*
X128374944Y-98593317D01*
X128374940Y-98593315D01*
X128183633Y-98495838D01*
X128183630Y-98495837D01*
X127979428Y-98429489D01*
X127872151Y-98412498D01*
X127767357Y-98395900D01*
X127552643Y-98395900D01*
X127481953Y-98407096D01*
X127340571Y-98429489D01*
X127136369Y-98495837D01*
X127136366Y-98495838D01*
X126945055Y-98593317D01*
X126771346Y-98719525D01*
X126619525Y-98871346D01*
X126619525Y-98871347D01*
X126619523Y-98871349D01*
X126571956Y-98936819D01*
X126490453Y-99048998D01*
X126488605Y-99047655D01*
X126443621Y-99088138D01*
X126374661Y-99099379D01*
X126310571Y-99071552D01*
X126290497Y-99048307D01*
X126289548Y-99048998D01*
X126286683Y-99045055D01*
X126160478Y-98871349D01*
X126008652Y-98719523D01*
X125834945Y-98593317D01*
X125834941Y-98593315D01*
X125643634Y-98495838D01*
X125643631Y-98495837D01*
X125439429Y-98429489D01*
X125332152Y-98412498D01*
X125227358Y-98395900D01*
X125012644Y-98395900D01*
X124941954Y-98407096D01*
X124800572Y-98429489D01*
X124596370Y-98495837D01*
X124596367Y-98495838D01*
X124405056Y-98593317D01*
X124231347Y-98719525D01*
X124079526Y-98871346D01*
X124079526Y-98871347D01*
X124079524Y-98871349D01*
X124031957Y-98936819D01*
X123950454Y-99048998D01*
X123948590Y-99047644D01*
X123903706Y-99088099D01*
X123834755Y-99099392D01*
X123770644Y-99071615D01*
X123750508Y-99048299D01*
X123749547Y-99048998D01*
X123746682Y-99045055D01*
X123620477Y-98871349D01*
X123468651Y-98719523D01*
X123294944Y-98593317D01*
X123294940Y-98593315D01*
X123103633Y-98495838D01*
X123103630Y-98495837D01*
X122899428Y-98429489D01*
X122792151Y-98412498D01*
X122687357Y-98395900D01*
X122472643Y-98395900D01*
X122401953Y-98407096D01*
X122260571Y-98429489D01*
X122056369Y-98495837D01*
X122056366Y-98495838D01*
X121865055Y-98593317D01*
X121691346Y-98719525D01*
X121539525Y-98871346D01*
X121539525Y-98871347D01*
X121539523Y-98871349D01*
X121491956Y-98936819D01*
X121410453Y-99048998D01*
X121408562Y-99047624D01*
X121363848Y-99088030D01*
X121294911Y-99099411D01*
X121230765Y-99071715D01*
X121210488Y-99048314D01*
X121209547Y-99048998D01*
X121206682Y-99045055D01*
X121080477Y-98871349D01*
X120928651Y-98719523D01*
X120754944Y-98593317D01*
X120754940Y-98593315D01*
X120563633Y-98495838D01*
X120563630Y-98495837D01*
X120359428Y-98429489D01*
X120252151Y-98412498D01*
X120147357Y-98395900D01*
X119932643Y-98395900D01*
X119861953Y-98407096D01*
X119720571Y-98429489D01*
X119516369Y-98495837D01*
X119516366Y-98495838D01*
X119325055Y-98593317D01*
X119151346Y-98719525D01*
X118999525Y-98871346D01*
X118999525Y-98871347D01*
X118999523Y-98871349D01*
X118951956Y-98936819D01*
X118870453Y-99048998D01*
X118868562Y-99047624D01*
X118823848Y-99088030D01*
X118754911Y-99099411D01*
X118690765Y-99071715D01*
X118670488Y-99048314D01*
X118669547Y-99048998D01*
X118666682Y-99045055D01*
X118540477Y-98871349D01*
X118388651Y-98719523D01*
X118214944Y-98593317D01*
X118214940Y-98593315D01*
X118023633Y-98495838D01*
X118023630Y-98495837D01*
X117819428Y-98429489D01*
X117712151Y-98412498D01*
X117607357Y-98395900D01*
X117392643Y-98395900D01*
X117321953Y-98407096D01*
X117180571Y-98429489D01*
X116976369Y-98495837D01*
X116976366Y-98495838D01*
X116785055Y-98593317D01*
X116611346Y-98719525D01*
X116459525Y-98871346D01*
X116459525Y-98871347D01*
X116459523Y-98871349D01*
X116411956Y-98936819D01*
X116333317Y-99045055D01*
X116235838Y-99236366D01*
X116235837Y-99236369D01*
X116169489Y-99440571D01*
X116135900Y-99652643D01*
X46505232Y-99652643D01*
X46630246Y-99453686D01*
X46776469Y-99150051D01*
X46887776Y-98831954D01*
X46962767Y-98503394D01*
X47000500Y-98168504D01*
X47000500Y-97831496D01*
X46962767Y-97496606D01*
X46887776Y-97168046D01*
X46776469Y-96849949D01*
X46630246Y-96546314D01*
X46450946Y-96260961D01*
X46240825Y-95997477D01*
X46002523Y-95759175D01*
X45739039Y-95549054D01*
X45473091Y-95381947D01*
X45453683Y-95369752D01*
X45150054Y-95223532D01*
X44831965Y-95112227D01*
X44831953Y-95112223D01*
X44503397Y-95037233D01*
X44503381Y-95037231D01*
X44168508Y-94999500D01*
X44168504Y-94999500D01*
X43831496Y-94999500D01*
X43831491Y-94999500D01*
X43496618Y-95037231D01*
X43496602Y-95037233D01*
X43168046Y-95112223D01*
X43168034Y-95112227D01*
X42849945Y-95223532D01*
X42546316Y-95369752D01*
X42260962Y-95549053D01*
X41997477Y-95759174D01*
X41759174Y-95997477D01*
X41549053Y-96260962D01*
X41369752Y-96546316D01*
X41223532Y-96849945D01*
X41112227Y-97168034D01*
X41112223Y-97168046D01*
X41037233Y-97496602D01*
X41037231Y-97496618D01*
X40999500Y-97831491D01*
X40500500Y-97831491D01*
X40500500Y-82063882D01*
X52817519Y-82063882D01*
X52817519Y-82300077D01*
X52854465Y-82533348D01*
X52927452Y-82757976D01*
X53017197Y-82934108D01*
X53034676Y-82968413D01*
X53173502Y-83159490D01*
X53340509Y-83326497D01*
X53531586Y-83465323D01*
X53600623Y-83500499D01*
X53742022Y-83572546D01*
X53742024Y-83572546D01*
X53742027Y-83572548D01*
X53862431Y-83611669D01*
X53966650Y-83645533D01*
X54199922Y-83682480D01*
X54199927Y-83682480D01*
X54436106Y-83682480D01*
X54436111Y-83682480D01*
X54467725Y-83677472D01*
X54537015Y-83686425D01*
X54574803Y-83712264D01*
X57383927Y-86521388D01*
X57417412Y-86582711D01*
X57418720Y-86628465D01*
X57413713Y-86660081D01*
X57413713Y-86896271D01*
X57450659Y-87129542D01*
X57523646Y-87354170D01*
X57616521Y-87536445D01*
X57630870Y-87564607D01*
X57769696Y-87755684D01*
X57936703Y-87922691D01*
X58127780Y-88061517D01*
X58227204Y-88112176D01*
X58338216Y-88168740D01*
X58338218Y-88168740D01*
X58338221Y-88168742D01*
X58458625Y-88207863D01*
X58562844Y-88241727D01*
X58796116Y-88278674D01*
X58796121Y-88278674D01*
X59032310Y-88278674D01*
X59265581Y-88241727D01*
X59490205Y-88168742D01*
X59700646Y-88061517D01*
X59891723Y-87922691D01*
X60058730Y-87755684D01*
X60197556Y-87564607D01*
X60304781Y-87354166D01*
X60377766Y-87129542D01*
X60414713Y-86896271D01*
X60414713Y-86660076D01*
X60377766Y-86426805D01*
X60319085Y-86246206D01*
X60304781Y-86202182D01*
X60304779Y-86202179D01*
X60304779Y-86202177D01*
X60197555Y-85991740D01*
X60169961Y-85953760D01*
X60058730Y-85800664D01*
X59891723Y-85633657D01*
X59700646Y-85494831D01*
X59643915Y-85465925D01*
X59490209Y-85387607D01*
X59265581Y-85314620D01*
X59032310Y-85277674D01*
X59032305Y-85277674D01*
X58796121Y-85277674D01*
X58796120Y-85277674D01*
X58764504Y-85282681D01*
X58695211Y-85273725D01*
X58657427Y-85247888D01*
X56755732Y-83346193D01*
X60617092Y-83346193D01*
X61605446Y-83346193D01*
X61583676Y-83383901D01*
X61546194Y-83523784D01*
X61546194Y-83668602D01*
X61583676Y-83808485D01*
X61605446Y-83846193D01*
X60617092Y-83846193D01*
X60633128Y-83947440D01*
X60706091Y-84171995D01*
X60813279Y-84382364D01*
X60952060Y-84573379D01*
X61119007Y-84740326D01*
X61310022Y-84879107D01*
X61520389Y-84986295D01*
X61744938Y-85059256D01*
X61744944Y-85059258D01*
X61846194Y-85075294D01*
X61846194Y-84086940D01*
X61883902Y-84108711D01*
X62023785Y-84146193D01*
X62168603Y-84146193D01*
X62308486Y-84108711D01*
X62346194Y-84086940D01*
X62346194Y-85075293D01*
X62447443Y-85059258D01*
X62447449Y-85059256D01*
X62671998Y-84986295D01*
X62882365Y-84879107D01*
X63073380Y-84740326D01*
X63240327Y-84573379D01*
X63379108Y-84382364D01*
X63486296Y-84171995D01*
X63559259Y-83947440D01*
X63575296Y-83846193D01*
X62586942Y-83846193D01*
X62608712Y-83808485D01*
X62646194Y-83668602D01*
X62646194Y-83523784D01*
X62608712Y-83383901D01*
X62586942Y-83346193D01*
X63575296Y-83346193D01*
X63559259Y-83244945D01*
X63486296Y-83020390D01*
X63379108Y-82810021D01*
X63240327Y-82619006D01*
X63073380Y-82452059D01*
X62882365Y-82313278D01*
X62671996Y-82206090D01*
X62447441Y-82133127D01*
X62346194Y-82117090D01*
X62346194Y-83105445D01*
X62308486Y-83083675D01*
X62168603Y-83046193D01*
X62023785Y-83046193D01*
X61883902Y-83083675D01*
X61846194Y-83105445D01*
X61846194Y-82117090D01*
X61744946Y-82133127D01*
X61520391Y-82206090D01*
X61310022Y-82313278D01*
X61119007Y-82452059D01*
X60952060Y-82619006D01*
X60813279Y-82810021D01*
X60706091Y-83020390D01*
X60633128Y-83244945D01*
X60617092Y-83346193D01*
X56755732Y-83346193D01*
X55848303Y-82438764D01*
X55814818Y-82377441D01*
X55813511Y-82331689D01*
X55818519Y-82300072D01*
X55818519Y-82063888D01*
X55818519Y-82063882D01*
X55781572Y-81830611D01*
X55708585Y-81605983D01*
X55643798Y-81478833D01*
X55601362Y-81395547D01*
X55462536Y-81204470D01*
X55295529Y-81037463D01*
X55119332Y-80909448D01*
X55119331Y-80909446D01*
X55104456Y-80898639D01*
X54894015Y-80791413D01*
X54669387Y-80718426D01*
X54436116Y-80681480D01*
X54436111Y-80681480D01*
X54199927Y-80681480D01*
X54199922Y-80681480D01*
X53966650Y-80718426D01*
X53742022Y-80791413D01*
X53531585Y-80898637D01*
X53472480Y-80941580D01*
X53340509Y-81037463D01*
X53340507Y-81037465D01*
X53340506Y-81037465D01*
X53173504Y-81204467D01*
X53173504Y-81204468D01*
X53173502Y-81204470D01*
X53113881Y-81286530D01*
X53034676Y-81395546D01*
X52927452Y-81605983D01*
X52854465Y-81830611D01*
X52817519Y-82063882D01*
X40500500Y-82063882D01*
X40500500Y-79660076D01*
X50317519Y-79660076D01*
X50317519Y-79896271D01*
X50354465Y-80129542D01*
X50427452Y-80354170D01*
X50534676Y-80564607D01*
X50673502Y-80755684D01*
X50840509Y-80922691D01*
X51031586Y-81061517D01*
X51125758Y-81109500D01*
X51242022Y-81168740D01*
X51242024Y-81168740D01*
X51242027Y-81168742D01*
X51351977Y-81204467D01*
X51466650Y-81241727D01*
X51699922Y-81278674D01*
X51699927Y-81278674D01*
X51936116Y-81278674D01*
X52169387Y-81241727D01*
X52394011Y-81168742D01*
X52604452Y-81061517D01*
X52795529Y-80922691D01*
X52962536Y-80755684D01*
X53101362Y-80564607D01*
X53208587Y-80354166D01*
X53281572Y-80129542D01*
X53318519Y-79896271D01*
X53318519Y-79660076D01*
X53281572Y-79426805D01*
X53252622Y-79337707D01*
X53208587Y-79202182D01*
X53101362Y-78991741D01*
X52962536Y-78800664D01*
X52911871Y-78749999D01*
X56020897Y-78749999D01*
X57009251Y-78749999D01*
X56987481Y-78787707D01*
X56949999Y-78927590D01*
X56949999Y-79072408D01*
X56987481Y-79212291D01*
X57009251Y-79249999D01*
X56020897Y-79249999D01*
X56036933Y-79351246D01*
X56109896Y-79575801D01*
X56217084Y-79786170D01*
X56355865Y-79977185D01*
X56522812Y-80144132D01*
X56713827Y-80282913D01*
X56924194Y-80390101D01*
X57148743Y-80463062D01*
X57148749Y-80463064D01*
X57249999Y-80479100D01*
X57249999Y-79490746D01*
X57287707Y-79512517D01*
X57427590Y-79549999D01*
X57572408Y-79549999D01*
X57712291Y-79512517D01*
X57749999Y-79490746D01*
X57749999Y-80479099D01*
X57851248Y-80463064D01*
X57851254Y-80463062D01*
X58075803Y-80390101D01*
X58161975Y-80346194D01*
X63617093Y-80346194D01*
X64605447Y-80346194D01*
X64583677Y-80383902D01*
X64546195Y-80523785D01*
X64546195Y-80668603D01*
X64583677Y-80808486D01*
X64605447Y-80846194D01*
X63617093Y-80846194D01*
X63633129Y-80947441D01*
X63706092Y-81171996D01*
X63813280Y-81382365D01*
X63952061Y-81573380D01*
X64119008Y-81740327D01*
X64310023Y-81879108D01*
X64520390Y-81986296D01*
X64744939Y-82059257D01*
X64744945Y-82059259D01*
X64846195Y-82075295D01*
X64846195Y-81086941D01*
X64883903Y-81108712D01*
X65023786Y-81146194D01*
X65168604Y-81146194D01*
X65308487Y-81108712D01*
X65346195Y-81086941D01*
X65346195Y-82075294D01*
X65447444Y-82059259D01*
X65447450Y-82059257D01*
X65671999Y-81986296D01*
X65882366Y-81879108D01*
X66073381Y-81740327D01*
X66240328Y-81573380D01*
X66379109Y-81382365D01*
X66486297Y-81171996D01*
X66559260Y-80947441D01*
X66575297Y-80846194D01*
X65586943Y-80846194D01*
X65608713Y-80808486D01*
X65646195Y-80668603D01*
X65646195Y-80523785D01*
X65608713Y-80383902D01*
X65586943Y-80346194D01*
X66575297Y-80346194D01*
X66559260Y-80244946D01*
X66486297Y-80020391D01*
X66379109Y-79810022D01*
X66240328Y-79619007D01*
X66073381Y-79452060D01*
X65882366Y-79313279D01*
X65671997Y-79206091D01*
X65447442Y-79133128D01*
X65346195Y-79117091D01*
X65346195Y-80105446D01*
X65308487Y-80083676D01*
X65168604Y-80046194D01*
X65023786Y-80046194D01*
X64883903Y-80083676D01*
X64846195Y-80105446D01*
X64846195Y-79117091D01*
X64744947Y-79133128D01*
X64520392Y-79206091D01*
X64310023Y-79313279D01*
X64119008Y-79452060D01*
X63952061Y-79619007D01*
X63813280Y-79810022D01*
X63706092Y-80020391D01*
X63633129Y-80244946D01*
X63617093Y-80346194D01*
X58161975Y-80346194D01*
X58286172Y-80282912D01*
X58477184Y-80144132D01*
X58477185Y-80144132D01*
X58644132Y-79977185D01*
X58782913Y-79786170D01*
X58890101Y-79575801D01*
X58963064Y-79351246D01*
X58979101Y-79249999D01*
X57990747Y-79249999D01*
X58012517Y-79212291D01*
X58049999Y-79072408D01*
X58049999Y-78927590D01*
X58012517Y-78787707D01*
X57990747Y-78749999D01*
X58979101Y-78749999D01*
X58963064Y-78648751D01*
X58890101Y-78424196D01*
X58782913Y-78213827D01*
X58644132Y-78022812D01*
X58477185Y-77855865D01*
X58286170Y-77717084D01*
X58075801Y-77609896D01*
X57851246Y-77536933D01*
X57749999Y-77520896D01*
X57749999Y-78509251D01*
X57712291Y-78487481D01*
X57572408Y-78449999D01*
X57427590Y-78449999D01*
X57287707Y-78487481D01*
X57249999Y-78509251D01*
X57249999Y-77520896D01*
X57148751Y-77536933D01*
X56924196Y-77609896D01*
X56713827Y-77717084D01*
X56522812Y-77855865D01*
X56355865Y-78022812D01*
X56217084Y-78213827D01*
X56109896Y-78424196D01*
X56036933Y-78648751D01*
X56020897Y-78749999D01*
X52911871Y-78749999D01*
X52795529Y-78633657D01*
X52604452Y-78494831D01*
X52590027Y-78487481D01*
X52394015Y-78387607D01*
X52169387Y-78314620D01*
X51936116Y-78277674D01*
X51936111Y-78277674D01*
X51699927Y-78277674D01*
X51699922Y-78277674D01*
X51466650Y-78314620D01*
X51242022Y-78387607D01*
X51031585Y-78494831D01*
X50922569Y-78574036D01*
X50840509Y-78633657D01*
X50840507Y-78633659D01*
X50840506Y-78633659D01*
X50673504Y-78800661D01*
X50673504Y-78800662D01*
X50673502Y-78800664D01*
X50630430Y-78859948D01*
X50534676Y-78991740D01*
X50427452Y-79202177D01*
X50354465Y-79426805D01*
X50317519Y-79660076D01*
X40500500Y-79660076D01*
X40500500Y-76007497D01*
X42195695Y-76007497D01*
X42195695Y-76184890D01*
X42230298Y-76358852D01*
X42230300Y-76358860D01*
X42298183Y-76522742D01*
X42396729Y-76670228D01*
X42396735Y-76670235D01*
X44522159Y-78795658D01*
X44522161Y-78795660D01*
X44529029Y-78800248D01*
X44535806Y-78804776D01*
X44535811Y-78804782D01*
X44535813Y-78804781D01*
X44669648Y-78894207D01*
X44751588Y-78928147D01*
X44833529Y-78962089D01*
X44982597Y-78991740D01*
X45007498Y-78996693D01*
X45007502Y-78996694D01*
X45007503Y-78996694D01*
X49184888Y-78996694D01*
X49184889Y-78996693D01*
X49358861Y-78962089D01*
X49440801Y-78928147D01*
X49522742Y-78894207D01*
X49656577Y-78804781D01*
X49670231Y-78795658D01*
X52119696Y-76346193D01*
X53520898Y-76346193D01*
X54509252Y-76346193D01*
X54487482Y-76383901D01*
X54450000Y-76523784D01*
X54450000Y-76668602D01*
X54487482Y-76808485D01*
X54509252Y-76846193D01*
X53520898Y-76846193D01*
X53536934Y-76947440D01*
X53609897Y-77171995D01*
X53717085Y-77382364D01*
X53855866Y-77573379D01*
X54022813Y-77740326D01*
X54213828Y-77879107D01*
X54424195Y-77986295D01*
X54648744Y-78059256D01*
X54648750Y-78059258D01*
X54750000Y-78075294D01*
X54750000Y-77086940D01*
X54787708Y-77108711D01*
X54927591Y-77146193D01*
X55072409Y-77146193D01*
X55212292Y-77108711D01*
X55250000Y-77086940D01*
X55250000Y-78075293D01*
X55351249Y-78059258D01*
X55351255Y-78059256D01*
X55575804Y-77986295D01*
X55786171Y-77879107D01*
X55977186Y-77740326D01*
X56144133Y-77573379D01*
X56282914Y-77382364D01*
X56390102Y-77171995D01*
X56463065Y-76947440D01*
X56479102Y-76846193D01*
X55490748Y-76846193D01*
X55512518Y-76808485D01*
X55550000Y-76668602D01*
X55550000Y-76523784D01*
X55512518Y-76383901D01*
X55490748Y-76346193D01*
X56479102Y-76346193D01*
X56463066Y-76244953D01*
X56463063Y-76244937D01*
X56390102Y-76020390D01*
X56299900Y-75843358D01*
X56299899Y-75843356D01*
X56282916Y-75810023D01*
X56239306Y-75750000D01*
X59020898Y-75750000D01*
X60009252Y-75750000D01*
X59987482Y-75787708D01*
X59950000Y-75927591D01*
X59950000Y-76072409D01*
X59987482Y-76212292D01*
X60009252Y-76250000D01*
X59020898Y-76250000D01*
X59036934Y-76351247D01*
X59109897Y-76575802D01*
X59217085Y-76786171D01*
X59355866Y-76977186D01*
X59522813Y-77144133D01*
X59713828Y-77282914D01*
X59924195Y-77390102D01*
X60148744Y-77463063D01*
X60148750Y-77463065D01*
X60250000Y-77479101D01*
X60250000Y-76490747D01*
X60287708Y-76512518D01*
X60427591Y-76550000D01*
X60572409Y-76550000D01*
X60712292Y-76512518D01*
X60750000Y-76490747D01*
X60750000Y-77479100D01*
X60851249Y-77463065D01*
X60851255Y-77463063D01*
X61075804Y-77390102D01*
X61286171Y-77282914D01*
X61477186Y-77144133D01*
X61644133Y-76977186D01*
X61782914Y-76786171D01*
X61890102Y-76575802D01*
X61963065Y-76351247D01*
X61979102Y-76250000D01*
X60990748Y-76250000D01*
X61012518Y-76212292D01*
X61050000Y-76072409D01*
X61050000Y-75927591D01*
X61012518Y-75787708D01*
X60990748Y-75750000D01*
X61979102Y-75750000D01*
X61963065Y-75648752D01*
X61890102Y-75424197D01*
X61782914Y-75213828D01*
X61644133Y-75022813D01*
X61477186Y-74855866D01*
X61286171Y-74717085D01*
X61075802Y-74609897D01*
X60851247Y-74536934D01*
X60750000Y-74520897D01*
X60750000Y-75509252D01*
X60712292Y-75487482D01*
X60572409Y-75450000D01*
X60427591Y-75450000D01*
X60287708Y-75487482D01*
X60250000Y-75509252D01*
X60250000Y-74520897D01*
X60148752Y-74536934D01*
X59924197Y-74609897D01*
X59713828Y-74717085D01*
X59522813Y-74855866D01*
X59355866Y-75022813D01*
X59217085Y-75213828D01*
X59109897Y-75424197D01*
X59036934Y-75648752D01*
X59020898Y-75750000D01*
X56239306Y-75750000D01*
X56144133Y-75619006D01*
X55977186Y-75452059D01*
X55786171Y-75313278D01*
X55575802Y-75206090D01*
X55351247Y-75133127D01*
X55250000Y-75117090D01*
X55250000Y-76105445D01*
X55212292Y-76083675D01*
X55072409Y-76046193D01*
X54927591Y-76046193D01*
X54787708Y-76083675D01*
X54750000Y-76105445D01*
X54750000Y-75117090D01*
X54648752Y-75133127D01*
X54424197Y-75206090D01*
X54213828Y-75313278D01*
X54022813Y-75452059D01*
X53855866Y-75619006D01*
X53717085Y-75810021D01*
X53609897Y-76020390D01*
X53536934Y-76244945D01*
X53520898Y-76346193D01*
X52119696Y-76346193D01*
X55119695Y-73346194D01*
X56617092Y-73346194D01*
X57605446Y-73346194D01*
X57583676Y-73383902D01*
X57546194Y-73523785D01*
X57546194Y-73668603D01*
X57583676Y-73808486D01*
X57605446Y-73846194D01*
X56617092Y-73846194D01*
X56633128Y-73947441D01*
X56706091Y-74171996D01*
X56813279Y-74382365D01*
X56952060Y-74573380D01*
X57119007Y-74740327D01*
X57310022Y-74879108D01*
X57520389Y-74986296D01*
X57744938Y-75059257D01*
X57744944Y-75059259D01*
X57846194Y-75075295D01*
X57846194Y-74086941D01*
X57883902Y-74108712D01*
X58023785Y-74146194D01*
X58168603Y-74146194D01*
X58308486Y-74108712D01*
X58346194Y-74086941D01*
X58346194Y-75075294D01*
X58447443Y-75059259D01*
X58447449Y-75059257D01*
X58671998Y-74986296D01*
X58882365Y-74879108D01*
X59073380Y-74740327D01*
X59240327Y-74573380D01*
X59379108Y-74382365D01*
X59486296Y-74171996D01*
X59559259Y-73947441D01*
X59575296Y-73846194D01*
X58586942Y-73846194D01*
X58608712Y-73808486D01*
X58646194Y-73668603D01*
X58646194Y-73523785D01*
X58608712Y-73383902D01*
X58586942Y-73346194D01*
X59575296Y-73346194D01*
X59559259Y-73244946D01*
X59486296Y-73020391D01*
X59379106Y-72810018D01*
X59348535Y-72767941D01*
X59348534Y-72767940D01*
X59299115Y-72699921D01*
X62181481Y-72699921D01*
X62181481Y-72936116D01*
X62218427Y-73169387D01*
X62291414Y-73394015D01*
X62398638Y-73604452D01*
X62537464Y-73795529D01*
X62704471Y-73962536D01*
X62895548Y-74101362D01*
X62972439Y-74140540D01*
X63105984Y-74208585D01*
X63105986Y-74208585D01*
X63105989Y-74208587D01*
X63226393Y-74247708D01*
X63330612Y-74281572D01*
X63563884Y-74318519D01*
X63563889Y-74318519D01*
X63800068Y-74318519D01*
X63800073Y-74318519D01*
X63831687Y-74313511D01*
X63900977Y-74322464D01*
X63938765Y-74348303D01*
X66747889Y-77157427D01*
X66781374Y-77218750D01*
X66782682Y-77264504D01*
X66777675Y-77296120D01*
X66777675Y-77532310D01*
X66814621Y-77765581D01*
X66887608Y-77990209D01*
X66959645Y-78131588D01*
X66994832Y-78200646D01*
X67133658Y-78391723D01*
X67300665Y-78558730D01*
X67491742Y-78697556D01*
X67521095Y-78712512D01*
X67702178Y-78804779D01*
X67702180Y-78804779D01*
X67702183Y-78804781D01*
X67822587Y-78843902D01*
X67926806Y-78877766D01*
X68160078Y-78914713D01*
X68160083Y-78914713D01*
X68396272Y-78914713D01*
X68629543Y-78877766D01*
X68854167Y-78804781D01*
X69064608Y-78697556D01*
X69255685Y-78558730D01*
X69422692Y-78391723D01*
X69561518Y-78200646D01*
X69668743Y-77990205D01*
X69741728Y-77765581D01*
X69763177Y-77630157D01*
X69778675Y-77532310D01*
X69778675Y-77296115D01*
X69741728Y-77062844D01*
X69707864Y-76958625D01*
X69668743Y-76838221D01*
X69668741Y-76838218D01*
X69668741Y-76838216D01*
X69582318Y-76668602D01*
X69561518Y-76627780D01*
X69422692Y-76436703D01*
X69255685Y-76269696D01*
X69064608Y-76130870D01*
X69034074Y-76115312D01*
X68854171Y-76023646D01*
X68629543Y-75950659D01*
X68396272Y-75913713D01*
X68396267Y-75913713D01*
X68160083Y-75913713D01*
X68160082Y-75913713D01*
X68128466Y-75918720D01*
X68059173Y-75909764D01*
X68021389Y-75883927D01*
X65212265Y-73074803D01*
X65178780Y-73013480D01*
X65177473Y-72967728D01*
X65182481Y-72936111D01*
X65182481Y-72699927D01*
X65182481Y-72699921D01*
X65145534Y-72466650D01*
X65111605Y-72362230D01*
X65072549Y-72242027D01*
X65072547Y-72242024D01*
X65072547Y-72242022D01*
X64965323Y-72031585D01*
X64930576Y-71983760D01*
X64826498Y-71840509D01*
X64659491Y-71673502D01*
X64468414Y-71534676D01*
X64459237Y-71530000D01*
X64257977Y-71427452D01*
X64033349Y-71354465D01*
X63800078Y-71317519D01*
X63800073Y-71317519D01*
X63563889Y-71317519D01*
X63563884Y-71317519D01*
X63330612Y-71354465D01*
X63105984Y-71427452D01*
X62895547Y-71534676D01*
X62860845Y-71559889D01*
X62704471Y-71673502D01*
X62704469Y-71673504D01*
X62704468Y-71673504D01*
X62537466Y-71840506D01*
X62537466Y-71840507D01*
X62537464Y-71840509D01*
X62477843Y-71922569D01*
X62398638Y-72031585D01*
X62291414Y-72242022D01*
X62218427Y-72466650D01*
X62181481Y-72699921D01*
X59299115Y-72699921D01*
X59240332Y-72619013D01*
X59240327Y-72619007D01*
X59073380Y-72452060D01*
X58882365Y-72313279D01*
X58671996Y-72206091D01*
X58447441Y-72133128D01*
X58346194Y-72117091D01*
X58346194Y-73105446D01*
X58308486Y-73083676D01*
X58168603Y-73046194D01*
X58023785Y-73046194D01*
X57883902Y-73083676D01*
X57846194Y-73105446D01*
X57846194Y-72117091D01*
X57744946Y-72133128D01*
X57520391Y-72206091D01*
X57310022Y-72313279D01*
X57119007Y-72452060D01*
X56952060Y-72619007D01*
X56813279Y-72810022D01*
X56706091Y-73020391D01*
X56633128Y-73244946D01*
X56617092Y-73346194D01*
X55119695Y-73346194D01*
X58169774Y-70296115D01*
X59777674Y-70296115D01*
X59777674Y-70532310D01*
X59814620Y-70765581D01*
X59887607Y-70990209D01*
X59964177Y-71140484D01*
X59994831Y-71200646D01*
X60133657Y-71391723D01*
X60300664Y-71558730D01*
X60491741Y-71697556D01*
X60570234Y-71737550D01*
X60702177Y-71804779D01*
X60702179Y-71804779D01*
X60702182Y-71804781D01*
X60812132Y-71840506D01*
X60926805Y-71877766D01*
X61160077Y-71914713D01*
X61160082Y-71914713D01*
X61396271Y-71914713D01*
X61629542Y-71877766D01*
X61854166Y-71804781D01*
X62064607Y-71697556D01*
X62255684Y-71558730D01*
X62422691Y-71391723D01*
X62561517Y-71200646D01*
X62668742Y-70990205D01*
X62741727Y-70765581D01*
X62752618Y-70696819D01*
X62778674Y-70532310D01*
X62778674Y-70296115D01*
X62741727Y-70062844D01*
X62693600Y-69914727D01*
X62668742Y-69838221D01*
X62668740Y-69838218D01*
X62668740Y-69838216D01*
X62612176Y-69727204D01*
X62561517Y-69627780D01*
X62422691Y-69436703D01*
X62255684Y-69269696D01*
X62064607Y-69130870D01*
X61854170Y-69023646D01*
X61629542Y-68950659D01*
X61396271Y-68913713D01*
X61396266Y-68913713D01*
X61160082Y-68913713D01*
X61160077Y-68913713D01*
X60926805Y-68950659D01*
X60702177Y-69023646D01*
X60491740Y-69130870D01*
X60382724Y-69210075D01*
X60300664Y-69269696D01*
X60300662Y-69269698D01*
X60300661Y-69269698D01*
X60133659Y-69436700D01*
X60133659Y-69436701D01*
X60133657Y-69436703D01*
X60131182Y-69440110D01*
X59994831Y-69627779D01*
X59887607Y-69838216D01*
X59814620Y-70062844D01*
X59777674Y-70296115D01*
X58169774Y-70296115D01*
X60932876Y-67533013D01*
X60994199Y-67499528D01*
X61020557Y-67496694D01*
X65171833Y-67496694D01*
X65238872Y-67516379D01*
X65259514Y-67533013D01*
X66586002Y-68859500D01*
X67896731Y-70170229D01*
X67994784Y-70268282D01*
X68022161Y-70295659D01*
X68062240Y-70322439D01*
X68169648Y-70394207D01*
X68217647Y-70414089D01*
X68333529Y-70462089D01*
X68507499Y-70496693D01*
X68507503Y-70496694D01*
X68507504Y-70496694D01*
X69684888Y-70496694D01*
X69684889Y-70496693D01*
X69858861Y-70462089D01*
X69940801Y-70428147D01*
X70022742Y-70394207D01*
X70112795Y-70334035D01*
X70170231Y-70295658D01*
X73352176Y-67113713D01*
X75149500Y-67113713D01*
X75149500Y-67326287D01*
X75182754Y-67536243D01*
X75241513Y-67717085D01*
X75248444Y-67738414D01*
X75344951Y-67927820D01*
X75469890Y-68099786D01*
X75620213Y-68250109D01*
X75792182Y-68375050D01*
X75800946Y-68379516D01*
X75851742Y-68427491D01*
X75868536Y-68495312D01*
X75845998Y-68561447D01*
X75800946Y-68600484D01*
X75792182Y-68604949D01*
X75620213Y-68729890D01*
X75469890Y-68880213D01*
X75344951Y-69052179D01*
X75248444Y-69241585D01*
X75182753Y-69443760D01*
X75161840Y-69575802D01*
X75149500Y-69653713D01*
X75149500Y-69866287D01*
X75150940Y-69875380D01*
X75182753Y-70076239D01*
X75248444Y-70278414D01*
X75344951Y-70467820D01*
X75469890Y-70639786D01*
X75620213Y-70790109D01*
X75792182Y-70915050D01*
X75800946Y-70919516D01*
X75851742Y-70967491D01*
X75868536Y-71035312D01*
X75845998Y-71101447D01*
X75800946Y-71140484D01*
X75792182Y-71144949D01*
X75620213Y-71269890D01*
X75469890Y-71420213D01*
X75344951Y-71592179D01*
X75248444Y-71781585D01*
X75182753Y-71983760D01*
X75168713Y-72072408D01*
X75149500Y-72193713D01*
X75149500Y-72406287D01*
X75150872Y-72414949D01*
X75176348Y-72575801D01*
X75182754Y-72616243D01*
X75206788Y-72690213D01*
X75248444Y-72818414D01*
X75344951Y-73007820D01*
X75469890Y-73179786D01*
X75620213Y-73330109D01*
X75792182Y-73455050D01*
X75800946Y-73459516D01*
X75851742Y-73507491D01*
X75868536Y-73575312D01*
X75845998Y-73641447D01*
X75800946Y-73680484D01*
X75792182Y-73684949D01*
X75620213Y-73809890D01*
X75469890Y-73960213D01*
X75344951Y-74132179D01*
X75248444Y-74321585D01*
X75182753Y-74523760D01*
X75149500Y-74733713D01*
X75149500Y-74946286D01*
X75179092Y-75133127D01*
X75182754Y-75156243D01*
X75206816Y-75230299D01*
X75248444Y-75358414D01*
X75344951Y-75547820D01*
X75469890Y-75719786D01*
X75620213Y-75870109D01*
X75792179Y-75995048D01*
X75792181Y-75995049D01*
X75792184Y-75995051D01*
X75981588Y-76091557D01*
X76183757Y-76157246D01*
X76393713Y-76190500D01*
X76393714Y-76190500D01*
X76606286Y-76190500D01*
X76606287Y-76190500D01*
X76816243Y-76157246D01*
X77018412Y-76091557D01*
X77207816Y-75995051D01*
X77244480Y-75968413D01*
X77379786Y-75870109D01*
X77379788Y-75870106D01*
X77379792Y-75870104D01*
X77473077Y-75776819D01*
X77534400Y-75743334D01*
X77560758Y-75740500D01*
X80415638Y-75740500D01*
X80482677Y-75760185D01*
X80503319Y-75776819D01*
X84153306Y-79426805D01*
X87760536Y-83034035D01*
X87882584Y-83156083D01*
X87885966Y-83159465D01*
X88033446Y-83258009D01*
X88033459Y-83258016D01*
X88145976Y-83304621D01*
X88197334Y-83325894D01*
X88239935Y-83334368D01*
X88371305Y-83360500D01*
X88371308Y-83360500D01*
X88371309Y-83360500D01*
X92048560Y-83360500D01*
X92115599Y-83380185D01*
X92161354Y-83432989D01*
X92164742Y-83441167D01*
X92206202Y-83552328D01*
X92206206Y-83552335D01*
X92292452Y-83667544D01*
X92292455Y-83667547D01*
X92407664Y-83753793D01*
X92407671Y-83753797D01*
X92542517Y-83804091D01*
X92542516Y-83804091D01*
X92549444Y-83804835D01*
X92602127Y-83810500D01*
X94397872Y-83810499D01*
X94457483Y-83804091D01*
X94592331Y-83753796D01*
X94707546Y-83667546D01*
X94793796Y-83552331D01*
X94844091Y-83417483D01*
X94850500Y-83357873D01*
X94850499Y-81562128D01*
X94844091Y-81502517D01*
X94835257Y-81478833D01*
X94793797Y-81367671D01*
X94793793Y-81367664D01*
X94707547Y-81252455D01*
X94707544Y-81252452D01*
X94592335Y-81166206D01*
X94592328Y-81166202D01*
X94460917Y-81117189D01*
X94404983Y-81075318D01*
X94380566Y-81009853D01*
X94395418Y-80941580D01*
X94416563Y-80913332D01*
X94530104Y-80799792D01*
X94536193Y-80791412D01*
X94655048Y-80627820D01*
X94655047Y-80627820D01*
X94655051Y-80627816D01*
X94751557Y-80438412D01*
X94817246Y-80236243D01*
X94850500Y-80026287D01*
X94850500Y-79813713D01*
X94817246Y-79603757D01*
X94751557Y-79401588D01*
X94655051Y-79212184D01*
X94655049Y-79212181D01*
X94655048Y-79212179D01*
X94530109Y-79040213D01*
X94379786Y-78889890D01*
X94207820Y-78764951D01*
X94207115Y-78764591D01*
X94199054Y-78760485D01*
X94148259Y-78712512D01*
X94131463Y-78644692D01*
X94153999Y-78578556D01*
X94199054Y-78539515D01*
X94207816Y-78535051D01*
X94229789Y-78519086D01*
X94379786Y-78410109D01*
X94379788Y-78410106D01*
X94379792Y-78410104D01*
X94530104Y-78259792D01*
X94530106Y-78259788D01*
X94530109Y-78259786D01*
X94655048Y-78087820D01*
X94655047Y-78087820D01*
X94655051Y-78087816D01*
X94751557Y-77898412D01*
X94817246Y-77696243D01*
X94850500Y-77486287D01*
X94850500Y-77273713D01*
X94817246Y-77063757D01*
X94751557Y-76861588D01*
X94655051Y-76672184D01*
X94655049Y-76672181D01*
X94655048Y-76672179D01*
X94530109Y-76500213D01*
X94379786Y-76349890D01*
X94207820Y-76224951D01*
X94207115Y-76224591D01*
X94199054Y-76220485D01*
X94148259Y-76172512D01*
X94131463Y-76104692D01*
X94153999Y-76038556D01*
X94199054Y-75999515D01*
X94207816Y-75995051D01*
X94244480Y-75968413D01*
X94379786Y-75870109D01*
X94379788Y-75870106D01*
X94379792Y-75870104D01*
X94530104Y-75719792D01*
X94530106Y-75719788D01*
X94530109Y-75719786D01*
X94655048Y-75547820D01*
X94655047Y-75547820D01*
X94655051Y-75547816D01*
X94751557Y-75358412D01*
X94817246Y-75156243D01*
X94850500Y-74946287D01*
X94850500Y-74733713D01*
X94817246Y-74523757D01*
X94751557Y-74321588D01*
X94655051Y-74132184D01*
X94655049Y-74132181D01*
X94655048Y-74132179D01*
X94530109Y-73960213D01*
X94379786Y-73809890D01*
X94207820Y-73684951D01*
X94018414Y-73588444D01*
X94018413Y-73588443D01*
X94018412Y-73588443D01*
X93816243Y-73522754D01*
X93816241Y-73522753D01*
X93816240Y-73522753D01*
X93654957Y-73497208D01*
X93606287Y-73489500D01*
X93393713Y-73489500D01*
X93345042Y-73497208D01*
X93183760Y-73522753D01*
X92981585Y-73588444D01*
X92792179Y-73684951D01*
X92620213Y-73809890D01*
X92469892Y-73960211D01*
X92414609Y-74036304D01*
X92410481Y-74041987D01*
X92405833Y-74048384D01*
X92350503Y-74091051D01*
X92305514Y-74099500D01*
X90924361Y-74099500D01*
X90857322Y-74079815D01*
X90836680Y-74063181D01*
X87069620Y-70296121D01*
X83294036Y-66520536D01*
X83294035Y-66520535D01*
X83294030Y-66520531D01*
X83239622Y-66484178D01*
X83239616Y-66484175D01*
X83234959Y-66481063D01*
X83146547Y-66421987D01*
X83064606Y-66388046D01*
X82982666Y-66354105D01*
X82982658Y-66354103D01*
X82808696Y-66319500D01*
X82808692Y-66319500D01*
X82808691Y-66319500D01*
X77560758Y-66319500D01*
X77493719Y-66299815D01*
X77473077Y-66283181D01*
X77379786Y-66189890D01*
X77207820Y-66064951D01*
X77018414Y-65968444D01*
X77018413Y-65968443D01*
X77018412Y-65968443D01*
X76816243Y-65902754D01*
X76816241Y-65902753D01*
X76816240Y-65902753D01*
X76654957Y-65877208D01*
X76606287Y-65869500D01*
X76393713Y-65869500D01*
X76345042Y-65877208D01*
X76183760Y-65902753D01*
X75981585Y-65968444D01*
X75792179Y-66064951D01*
X75620213Y-66189890D01*
X75469890Y-66340213D01*
X75344951Y-66512179D01*
X75248444Y-66701585D01*
X75182753Y-66903760D01*
X75173444Y-66962536D01*
X75149500Y-67113713D01*
X73352176Y-67113713D01*
X74125676Y-66340213D01*
X78029069Y-62436819D01*
X78090392Y-62403334D01*
X78116750Y-62400500D01*
X135748693Y-62400500D01*
X135748694Y-62400499D01*
X135922666Y-62365895D01*
X136004606Y-62331953D01*
X136086547Y-62298013D01*
X136175553Y-62238541D01*
X136234036Y-62199464D01*
X145545059Y-52888438D01*
X145606380Y-52854955D01*
X145613328Y-52853650D01*
X145759427Y-52830511D01*
X145963633Y-52764161D01*
X146154944Y-52666683D01*
X146328651Y-52540477D01*
X146480477Y-52388651D01*
X146606683Y-52214944D01*
X146606683Y-52214943D01*
X146609547Y-52211002D01*
X146611478Y-52212405D01*
X146655927Y-52172078D01*
X146724840Y-52160558D01*
X146789042Y-52188125D01*
X146809478Y-52211709D01*
X146810453Y-52211002D01*
X146813316Y-52214943D01*
X146813317Y-52214944D01*
X146939523Y-52388651D01*
X147091349Y-52540477D01*
X147265056Y-52666683D01*
X147358888Y-52714492D01*
X147456366Y-52764161D01*
X147456369Y-52764162D01*
X147558470Y-52797336D01*
X147660573Y-52830511D01*
X147872643Y-52864100D01*
X147872644Y-52864100D01*
X148087356Y-52864100D01*
X148087357Y-52864100D01*
X148299427Y-52830511D01*
X148503633Y-52764161D01*
X148694944Y-52666683D01*
X148868651Y-52540477D01*
X149020477Y-52388651D01*
X149146683Y-52214944D01*
X149146683Y-52214943D01*
X149149547Y-52211002D01*
X149151478Y-52212405D01*
X149195927Y-52172078D01*
X149264840Y-52160558D01*
X149329042Y-52188125D01*
X149349478Y-52211709D01*
X149350453Y-52211002D01*
X149353316Y-52214943D01*
X149353317Y-52214944D01*
X149479523Y-52388651D01*
X149631349Y-52540477D01*
X149805056Y-52666683D01*
X149898888Y-52714492D01*
X149996366Y-52764161D01*
X149996369Y-52764162D01*
X150098470Y-52797336D01*
X150200573Y-52830511D01*
X150412643Y-52864100D01*
X150412644Y-52864100D01*
X150627356Y-52864100D01*
X150627357Y-52864100D01*
X150839427Y-52830511D01*
X151043633Y-52764161D01*
X151234944Y-52666683D01*
X151408651Y-52540477D01*
X151560477Y-52388651D01*
X151686683Y-52214944D01*
X151686683Y-52214943D01*
X151689547Y-52211002D01*
X151691478Y-52212405D01*
X151735927Y-52172078D01*
X151804840Y-52160558D01*
X151869042Y-52188125D01*
X151889478Y-52211709D01*
X151890453Y-52211002D01*
X151893316Y-52214943D01*
X151893317Y-52214944D01*
X152019523Y-52388651D01*
X152171349Y-52540477D01*
X152345056Y-52666683D01*
X152438888Y-52714492D01*
X152536366Y-52764161D01*
X152536369Y-52764162D01*
X152638470Y-52797336D01*
X152740573Y-52830511D01*
X152952643Y-52864100D01*
X152952644Y-52864100D01*
X153167356Y-52864100D01*
X153167357Y-52864100D01*
X153379427Y-52830511D01*
X153583633Y-52764161D01*
X153774944Y-52666683D01*
X153948651Y-52540477D01*
X154100477Y-52388651D01*
X154226683Y-52214944D01*
X154324161Y-52023633D01*
X154390511Y-51819427D01*
X154424100Y-51607357D01*
X154424100Y-51392643D01*
X154390511Y-51180573D01*
X154330000Y-50994337D01*
X154324162Y-50976369D01*
X154324161Y-50976366D01*
X154240266Y-50811715D01*
X154226683Y-50785056D01*
X154100477Y-50611349D01*
X153948651Y-50459523D01*
X153774944Y-50333317D01*
X153583633Y-50235838D01*
X153583630Y-50235837D01*
X153379428Y-50169489D01*
X153210940Y-50142803D01*
X153167357Y-50135900D01*
X152952643Y-50135900D01*
X152909060Y-50142803D01*
X152740571Y-50169489D01*
X152536369Y-50235837D01*
X152536366Y-50235838D01*
X152345055Y-50333317D01*
X152245949Y-50405322D01*
X152171349Y-50459523D01*
X152171347Y-50459525D01*
X152171346Y-50459525D01*
X152019525Y-50611346D01*
X152019525Y-50611347D01*
X152019523Y-50611349D01*
X151912121Y-50759175D01*
X151890453Y-50788998D01*
X151888562Y-50787624D01*
X151843848Y-50828030D01*
X151774911Y-50839411D01*
X151710765Y-50811715D01*
X151690488Y-50788314D01*
X151689547Y-50788998D01*
X151667879Y-50759175D01*
X151560477Y-50611349D01*
X151408651Y-50459523D01*
X151234944Y-50333317D01*
X151043633Y-50235838D01*
X151043630Y-50235837D01*
X150839428Y-50169489D01*
X150670940Y-50142803D01*
X150627357Y-50135900D01*
X150412643Y-50135900D01*
X150369060Y-50142803D01*
X150200571Y-50169489D01*
X149996369Y-50235837D01*
X149996366Y-50235838D01*
X149805055Y-50333317D01*
X149705949Y-50405322D01*
X149631349Y-50459523D01*
X149631347Y-50459525D01*
X149631346Y-50459525D01*
X149479525Y-50611346D01*
X149479525Y-50611347D01*
X149479523Y-50611349D01*
X149372121Y-50759175D01*
X149350453Y-50788998D01*
X149348562Y-50787624D01*
X149303848Y-50828030D01*
X149234911Y-50839411D01*
X149170765Y-50811715D01*
X149150488Y-50788314D01*
X149149547Y-50788998D01*
X149127879Y-50759175D01*
X149020477Y-50611349D01*
X148868651Y-50459523D01*
X148694944Y-50333317D01*
X148503633Y-50235838D01*
X148503630Y-50235837D01*
X148299428Y-50169489D01*
X148130940Y-50142803D01*
X148087357Y-50135900D01*
X147872643Y-50135900D01*
X147829060Y-50142803D01*
X147660571Y-50169489D01*
X147456369Y-50235837D01*
X147456366Y-50235838D01*
X147265055Y-50333317D01*
X147165949Y-50405322D01*
X147091349Y-50459523D01*
X147091347Y-50459525D01*
X147091346Y-50459525D01*
X146939525Y-50611346D01*
X146939525Y-50611347D01*
X146939523Y-50611349D01*
X146832121Y-50759175D01*
X146810453Y-50788998D01*
X146808562Y-50787624D01*
X146763848Y-50828030D01*
X146694911Y-50839411D01*
X146630765Y-50811715D01*
X146610488Y-50788314D01*
X146609547Y-50788998D01*
X146587879Y-50759175D01*
X146480477Y-50611349D01*
X146328651Y-50459523D01*
X146154944Y-50333317D01*
X145963633Y-50235838D01*
X145963630Y-50235837D01*
X145759428Y-50169489D01*
X145590940Y-50142803D01*
X145547357Y-50135900D01*
X145332643Y-50135900D01*
X145289060Y-50142803D01*
X145120571Y-50169489D01*
X144916369Y-50235837D01*
X144916366Y-50235838D01*
X144725055Y-50333317D01*
X144625949Y-50405322D01*
X144551349Y-50459523D01*
X144551347Y-50459525D01*
X144551346Y-50459525D01*
X144399525Y-50611346D01*
X144399525Y-50611347D01*
X144399523Y-50611349D01*
X144292121Y-50759175D01*
X144270453Y-50788998D01*
X144268562Y-50787624D01*
X144223848Y-50828030D01*
X144154911Y-50839411D01*
X144090765Y-50811715D01*
X144070488Y-50788314D01*
X144069547Y-50788998D01*
X144047879Y-50759175D01*
X143940477Y-50611349D01*
X143788651Y-50459523D01*
X143614944Y-50333317D01*
X143423633Y-50235838D01*
X143423630Y-50235837D01*
X143219428Y-50169489D01*
X143050940Y-50142803D01*
X143007357Y-50135900D01*
X142792643Y-50135900D01*
X142749060Y-50142803D01*
X142580571Y-50169489D01*
X142376369Y-50235837D01*
X142376366Y-50235838D01*
X142185055Y-50333317D01*
X142011350Y-50459522D01*
X141914660Y-50556212D01*
X141853336Y-50589696D01*
X141783645Y-50584712D01*
X141727712Y-50542840D01*
X141710797Y-50511863D01*
X141666954Y-50394313D01*
X141666950Y-50394306D01*
X141580790Y-50279212D01*
X141580787Y-50279209D01*
X141465693Y-50193049D01*
X141465686Y-50193045D01*
X141330979Y-50142803D01*
X141330972Y-50142801D01*
X141271444Y-50136400D01*
X140610000Y-50136400D01*
X140610000Y-51057748D01*
X140556081Y-51026619D01*
X140426880Y-50992000D01*
X140293120Y-50992000D01*
X140163919Y-51026619D01*
X140110000Y-51057748D01*
X140110000Y-50136400D01*
X139448555Y-50136400D01*
X139389027Y-50142801D01*
X139389020Y-50142803D01*
X139254313Y-50193045D01*
X139254311Y-50193047D01*
X139164311Y-50260421D01*
X139098847Y-50284838D01*
X139030574Y-50269987D01*
X139015689Y-50260421D01*
X138925688Y-50193047D01*
X138925686Y-50193045D01*
X138790979Y-50142803D01*
X138790972Y-50142801D01*
X138731444Y-50136400D01*
X138070000Y-50136400D01*
X138070000Y-51057748D01*
X138016081Y-51026619D01*
X137886880Y-50992000D01*
X137753120Y-50992000D01*
X137623919Y-51026619D01*
X137570000Y-51057748D01*
X137570000Y-50136400D01*
X136908555Y-50136400D01*
X136849027Y-50142801D01*
X136849020Y-50142803D01*
X136714313Y-50193045D01*
X136714306Y-50193049D01*
X136599212Y-50279209D01*
X136599209Y-50279212D01*
X136513049Y-50394306D01*
X136513045Y-50394313D01*
X136469202Y-50511863D01*
X136427330Y-50567797D01*
X136361866Y-50592214D01*
X136293593Y-50577362D01*
X136265339Y-50556211D01*
X136168653Y-50459525D01*
X136168651Y-50459523D01*
X135994944Y-50333317D01*
X135803633Y-50235838D01*
X135803630Y-50235837D01*
X135599428Y-50169489D01*
X135430940Y-50142803D01*
X135387357Y-50135900D01*
X135172643Y-50135900D01*
X135129060Y-50142803D01*
X134960571Y-50169489D01*
X134756369Y-50235837D01*
X134756366Y-50235838D01*
X134565055Y-50333317D01*
X134465949Y-50405322D01*
X134391349Y-50459523D01*
X134391347Y-50459525D01*
X134391346Y-50459525D01*
X134239525Y-50611346D01*
X134239525Y-50611347D01*
X134239523Y-50611349D01*
X134185322Y-50685949D01*
X134113317Y-50785055D01*
X134015838Y-50976366D01*
X134015837Y-50976369D01*
X133949489Y-51180571D01*
X133915900Y-51392643D01*
X133915900Y-51607356D01*
X133949489Y-51819428D01*
X134015837Y-52023630D01*
X134015838Y-52023633D01*
X134099652Y-52188125D01*
X134113317Y-52214944D01*
X134239523Y-52388651D01*
X134391349Y-52540477D01*
X134565056Y-52666683D01*
X134658888Y-52714492D01*
X134756366Y-52764161D01*
X134756369Y-52764162D01*
X134858470Y-52797336D01*
X134960573Y-52830511D01*
X135172643Y-52864100D01*
X135172644Y-52864100D01*
X135387356Y-52864100D01*
X135387357Y-52864100D01*
X135599427Y-52830511D01*
X135803633Y-52764161D01*
X135994944Y-52666683D01*
X136168651Y-52540477D01*
X136265342Y-52443785D01*
X136326661Y-52410303D01*
X136396353Y-52415287D01*
X136452287Y-52457158D01*
X136469202Y-52488136D01*
X136513045Y-52605686D01*
X136513049Y-52605693D01*
X136599209Y-52720787D01*
X136599212Y-52720790D01*
X136714306Y-52806950D01*
X136714313Y-52806954D01*
X136849020Y-52857196D01*
X136849027Y-52857198D01*
X136908555Y-52863599D01*
X136908572Y-52863600D01*
X137570000Y-52863600D01*
X137570000Y-51942251D01*
X137623919Y-51973381D01*
X137753120Y-52008000D01*
X137886880Y-52008000D01*
X138016081Y-51973381D01*
X138070000Y-51942251D01*
X138070000Y-52863600D01*
X138731428Y-52863600D01*
X138731444Y-52863599D01*
X138790972Y-52857198D01*
X138790979Y-52857196D01*
X138925686Y-52806954D01*
X138925689Y-52806952D01*
X139015688Y-52739579D01*
X139081152Y-52715161D01*
X139149426Y-52730012D01*
X139164312Y-52739579D01*
X139254310Y-52806952D01*
X139254313Y-52806954D01*
X139389020Y-52857196D01*
X139389027Y-52857198D01*
X139448555Y-52863599D01*
X139448572Y-52863600D01*
X140110000Y-52863600D01*
X140110000Y-51942251D01*
X140163919Y-51973381D01*
X140293120Y-52008000D01*
X140426880Y-52008000D01*
X140556081Y-51973381D01*
X140610000Y-51942251D01*
X140610000Y-52863600D01*
X141271428Y-52863600D01*
X141271444Y-52863599D01*
X141330972Y-52857198D01*
X141330979Y-52857196D01*
X141465686Y-52806954D01*
X141465693Y-52806950D01*
X141580787Y-52720790D01*
X141580790Y-52720787D01*
X141666950Y-52605693D01*
X141666955Y-52605684D01*
X141710797Y-52488137D01*
X141752668Y-52432203D01*
X141818132Y-52407785D01*
X141886405Y-52422636D01*
X141914660Y-52443788D01*
X142011349Y-52540477D01*
X142185056Y-52666683D01*
X142278888Y-52714492D01*
X142376366Y-52764161D01*
X142376369Y-52764162D01*
X142580572Y-52830511D01*
X142613728Y-52835762D01*
X142750619Y-52857443D01*
X142813752Y-52887372D01*
X142850684Y-52946683D01*
X142849686Y-53016546D01*
X142818901Y-53067597D01*
X135323319Y-60563181D01*
X135261996Y-60596666D01*
X135235638Y-60599500D01*
X77603695Y-60599500D01*
X77449842Y-60630104D01*
X77434717Y-60633112D01*
X77429722Y-60634106D01*
X77429721Y-60634106D01*
X77265848Y-60701983D01*
X77265835Y-60701990D01*
X77118355Y-60800534D01*
X77118353Y-60800537D01*
X69259514Y-68659375D01*
X69232586Y-68674078D01*
X69206768Y-68690671D01*
X69200567Y-68691562D01*
X69198191Y-68692860D01*
X69171833Y-68695694D01*
X69020556Y-68695694D01*
X68953517Y-68676009D01*
X68932875Y-68659375D01*
X67567591Y-67294091D01*
X66170231Y-65896730D01*
X66170230Y-65896729D01*
X66170225Y-65896725D01*
X66115817Y-65860372D01*
X66115811Y-65860369D01*
X66111154Y-65857257D01*
X66022742Y-65798181D01*
X65940801Y-65764240D01*
X65858861Y-65730299D01*
X65858853Y-65730297D01*
X65684891Y-65695694D01*
X65684887Y-65695694D01*
X65684886Y-65695694D01*
X60684887Y-65695694D01*
X60507503Y-65695694D01*
X60507498Y-65695694D01*
X60333536Y-65730297D01*
X60333524Y-65730300D01*
X60251587Y-65764239D01*
X60251588Y-65764240D01*
X60169650Y-65798179D01*
X60081235Y-65857257D01*
X60081234Y-65857258D01*
X60022156Y-65896731D01*
X60022155Y-65896732D01*
X48759514Y-77159375D01*
X48698191Y-77192860D01*
X48671833Y-77195694D01*
X45520557Y-77195694D01*
X45453518Y-77176009D01*
X45432876Y-77159375D01*
X43670236Y-75396734D01*
X43670229Y-75396728D01*
X43522743Y-75298182D01*
X43358861Y-75230299D01*
X43358853Y-75230297D01*
X43184891Y-75195694D01*
X43184887Y-75195694D01*
X43007503Y-75195694D01*
X43007498Y-75195694D01*
X42833536Y-75230297D01*
X42833528Y-75230299D01*
X42669646Y-75298182D01*
X42522160Y-75396728D01*
X42522153Y-75396734D01*
X42396735Y-75522152D01*
X42396729Y-75522159D01*
X42298183Y-75669645D01*
X42230300Y-75833527D01*
X42230298Y-75833535D01*
X42195695Y-76007497D01*
X40500500Y-76007497D01*
X40500500Y-75063882D01*
X45721325Y-75063882D01*
X45721325Y-75300077D01*
X45758271Y-75533348D01*
X45831258Y-75757976D01*
X45917682Y-75927591D01*
X45938482Y-75968413D01*
X46077308Y-76159490D01*
X46244315Y-76326497D01*
X46435392Y-76465323D01*
X46534816Y-76515982D01*
X46645828Y-76572546D01*
X46645830Y-76572546D01*
X46645833Y-76572548D01*
X46766237Y-76611669D01*
X46870456Y-76645533D01*
X47103728Y-76682480D01*
X47103733Y-76682480D01*
X47339922Y-76682480D01*
X47573193Y-76645533D01*
X47797817Y-76572548D01*
X48008258Y-76465323D01*
X48199335Y-76326497D01*
X48366342Y-76159490D01*
X48505168Y-75968413D01*
X48612393Y-75757972D01*
X48685378Y-75533348D01*
X48687151Y-75522152D01*
X48722325Y-75300077D01*
X48722325Y-75063882D01*
X48685378Y-74830611D01*
X48612391Y-74605983D01*
X48505167Y-74395546D01*
X48366342Y-74204470D01*
X48199335Y-74037463D01*
X48008258Y-73898637D01*
X47797821Y-73791413D01*
X47573193Y-73718426D01*
X47339922Y-73681480D01*
X47339917Y-73681480D01*
X47103733Y-73681480D01*
X47103728Y-73681480D01*
X46870456Y-73718426D01*
X46645828Y-73791413D01*
X46435391Y-73898637D01*
X46326375Y-73977842D01*
X46244315Y-74037463D01*
X46244313Y-74037465D01*
X46244312Y-74037465D01*
X46077310Y-74204467D01*
X46077310Y-74204468D01*
X46077308Y-74204470D01*
X46074317Y-74208587D01*
X45938482Y-74395546D01*
X45831258Y-74605983D01*
X45758271Y-74830611D01*
X45721325Y-75063882D01*
X40500500Y-75063882D01*
X40500500Y-71749999D01*
X48924703Y-71749999D01*
X49913057Y-71749999D01*
X49891287Y-71787707D01*
X49853805Y-71927590D01*
X49853805Y-72072408D01*
X49891287Y-72212291D01*
X49913057Y-72249999D01*
X48924703Y-72249999D01*
X48940739Y-72351246D01*
X49013702Y-72575801D01*
X49120890Y-72786170D01*
X49259671Y-72977185D01*
X49426618Y-73144132D01*
X49617633Y-73282913D01*
X49828000Y-73390101D01*
X50052549Y-73463062D01*
X50052555Y-73463064D01*
X50153805Y-73479100D01*
X50153805Y-72490746D01*
X50191513Y-72512517D01*
X50331396Y-72549999D01*
X50476214Y-72549999D01*
X50616097Y-72512517D01*
X50653805Y-72490746D01*
X50653805Y-73479099D01*
X50755054Y-73463064D01*
X50755060Y-73463062D01*
X50979609Y-73390101D01*
X51189976Y-73282913D01*
X51380991Y-73144132D01*
X51547938Y-72977185D01*
X51686719Y-72786170D01*
X51793907Y-72575801D01*
X51866870Y-72351246D01*
X51882907Y-72249999D01*
X50894553Y-72249999D01*
X50916323Y-72212291D01*
X50953805Y-72072408D01*
X50953805Y-71927590D01*
X50916323Y-71787707D01*
X50894553Y-71749999D01*
X51882907Y-71749999D01*
X51866870Y-71648751D01*
X51793907Y-71424196D01*
X51686719Y-71213827D01*
X51547938Y-71022812D01*
X51380991Y-70855865D01*
X51189976Y-70717084D01*
X50979607Y-70609896D01*
X50755052Y-70536933D01*
X50653805Y-70520896D01*
X50653805Y-71509251D01*
X50616097Y-71487481D01*
X50476214Y-71449999D01*
X50331396Y-71449999D01*
X50191513Y-71487481D01*
X50153805Y-71509251D01*
X50153805Y-70520896D01*
X50052557Y-70536933D01*
X49828002Y-70609896D01*
X49617633Y-70717084D01*
X49426618Y-70855865D01*
X49259671Y-71022812D01*
X49120890Y-71213827D01*
X49013702Y-71424196D01*
X48940739Y-71648751D01*
X48924703Y-71749999D01*
X40500500Y-71749999D01*
X40500500Y-68750000D01*
X52020897Y-68750000D01*
X53009251Y-68750000D01*
X52987481Y-68787708D01*
X52949999Y-68927591D01*
X52949999Y-69072409D01*
X52987481Y-69212292D01*
X53009251Y-69250000D01*
X52020897Y-69250000D01*
X52036933Y-69351247D01*
X52109896Y-69575802D01*
X52217084Y-69786171D01*
X52355865Y-69977186D01*
X52522812Y-70144133D01*
X52713827Y-70282914D01*
X52924194Y-70390102D01*
X53148743Y-70463063D01*
X53148749Y-70463065D01*
X53249999Y-70479101D01*
X53249999Y-69490747D01*
X53287707Y-69512518D01*
X53427590Y-69550000D01*
X53572408Y-69550000D01*
X53712291Y-69512518D01*
X53749999Y-69490747D01*
X53749999Y-70479100D01*
X53851248Y-70463065D01*
X53851254Y-70463063D01*
X54075803Y-70390102D01*
X54286170Y-70282914D01*
X54477185Y-70144133D01*
X54644132Y-69977186D01*
X54782913Y-69786171D01*
X54890101Y-69575802D01*
X54963064Y-69351247D01*
X54979101Y-69250000D01*
X53990747Y-69250000D01*
X54012517Y-69212292D01*
X54049999Y-69072409D01*
X54049999Y-68927591D01*
X54012517Y-68787708D01*
X53990747Y-68750000D01*
X54979101Y-68750000D01*
X54963064Y-68648752D01*
X54890101Y-68424197D01*
X54782913Y-68213828D01*
X54644132Y-68022813D01*
X54477185Y-67855866D01*
X54286170Y-67717085D01*
X54075801Y-67609897D01*
X53851246Y-67536934D01*
X53749999Y-67520897D01*
X53749999Y-68509252D01*
X53712291Y-68487482D01*
X53572408Y-68450000D01*
X53427590Y-68450000D01*
X53287707Y-68487482D01*
X53249999Y-68509252D01*
X53249999Y-67520897D01*
X53148751Y-67536934D01*
X52924196Y-67609897D01*
X52713827Y-67717085D01*
X52522812Y-67855866D01*
X52355865Y-68022813D01*
X52217084Y-68213828D01*
X52109896Y-68424197D01*
X52036933Y-68648752D01*
X52020897Y-68750000D01*
X40500500Y-68750000D01*
X40500500Y-65699921D01*
X55181480Y-65699921D01*
X55181480Y-65936116D01*
X55218426Y-66169387D01*
X55291413Y-66394015D01*
X55398637Y-66604452D01*
X55537463Y-66795529D01*
X55704470Y-66962536D01*
X55895547Y-67101362D01*
X55994971Y-67152021D01*
X56105983Y-67208585D01*
X56105985Y-67208585D01*
X56105988Y-67208587D01*
X56214341Y-67243793D01*
X56330611Y-67281572D01*
X56563883Y-67318519D01*
X56563888Y-67318519D01*
X56800077Y-67318519D01*
X57033348Y-67281572D01*
X57257972Y-67208587D01*
X57468413Y-67101362D01*
X57659490Y-66962536D01*
X57826497Y-66795529D01*
X57965323Y-66604452D01*
X58072548Y-66394011D01*
X58145533Y-66169387D01*
X58162074Y-66064951D01*
X58182480Y-65936116D01*
X58182480Y-65699921D01*
X58145533Y-65466650D01*
X58072546Y-65242022D01*
X57975790Y-65052129D01*
X57965323Y-65031586D01*
X57826497Y-64840509D01*
X57659490Y-64673502D01*
X57468413Y-64534676D01*
X57257976Y-64427452D01*
X57033348Y-64354465D01*
X56800077Y-64317519D01*
X56800072Y-64317519D01*
X56563888Y-64317519D01*
X56563883Y-64317519D01*
X56330611Y-64354465D01*
X56105983Y-64427452D01*
X55895546Y-64534676D01*
X55786530Y-64613881D01*
X55704470Y-64673502D01*
X55704468Y-64673504D01*
X55704467Y-64673504D01*
X55537465Y-64840506D01*
X55537465Y-64840507D01*
X55537463Y-64840509D01*
X55517611Y-64867833D01*
X55398637Y-65031585D01*
X55291413Y-65242022D01*
X55218426Y-65466650D01*
X55181480Y-65699921D01*
X40500500Y-65699921D01*
X40500500Y-52831491D01*
X41999500Y-52831491D01*
X41999500Y-53168508D01*
X42037231Y-53503381D01*
X42037233Y-53503397D01*
X42112223Y-53831953D01*
X42112227Y-53831965D01*
X42223532Y-54150054D01*
X42369752Y-54453683D01*
X42369754Y-54453686D01*
X42549054Y-54739039D01*
X42759175Y-55002523D01*
X42997477Y-55240825D01*
X43260961Y-55450946D01*
X43546314Y-55630246D01*
X43849949Y-55776469D01*
X44067267Y-55852512D01*
X44168034Y-55887772D01*
X44168046Y-55887776D01*
X44496606Y-55962767D01*
X44831492Y-56000499D01*
X44831493Y-56000500D01*
X44831496Y-56000500D01*
X45168507Y-56000500D01*
X45168507Y-56000499D01*
X45503394Y-55962767D01*
X45831954Y-55887776D01*
X46150051Y-55776469D01*
X46453686Y-55630246D01*
X46739039Y-55450946D01*
X47002523Y-55240825D01*
X47240825Y-55002523D01*
X47450946Y-54739039D01*
X47630246Y-54453686D01*
X47776469Y-54150051D01*
X47887776Y-53831954D01*
X47962767Y-53503394D01*
X48000500Y-53168504D01*
X48000500Y-52831496D01*
X47962767Y-52496606D01*
X47887776Y-52168046D01*
X47776469Y-51849949D01*
X47630246Y-51546314D01*
X47533688Y-51392643D01*
X116135900Y-51392643D01*
X116135900Y-51607356D01*
X116169489Y-51819428D01*
X116235837Y-52023630D01*
X116235838Y-52023633D01*
X116319652Y-52188125D01*
X116333317Y-52214944D01*
X116459523Y-52388651D01*
X116611349Y-52540477D01*
X116785056Y-52666683D01*
X116878888Y-52714492D01*
X116976366Y-52764161D01*
X116976369Y-52764162D01*
X117078470Y-52797336D01*
X117180573Y-52830511D01*
X117392643Y-52864100D01*
X117392644Y-52864100D01*
X117607356Y-52864100D01*
X117607357Y-52864100D01*
X117819427Y-52830511D01*
X118023633Y-52764161D01*
X118214944Y-52666683D01*
X118388651Y-52540477D01*
X118540477Y-52388651D01*
X118666683Y-52214944D01*
X118666683Y-52214943D01*
X118669547Y-52211002D01*
X118671478Y-52212405D01*
X118715927Y-52172078D01*
X118784840Y-52160558D01*
X118849042Y-52188125D01*
X118869478Y-52211709D01*
X118870453Y-52211002D01*
X118873316Y-52214943D01*
X118873317Y-52214944D01*
X118999523Y-52388651D01*
X119151349Y-52540477D01*
X119325056Y-52666683D01*
X119418888Y-52714492D01*
X119516366Y-52764161D01*
X119516369Y-52764162D01*
X119618470Y-52797336D01*
X119720573Y-52830511D01*
X119932643Y-52864100D01*
X119932644Y-52864100D01*
X120147356Y-52864100D01*
X120147357Y-52864100D01*
X120359427Y-52830511D01*
X120563633Y-52764161D01*
X120754944Y-52666683D01*
X120928651Y-52540477D01*
X121080477Y-52388651D01*
X121206683Y-52214944D01*
X121206683Y-52214943D01*
X121209547Y-52211002D01*
X121211478Y-52212405D01*
X121255927Y-52172078D01*
X121324840Y-52160558D01*
X121389042Y-52188125D01*
X121409478Y-52211709D01*
X121410453Y-52211002D01*
X121413316Y-52214943D01*
X121413317Y-52214944D01*
X121539523Y-52388651D01*
X121691349Y-52540477D01*
X121865056Y-52666683D01*
X121958888Y-52714492D01*
X122056366Y-52764161D01*
X122056369Y-52764162D01*
X122158470Y-52797336D01*
X122260573Y-52830511D01*
X122472643Y-52864100D01*
X122472644Y-52864100D01*
X122687356Y-52864100D01*
X122687357Y-52864100D01*
X122899427Y-52830511D01*
X123103633Y-52764161D01*
X123294944Y-52666683D01*
X123468651Y-52540477D01*
X123620477Y-52388651D01*
X123746683Y-52214944D01*
X123746683Y-52214943D01*
X123749547Y-52211002D01*
X123751478Y-52212405D01*
X123795927Y-52172078D01*
X123864840Y-52160558D01*
X123929042Y-52188125D01*
X123949478Y-52211709D01*
X123950453Y-52211002D01*
X123953316Y-52214943D01*
X123953317Y-52214944D01*
X124079523Y-52388651D01*
X124231349Y-52540477D01*
X124405056Y-52666683D01*
X124498888Y-52714492D01*
X124596366Y-52764161D01*
X124596369Y-52764162D01*
X124698470Y-52797336D01*
X124800573Y-52830511D01*
X125012643Y-52864100D01*
X125012644Y-52864100D01*
X125227356Y-52864100D01*
X125227357Y-52864100D01*
X125439427Y-52830511D01*
X125643633Y-52764161D01*
X125834944Y-52666683D01*
X126008651Y-52540477D01*
X126160477Y-52388651D01*
X126286683Y-52214944D01*
X126286683Y-52214943D01*
X126289547Y-52211002D01*
X126291478Y-52212405D01*
X126335927Y-52172078D01*
X126404840Y-52160558D01*
X126469042Y-52188125D01*
X126489478Y-52211709D01*
X126490453Y-52211002D01*
X126493316Y-52214943D01*
X126493317Y-52214944D01*
X126619523Y-52388651D01*
X126771349Y-52540477D01*
X126945056Y-52666683D01*
X127038888Y-52714492D01*
X127136366Y-52764161D01*
X127136369Y-52764162D01*
X127238470Y-52797336D01*
X127340573Y-52830511D01*
X127552643Y-52864100D01*
X127552644Y-52864100D01*
X127767356Y-52864100D01*
X127767357Y-52864100D01*
X127979427Y-52830511D01*
X128183633Y-52764161D01*
X128374944Y-52666683D01*
X128548651Y-52540477D01*
X128700477Y-52388651D01*
X128826683Y-52214944D01*
X128826683Y-52214943D01*
X128829547Y-52211002D01*
X128831478Y-52212405D01*
X128875927Y-52172078D01*
X128944840Y-52160558D01*
X129009042Y-52188125D01*
X129029478Y-52211709D01*
X129030453Y-52211002D01*
X129033316Y-52214943D01*
X129033317Y-52214944D01*
X129159523Y-52388651D01*
X129311349Y-52540477D01*
X129485056Y-52666683D01*
X129578888Y-52714492D01*
X129676366Y-52764161D01*
X129676369Y-52764162D01*
X129778470Y-52797336D01*
X129880573Y-52830511D01*
X130092643Y-52864100D01*
X130092644Y-52864100D01*
X130307356Y-52864100D01*
X130307357Y-52864100D01*
X130519427Y-52830511D01*
X130723633Y-52764161D01*
X130914944Y-52666683D01*
X131088651Y-52540477D01*
X131240477Y-52388651D01*
X131366683Y-52214944D01*
X131464161Y-52023633D01*
X131530511Y-51819427D01*
X131564100Y-51607357D01*
X131564100Y-51392643D01*
X131530511Y-51180573D01*
X131470000Y-50994337D01*
X131464162Y-50976369D01*
X131464161Y-50976366D01*
X131380266Y-50811715D01*
X131366683Y-50785056D01*
X131240477Y-50611349D01*
X131088651Y-50459523D01*
X130914944Y-50333317D01*
X130723633Y-50235838D01*
X130723630Y-50235837D01*
X130519428Y-50169489D01*
X130350940Y-50142803D01*
X130307357Y-50135900D01*
X130092643Y-50135900D01*
X130049060Y-50142803D01*
X129880571Y-50169489D01*
X129676369Y-50235837D01*
X129676366Y-50235838D01*
X129485055Y-50333317D01*
X129385949Y-50405322D01*
X129311349Y-50459523D01*
X129311347Y-50459525D01*
X129311346Y-50459525D01*
X129159525Y-50611346D01*
X129159525Y-50611347D01*
X129159523Y-50611349D01*
X129052121Y-50759175D01*
X129030453Y-50788998D01*
X129028562Y-50787624D01*
X128983848Y-50828030D01*
X128914911Y-50839411D01*
X128850765Y-50811715D01*
X128830488Y-50788314D01*
X128829547Y-50788998D01*
X128807879Y-50759175D01*
X128700477Y-50611349D01*
X128548651Y-50459523D01*
X128374944Y-50333317D01*
X128183633Y-50235838D01*
X128183630Y-50235837D01*
X127979428Y-50169489D01*
X127810940Y-50142803D01*
X127767357Y-50135900D01*
X127552643Y-50135900D01*
X127509060Y-50142803D01*
X127340571Y-50169489D01*
X127136369Y-50235837D01*
X127136366Y-50235838D01*
X126945055Y-50333317D01*
X126845949Y-50405322D01*
X126771349Y-50459523D01*
X126771347Y-50459525D01*
X126771346Y-50459525D01*
X126619525Y-50611346D01*
X126619525Y-50611347D01*
X126619523Y-50611349D01*
X126512121Y-50759175D01*
X126490453Y-50788998D01*
X126488562Y-50787624D01*
X126443848Y-50828030D01*
X126374911Y-50839411D01*
X126310765Y-50811715D01*
X126290488Y-50788314D01*
X126289547Y-50788998D01*
X126267879Y-50759175D01*
X126160477Y-50611349D01*
X126008651Y-50459523D01*
X125834944Y-50333317D01*
X125643633Y-50235838D01*
X125643630Y-50235837D01*
X125439428Y-50169489D01*
X125270940Y-50142803D01*
X125227357Y-50135900D01*
X125012643Y-50135900D01*
X124969060Y-50142803D01*
X124800571Y-50169489D01*
X124596369Y-50235837D01*
X124596366Y-50235838D01*
X124405055Y-50333317D01*
X124305949Y-50405322D01*
X124231349Y-50459523D01*
X124231347Y-50459525D01*
X124231346Y-50459525D01*
X124079525Y-50611346D01*
X124079525Y-50611347D01*
X124079523Y-50611349D01*
X123972121Y-50759175D01*
X123950453Y-50788998D01*
X123948562Y-50787624D01*
X123903848Y-50828030D01*
X123834911Y-50839411D01*
X123770765Y-50811715D01*
X123750488Y-50788314D01*
X123749547Y-50788998D01*
X123727879Y-50759175D01*
X123620477Y-50611349D01*
X123468651Y-50459523D01*
X123294944Y-50333317D01*
X123103633Y-50235838D01*
X123103630Y-50235837D01*
X122899428Y-50169489D01*
X122730940Y-50142803D01*
X122687357Y-50135900D01*
X122472643Y-50135900D01*
X122429060Y-50142803D01*
X122260571Y-50169489D01*
X122056369Y-50235837D01*
X122056366Y-50235838D01*
X121865055Y-50333317D01*
X121765949Y-50405322D01*
X121691349Y-50459523D01*
X121691347Y-50459525D01*
X121691346Y-50459525D01*
X121539525Y-50611346D01*
X121539525Y-50611347D01*
X121539523Y-50611349D01*
X121432121Y-50759175D01*
X121410453Y-50788998D01*
X121408562Y-50787624D01*
X121363848Y-50828030D01*
X121294911Y-50839411D01*
X121230765Y-50811715D01*
X121210488Y-50788314D01*
X121209547Y-50788998D01*
X121187879Y-50759175D01*
X121080477Y-50611349D01*
X120928651Y-50459523D01*
X120754944Y-50333317D01*
X120563633Y-50235838D01*
X120563630Y-50235837D01*
X120359428Y-50169489D01*
X120190940Y-50142803D01*
X120147357Y-50135900D01*
X119932643Y-50135900D01*
X119889060Y-50142803D01*
X119720571Y-50169489D01*
X119516369Y-50235837D01*
X119516366Y-50235838D01*
X119325055Y-50333317D01*
X119225949Y-50405322D01*
X119151349Y-50459523D01*
X119151347Y-50459525D01*
X119151346Y-50459525D01*
X118999525Y-50611346D01*
X118999525Y-50611347D01*
X118999523Y-50611349D01*
X118892121Y-50759175D01*
X118870453Y-50788998D01*
X118868562Y-50787624D01*
X118823848Y-50828030D01*
X118754911Y-50839411D01*
X118690765Y-50811715D01*
X118670488Y-50788314D01*
X118669547Y-50788998D01*
X118647879Y-50759175D01*
X118540477Y-50611349D01*
X118388651Y-50459523D01*
X118214944Y-50333317D01*
X118023633Y-50235838D01*
X118023630Y-50235837D01*
X117819428Y-50169489D01*
X117650940Y-50142803D01*
X117607357Y-50135900D01*
X117392643Y-50135900D01*
X117349060Y-50142803D01*
X117180571Y-50169489D01*
X116976369Y-50235837D01*
X116976366Y-50235838D01*
X116785055Y-50333317D01*
X116685949Y-50405322D01*
X116611349Y-50459523D01*
X116611347Y-50459525D01*
X116611346Y-50459525D01*
X116459525Y-50611346D01*
X116459525Y-50611347D01*
X116459523Y-50611349D01*
X116405322Y-50685949D01*
X116333317Y-50785055D01*
X116235838Y-50976366D01*
X116235837Y-50976369D01*
X116169489Y-51180571D01*
X116135900Y-51392643D01*
X47533688Y-51392643D01*
X47450946Y-51260961D01*
X47240825Y-50997477D01*
X47002523Y-50759175D01*
X46739039Y-50549054D01*
X46453686Y-50369754D01*
X46453683Y-50369752D01*
X46150054Y-50223532D01*
X45831965Y-50112227D01*
X45831953Y-50112223D01*
X45503397Y-50037233D01*
X45503381Y-50037231D01*
X45168508Y-49999500D01*
X45168504Y-49999500D01*
X44831496Y-49999500D01*
X44831491Y-49999500D01*
X44496618Y-50037231D01*
X44496602Y-50037233D01*
X44168046Y-50112223D01*
X44168034Y-50112227D01*
X43849945Y-50223532D01*
X43546316Y-50369752D01*
X43260962Y-50549053D01*
X42997477Y-50759174D01*
X42759174Y-50997477D01*
X42549053Y-51260962D01*
X42369752Y-51546316D01*
X42223532Y-51849945D01*
X42112227Y-52168034D01*
X42112223Y-52168046D01*
X42037233Y-52496602D01*
X42037231Y-52496618D01*
X41999500Y-52831491D01*
X40500500Y-52831491D01*
X40500500Y-49124500D01*
X40520185Y-49057461D01*
X40572989Y-49011706D01*
X40624500Y-49000500D01*
X159375500Y-49000500D01*
X159442539Y-49020185D01*
G37*
%TD.AperFunction*%
%TD*%
M02*
