%TF.GenerationSoftware,KiCad,Pcbnew,9.0.7*%
%TF.CreationDate,2026-04-13T21:23:37+02:00*%
%TF.ProjectId,gameshield-v2,67616d65-7368-4696-956c-642d76322e6b,rev?*%
%TF.SameCoordinates,Original*%
%TF.FileFunction,Legend,Top*%
%TF.FilePolarity,Positive*%
%FSLAX46Y46*%
G04 Gerber Fmt 4.6, Leading zero omitted, Abs format (unit mm)*
G04 Created by KiCad (PCBNEW 9.0.7) date 2026-04-13 21:23:37*
%MOMM*%
%LPD*%
G01*
G04 APERTURE LIST*
G04 Aperture macros list*
%AMRoundRect*
0 Rectangle with rounded corners*
0 $1 Rounding radius*
0 $2 $3 $4 $5 $6 $7 $8 $9 X,Y pos of 4 corners*
0 Add a 4 corners polygon primitive as box body*
4,1,4,$2,$3,$4,$5,$6,$7,$8,$9,$2,$3,0*
0 Add four circle primitives for the rounded corners*
1,1,$1+$1,$2,$3*
1,1,$1+$1,$4,$5*
1,1,$1+$1,$6,$7*
1,1,$1+$1,$8,$9*
0 Add four rect primitives between the rounded corners*
20,1,$1+$1,$2,$3,$4,$5,0*
20,1,$1+$1,$4,$5,$6,$7,0*
20,1,$1+$1,$6,$7,$8,$9,0*
20,1,$1+$1,$8,$9,$2,$3,0*%
G04 Aperture macros list end*
%ADD10C,0.120000*%
%ADD11R,1.700000X1.700000*%
%ADD12O,1.700000X1.700000*%
%ADD13RoundRect,0.250000X0.350000X0.450000X-0.350000X0.450000X-0.350000X-0.450000X0.350000X-0.450000X0*%
%ADD14RoundRect,0.250000X-0.450000X0.350000X-0.450000X-0.350000X0.450000X-0.350000X0.450000X0.350000X0*%
%ADD15R,1.000000X0.750000*%
%ADD16RoundRect,0.250000X-0.337500X-0.475000X0.337500X-0.475000X0.337500X0.475000X-0.337500X0.475000X0*%
%ADD17RoundRect,0.250000X0.450000X-0.350000X0.450000X0.350000X-0.450000X0.350000X-0.450000X-0.350000X0*%
%ADD18RoundRect,0.250000X0.337500X0.475000X-0.337500X0.475000X-0.337500X-0.475000X0.337500X-0.475000X0*%
%ADD19C,5.000000*%
%ADD20RoundRect,0.250000X-0.350000X-0.450000X0.350000X-0.450000X0.350000X0.450000X-0.350000X0.450000X0*%
%ADD21R,0.750000X1.000000*%
%ADD22RoundRect,0.250000X0.475000X-0.337500X0.475000X0.337500X-0.475000X0.337500X-0.475000X-0.337500X0*%
%ADD23C,1.700000*%
G04 APERTURE END LIST*
D10*
%TO.C,J1*%
X26610000Y3870000D02*
X27940000Y3870000D01*
X26610000Y2540000D02*
X26610000Y3870000D01*
X29210000Y3870000D02*
X47050000Y3870000D01*
X29210000Y1210000D02*
X29210000Y3870000D01*
X29210000Y1210000D02*
X47050000Y1210000D01*
X47050000Y1210000D02*
X47050000Y3870000D01*
%TO.C,J3*%
X49470000Y3870000D02*
X50800000Y3870000D01*
X49470000Y2540000D02*
X49470000Y3870000D01*
X52070000Y3870000D02*
X64830000Y3870000D01*
X52070000Y1210000D02*
X52070000Y3870000D01*
X52070000Y1210000D02*
X64830000Y1210000D01*
X64830000Y1210000D02*
X64830000Y3870000D01*
%TO.C,J2*%
X17466000Y52130000D02*
X18796000Y52130000D01*
X17466000Y50800000D02*
X17466000Y52130000D01*
X20066000Y52130000D02*
X42986000Y52130000D01*
X20066000Y49470000D02*
X20066000Y52130000D01*
X20066000Y49470000D02*
X42986000Y49470000D01*
X42986000Y49470000D02*
X42986000Y52130000D01*
%TO.C,J4*%
X44390000Y52130000D02*
X45720000Y52130000D01*
X44390000Y50800000D02*
X44390000Y52130000D01*
X46990000Y52130000D02*
X64830000Y52130000D01*
X46990000Y49470000D02*
X46990000Y52130000D01*
X46990000Y49470000D02*
X64830000Y49470000D01*
X64830000Y49470000D02*
X64830000Y52130000D01*
%TO.C,R11*%
X16377064Y39565000D02*
X15922936Y39565000D01*
X16377064Y38095000D02*
X15922936Y38095000D01*
%TO.C,R3*%
X91410000Y37307064D02*
X91410000Y36852936D01*
X92880000Y37307064D02*
X92880000Y36852936D01*
%TO.C,SW1*%
X77149600Y42696600D02*
X77149600Y44696600D01*
X78149600Y45996600D02*
X78599600Y46446600D01*
X78149600Y41396600D02*
X78599600Y40946600D01*
X81199600Y46446600D02*
X78599600Y46446600D01*
X81199600Y40946600D02*
X78599600Y40946600D01*
X81649600Y45996600D02*
X81199600Y46446600D01*
X81649600Y41396600D02*
X81199600Y40946600D01*
X82649600Y42696600D02*
X82649600Y44696600D01*
%TO.C,C1*%
X96501248Y48205000D02*
X97023752Y48205000D01*
X96501248Y46735000D02*
X97023752Y46735000D01*
%TO.C,C2*%
X96521248Y40605000D02*
X97043752Y40605000D01*
X96521248Y39135000D02*
X97043752Y39135000D01*
%TO.C,R12*%
X16325000Y41472936D02*
X16325000Y41927064D01*
X17795000Y41472936D02*
X17795000Y41927064D01*
%TO.C,C4*%
X78303752Y48225000D02*
X77781248Y48225000D01*
X78303752Y46755000D02*
X77781248Y46755000D01*
%TO.C,R1*%
X92787936Y48175000D02*
X93242064Y48175000D01*
X92787936Y46705000D02*
X93242064Y46705000D01*
%TO.C,R10*%
X1175000Y41502936D02*
X1175000Y41957064D01*
X2645000Y41502936D02*
X2645000Y41957064D01*
%TO.C,SW2*%
X84668000Y48284600D02*
X84668000Y50284600D01*
X85668000Y51584600D02*
X86118000Y52034600D01*
X85668000Y46984600D02*
X86118000Y46534600D01*
X88718000Y52034600D02*
X86118000Y52034600D01*
X88718000Y46534600D02*
X86118000Y46534600D01*
X89168000Y51584600D02*
X88718000Y52034600D01*
X89168000Y46984600D02*
X88718000Y46534600D01*
X90168000Y48284600D02*
X90168000Y50284600D01*
%TO.C,SW6*%
X10478800Y44914600D02*
X10478800Y42314600D01*
X10928800Y45364600D02*
X10478800Y44914600D01*
X10928800Y41864600D02*
X10478800Y42314600D01*
X14228800Y46364600D02*
X12228800Y46364600D01*
X14228800Y40864600D02*
X12228800Y40864600D01*
X15528800Y45364600D02*
X15978800Y44914600D01*
X15528800Y41864600D02*
X15978800Y42314600D01*
X15978800Y44914600D02*
X15978800Y42314600D01*
%TO.C,SW5*%
X2969600Y42314600D02*
X2969600Y44914600D01*
X3419600Y45364600D02*
X2969600Y44914600D01*
X3419600Y41864600D02*
X2969600Y42314600D01*
X4719600Y46364600D02*
X6719600Y46364600D01*
X4719600Y40864600D02*
X6719600Y40864600D01*
X8019600Y45364600D02*
X8469600Y44914600D01*
X8019600Y41864600D02*
X8469600Y42314600D01*
X8469600Y42314600D02*
X8469600Y44914600D01*
%TO.C,C5*%
X1175000Y45226248D02*
X1175000Y45748752D01*
X2645000Y45226248D02*
X2645000Y45748752D01*
%TO.C,C6*%
X16345000Y45211248D02*
X16345000Y45733752D01*
X17815000Y45211248D02*
X17815000Y45733752D01*
%TO.C,R9*%
X2572936Y39635000D02*
X3027064Y39635000D01*
X2572936Y38165000D02*
X3027064Y38165000D01*
%TO.C,R6*%
X82022064Y40645000D02*
X81567936Y40645000D01*
X82022064Y39175000D02*
X81567936Y39175000D01*
%TO.C,R8*%
X82012064Y48185000D02*
X81557936Y48185000D01*
X82012064Y46715000D02*
X81557936Y46715000D01*
%TO.C,SW4*%
X84668000Y39057800D02*
X84668000Y37057800D01*
X85668000Y40357800D02*
X86118000Y40807800D01*
X85668000Y35757800D02*
X86118000Y35307800D01*
X86118000Y40807800D02*
X88718000Y40807800D01*
X86118000Y35307800D02*
X88718000Y35307800D01*
X89168000Y40357800D02*
X88718000Y40807800D01*
X89168000Y35757800D02*
X88718000Y35307800D01*
X90168000Y39057800D02*
X90168000Y37057800D01*
%TO.C,SW3*%
X92166600Y44671200D02*
X92166600Y42671200D01*
X93166600Y45971200D02*
X93616600Y46421200D01*
X93166600Y41371200D02*
X93616600Y40921200D01*
X93616600Y46421200D02*
X96216600Y46421200D01*
X93616600Y40921200D02*
X96216600Y40921200D01*
X96666600Y45971200D02*
X96216600Y46421200D01*
X96666600Y41371200D02*
X96216600Y40921200D01*
X97666600Y44671200D02*
X97666600Y42671200D01*
%TO.C,R5*%
X81970000Y37327064D02*
X81970000Y36872936D01*
X83440000Y37327064D02*
X83440000Y36872936D01*
%TO.C,R4*%
X91390000Y50252936D02*
X91390000Y50707064D01*
X92860000Y50252936D02*
X92860000Y50707064D01*
%TO.C,R13*%
X18865000Y33122936D02*
X18865000Y33577064D01*
X20335000Y33122936D02*
X20335000Y33577064D01*
%TO.C,R2*%
X92807936Y40625000D02*
X93262064Y40625000D01*
X92807936Y39155000D02*
X93262064Y39155000D01*
%TO.C,J6*%
X76020000Y20290000D02*
X77400000Y20290000D01*
X76020000Y18910000D02*
X76020000Y20290000D01*
X76020000Y17640000D02*
X76020000Y9910000D01*
X76020000Y17640000D02*
X78780000Y17640000D01*
X76020000Y9910000D02*
X78780000Y9910000D01*
X78780000Y17640000D02*
X78780000Y9910000D01*
%TO.C,J5*%
X18000000Y3734000D02*
X18000000Y29244000D01*
X20759999Y2464000D02*
X20760000Y1084000D01*
X20760000Y29244000D02*
X18000000Y29244000D01*
X20760000Y3734000D02*
X18000000Y3734000D01*
X20760000Y3734000D02*
X20760000Y29244000D01*
X20760000Y1084000D02*
X19380000Y1084001D01*
%TO.C,C3*%
X78323752Y40635000D02*
X77801248Y40635000D01*
X78323752Y39165000D02*
X77801248Y39165000D01*
%TO.C,R7*%
X81940000Y50032936D02*
X81940000Y50487064D01*
X83410000Y50032936D02*
X83410000Y50487064D01*
%TD*%
%LPC*%
D11*
%TO.C,J1*%
X27940000Y2540000D03*
D12*
X30480000Y2540000D03*
X33020000Y2540000D03*
X35560000Y2540000D03*
X38100000Y2540000D03*
X40640000Y2540000D03*
X43180000Y2540000D03*
X45720000Y2540000D03*
%TD*%
D11*
%TO.C,J3*%
X50800000Y2540000D03*
D12*
X53340000Y2540000D03*
X55880000Y2540000D03*
X58420000Y2540000D03*
X60960000Y2540000D03*
X63500000Y2540000D03*
%TD*%
D11*
%TO.C,J2*%
X18796000Y50800000D03*
D12*
X21336000Y50800000D03*
X23876000Y50800000D03*
X26416000Y50800000D03*
X28956000Y50800000D03*
X31496000Y50800000D03*
X34036000Y50800000D03*
X36576000Y50800000D03*
X39116000Y50800000D03*
X41656000Y50800000D03*
%TD*%
D11*
%TO.C,J4*%
X45720000Y50800000D03*
D12*
X48260000Y50800000D03*
X50800000Y50800000D03*
X53340000Y50800000D03*
X55880000Y50800000D03*
X58420000Y50800000D03*
X60960000Y50800000D03*
X63500000Y50800000D03*
%TD*%
D13*
%TO.C,R11*%
X17150000Y38830000D03*
X15150000Y38830000D03*
%TD*%
D14*
%TO.C,R3*%
X92145000Y38080000D03*
X92145000Y36080000D03*
%TD*%
D15*
%TO.C,SW1*%
X82899600Y41821600D03*
X76899600Y41821600D03*
X82899600Y45571600D03*
X76899600Y45571600D03*
%TD*%
D16*
%TO.C,C1*%
X95725000Y47470000D03*
X97800000Y47470000D03*
%TD*%
%TO.C,C2*%
X95745000Y39870000D03*
X97820000Y39870000D03*
%TD*%
D17*
%TO.C,R12*%
X17060000Y40700000D03*
X17060000Y42700000D03*
%TD*%
D18*
%TO.C,C4*%
X79080000Y47490000D03*
X77005000Y47490000D03*
%TD*%
D19*
%TO.C,REF\u002A\u002A*%
X96680000Y22780000D03*
%TD*%
D20*
%TO.C,R1*%
X92015000Y47440000D03*
X94015000Y47440000D03*
%TD*%
D17*
%TO.C,R10*%
X1910000Y40730000D03*
X1910000Y42730000D03*
%TD*%
D15*
%TO.C,SW2*%
X90418000Y47409600D03*
X84418000Y47409600D03*
X90418000Y51159600D03*
X84418000Y51159600D03*
%TD*%
D21*
%TO.C,SW6*%
X15103800Y46614600D03*
X15103800Y40614600D03*
X11353800Y46614600D03*
X11353800Y40614600D03*
%TD*%
%TO.C,SW5*%
X3844600Y40614600D03*
X3844600Y46614600D03*
X7594600Y40614600D03*
X7594600Y46614600D03*
%TD*%
D22*
%TO.C,C5*%
X1910000Y44450000D03*
X1910000Y46525000D03*
%TD*%
%TO.C,C6*%
X17080000Y44435000D03*
X17080000Y46510000D03*
%TD*%
D20*
%TO.C,R9*%
X1800000Y38900000D03*
X3800000Y38900000D03*
%TD*%
D13*
%TO.C,R6*%
X82795000Y39910000D03*
X80795000Y39910000D03*
%TD*%
%TO.C,R8*%
X82785000Y47450000D03*
X80785000Y47450000D03*
%TD*%
D15*
%TO.C,SW4*%
X84418000Y39932800D03*
X90418000Y39932800D03*
X84418000Y36182800D03*
X90418000Y36182800D03*
%TD*%
%TO.C,SW3*%
X91916600Y45546200D03*
X97916600Y45546200D03*
X91916600Y41796200D03*
X97916600Y41796200D03*
%TD*%
D14*
%TO.C,R5*%
X82705000Y38100000D03*
X82705000Y36100000D03*
%TD*%
D17*
%TO.C,R4*%
X92125000Y49480000D03*
X92125000Y51480000D03*
%TD*%
%TO.C,R13*%
X19600000Y32350000D03*
X19600000Y34350000D03*
%TD*%
D20*
%TO.C,R2*%
X92035000Y39890000D03*
X94035000Y39890000D03*
%TD*%
D11*
%TO.C,J6*%
X77400000Y18910000D03*
D23*
X77400000Y16370000D03*
X77400000Y13830000D03*
X77400000Y11290000D03*
%TD*%
D11*
%TO.C,J5*%
X19380000Y2464000D03*
D23*
X19380000Y5004000D03*
X19380000Y7543999D03*
X19380000Y10084000D03*
X19380000Y12624000D03*
X19380000Y15164000D03*
X19380000Y17704000D03*
X19380000Y20244001D03*
X19380000Y22784000D03*
X19380000Y25324000D03*
X19380000Y27864000D03*
%TD*%
D18*
%TO.C,C3*%
X79100000Y39900000D03*
X77025000Y39900000D03*
%TD*%
D17*
%TO.C,R7*%
X82675000Y49260000D03*
X82675000Y51260000D03*
%TD*%
%LPD*%
M02*
