%TF.GenerationSoftware,KiCad,Pcbnew,9.0.7*%
%TF.CreationDate,2026-04-13T21:23:37+02:00*%
%TF.ProjectId,gameshield-v2,67616d65-7368-4696-956c-642d76322e6b,rev?*%
%TF.SameCoordinates,Original*%
%TF.FileFunction,Copper,L2,Bot*%
%TF.FilePolarity,Positive*%
%FSLAX46Y46*%
G04 Gerber Fmt 4.6, Leading zero omitted, Abs format (unit mm)*
G04 Created by KiCad (PCBNEW 9.0.7) date 2026-04-13 21:23:37*
%MOMM*%
%LPD*%
G01*
G04 APERTURE LIST*
%TA.AperFunction,ComponentPad*%
%ADD10R,1.700000X1.700000*%
%TD*%
%TA.AperFunction,ComponentPad*%
%ADD11O,1.700000X1.700000*%
%TD*%
%TA.AperFunction,ComponentPad*%
%ADD12C,5.000000*%
%TD*%
%TA.AperFunction,ComponentPad*%
%ADD13C,1.700000*%
%TD*%
%TA.AperFunction,ViaPad*%
%ADD14C,0.600000*%
%TD*%
%TA.AperFunction,Conductor*%
%ADD15C,0.400000*%
%TD*%
G04 APERTURE END LIST*
D10*
%TO.P,J1,1,Pin_1*%
%TO.N,unconnected-(J1-Pin_1-Pad1)*%
X27940000Y2540000D03*
D11*
%TO.P,J1,2,Pin_2*%
%TO.N,unconnected-(J1-Pin_2-Pad2)*%
X30480000Y2540000D03*
%TO.P,J1,3,Pin_3*%
%TO.N,unconnected-(J1-Pin_3-Pad3)*%
X33020000Y2540000D03*
%TO.P,J1,4,Pin_4*%
%TO.N,+3V3*%
X35560000Y2540000D03*
%TO.P,J1,5,Pin_5*%
%TO.N,unconnected-(J1-Pin_5-Pad5)*%
X38100000Y2540000D03*
%TO.P,J1,6,Pin_6*%
%TO.N,GND*%
X40640000Y2540000D03*
%TO.P,J1,7,Pin_7*%
X43180000Y2540000D03*
%TO.P,J1,8,Pin_8*%
%TO.N,unconnected-(J1-Pin_8-Pad8)*%
X45720000Y2540000D03*
%TD*%
D10*
%TO.P,J3,1,Pin_1*%
%TO.N,dn*%
X50800000Y2540000D03*
D11*
%TO.P,J3,2,Pin_2*%
%TO.N,lf*%
X53340000Y2540000D03*
%TO.P,J3,3,Pin_3*%
%TO.N,ri*%
X55880000Y2540000D03*
%TO.P,J3,4,Pin_4*%
%TO.N,up*%
X58420000Y2540000D03*
%TO.P,J3,5,Pin_5*%
%TO.N,B*%
X60960000Y2540000D03*
%TO.P,J3,6,Pin_6*%
%TO.N,A*%
X63500000Y2540000D03*
%TD*%
D10*
%TO.P,J2,1,Pin_1*%
%TO.N,A*%
X18796000Y50800000D03*
D11*
%TO.P,J2,2,Pin_2*%
%TO.N,B*%
X21336000Y50800000D03*
%TO.P,J2,3,Pin_3*%
%TO.N,/AREF*%
X23876000Y50800000D03*
%TO.P,J2,4,Pin_4*%
%TO.N,GND*%
X26416000Y50800000D03*
%TO.P,J2,5,Pin_5*%
%TO.N,sck*%
X28956000Y50800000D03*
%TO.P,J2,6,Pin_6*%
%TO.N,MISO*%
X31496000Y50800000D03*
%TO.P,J2,7,Pin_7*%
%TO.N,mosi*%
X34036000Y50800000D03*
%TO.P,J2,8,Pin_8*%
%TO.N,dc*%
X36576000Y50800000D03*
%TO.P,J2,9,Pin_9*%
%TO.N,rst*%
X39116000Y50800000D03*
%TO.P,J2,10,Pin_10*%
%TO.N,ss*%
X41656000Y50800000D03*
%TD*%
D10*
%TO.P,J4,1,Pin_1*%
%TO.N,/7*%
X45720000Y50800000D03*
D11*
%TO.P,J4,2,Pin_2*%
%TO.N,/\u002A6*%
X48260000Y50800000D03*
%TO.P,J4,3,Pin_3*%
%TO.N,/\u002A5*%
X50800000Y50800000D03*
%TO.P,J4,4,Pin_4*%
%TO.N,/4*%
X53340000Y50800000D03*
%TO.P,J4,5,Pin_5*%
%TO.N,/\u002A3*%
X55880000Y50800000D03*
%TO.P,J4,6,Pin_6*%
%TO.N,/2*%
X58420000Y50800000D03*
%TO.P,J4,7,Pin_7*%
%TO.N,/TX{slash}1*%
X60960000Y50800000D03*
%TO.P,J4,8,Pin_8*%
%TO.N,/RX{slash}0*%
X63500000Y50800000D03*
%TD*%
D12*
%TO.P,REF\u002A\u002A,0*%
%TO.N,N/C*%
X96680000Y22780000D03*
%TD*%
D10*
%TO.P,J6,1,Pin_1*%
%TO.N,unconnected-(J6-Pin_1-Pad1)*%
X77400000Y18910000D03*
D13*
%TO.P,J6,2,Pin_2*%
%TO.N,unconnected-(J6-Pin_2-Pad2)*%
X77400000Y16370000D03*
%TO.P,J6,3,Pin_3*%
%TO.N,unconnected-(J6-Pin_3-Pad3)*%
X77400000Y13830000D03*
%TO.P,J6,4,Pin_4*%
%TO.N,unconnected-(J6-Pin_4-Pad4)*%
X77400000Y11290000D03*
%TD*%
D10*
%TO.P,J5,1,Pin_1*%
%TO.N,+3V3*%
X19380000Y2464000D03*
D13*
%TO.P,J5,2,Pin_2*%
%TO.N,GND*%
X19380000Y5004000D03*
%TO.P,J5,3,Pin_3*%
X19380000Y7543999D03*
%TO.P,J5,4,Pin_4*%
%TO.N,unconnected-(J5-Pin_4-Pad4)*%
X19380000Y10084000D03*
%TO.P,J5,5,Pin_5*%
%TO.N,unconnected-(J5-Pin_5-Pad5)*%
X19380000Y12624000D03*
%TO.P,J5,6,Pin_6*%
%TO.N,unconnected-(J5-Pin_6-Pad6)*%
X19380000Y15164000D03*
%TO.P,J5,7,Pin_7*%
%TO.N,sck*%
X19380000Y17704000D03*
%TO.P,J5,8,Pin_8*%
%TO.N,mosi*%
X19380000Y20244001D03*
%TO.P,J5,9,Pin_9*%
%TO.N,dc*%
X19380000Y22784000D03*
%TO.P,J5,10,Pin_10*%
%TO.N,rst*%
X19380000Y25324000D03*
%TO.P,J5,11,Pin_11*%
%TO.N,ss*%
X19380000Y27864000D03*
%TD*%
D14*
%TO.N,*%
X30600000Y70360000D03*
%TO.N,GND*%
X24050000Y38950000D03*
X2190000Y51620000D03*
X76905000Y36670000D03*
X60274000Y9576000D03*
X79250000Y28600000D03*
X37850000Y44900000D03*
X35200000Y39900000D03*
X35100000Y46500000D03*
X54780000Y12670000D03*
X85720000Y20290000D03*
X38400000Y19500000D03*
X40800000Y47000000D03*
X14700000Y36450000D03*
X94815000Y41796200D03*
X38700000Y41900000D03*
X31150000Y38300000D03*
X23200000Y19300000D03*
X13200000Y43650000D03*
X98120000Y17060000D03*
X2550000Y36200000D03*
X98090000Y2150000D03*
X35250000Y42400000D03*
X17650000Y48380000D03*
X12250000Y52050000D03*
X69500000Y19450000D03*
X31250000Y35950000D03*
X81690000Y1620000D03*
X67530000Y1510000D03*
X18350000Y37050000D03*
X57830000Y30220000D03*
X35850000Y36550000D03*
X87395000Y36182800D03*
X47950000Y12600000D03*
X94915000Y43560000D03*
X79845000Y45571600D03*
X68650000Y31850000D03*
X95945000Y50520000D03*
X28550000Y24750000D03*
X87955000Y41680000D03*
X51880000Y12530000D03*
X87405000Y37980000D03*
X87375000Y49350000D03*
X18670000Y46520000D03*
X67470000Y52130000D03*
X24898024Y26751976D03*
X25000000Y29650000D03*
X5850000Y43650000D03*
X88645000Y44770000D03*
X1400000Y47890000D03*
X24800000Y24300000D03*
X78365000Y32660000D03*
X59500000Y22300000D03*
X57480000Y12624000D03*
X24150000Y31400000D03*
X72440000Y14350000D03*
X32650000Y31000000D03*
X31050000Y43900000D03*
X11353800Y43660000D03*
X79415000Y49600000D03*
X23952000Y1956000D03*
X61720000Y47050000D03*
X76835000Y51940000D03*
X7594600Y43740000D03*
X28650000Y8200000D03*
X31000000Y33200000D03*
X94225000Y30160000D03*
X87465000Y51159600D03*
%TO.N,mosi*%
X33700000Y34500000D03*
%TO.N,sck*%
X28960000Y27140000D03*
%TO.N,+3V3*%
X74295000Y43950000D03*
X81535000Y36110000D03*
%TO.N,dc*%
X36400000Y39804000D03*
%TO.N,rst*%
X39100000Y45000000D03*
%TD*%
D15*
%TO.N,mosi*%
X33700000Y34500000D02*
X33700000Y50464000D01*
X33700000Y50464000D02*
X34036000Y50800000D01*
%TO.N,sck*%
X28960000Y28372000D02*
X28956000Y28376000D01*
X28956000Y28376000D02*
X28956000Y50800000D01*
X28960000Y27140000D02*
X28960000Y28372000D01*
%TO.N,+3V3*%
X81535000Y36870000D02*
X81535000Y36110000D01*
X81535000Y36110000D02*
X81585000Y36160000D01*
X74455000Y43950000D02*
X81535000Y36870000D01*
X74295000Y43950000D02*
X74455000Y43950000D01*
%TO.N,dc*%
X36576000Y39980000D02*
X36576000Y50800000D01*
X36400000Y39804000D02*
X36576000Y39980000D01*
%TO.N,rst*%
X39100000Y45850000D02*
X39116000Y45866000D01*
X39100000Y45000000D02*
X39100000Y45850000D01*
X39116000Y45866000D02*
X39116000Y50800000D01*
%TD*%
%TA.AperFunction,Conductor*%
%TO.N,GND*%
G36*
X42714075Y2732993D02*
G01*
X42680000Y2605826D01*
X42680000Y2474174D01*
X42714075Y2347007D01*
X42746988Y2290000D01*
X41073012Y2290000D01*
X41105925Y2347007D01*
X41140000Y2474174D01*
X41140000Y2605826D01*
X41105925Y2732993D01*
X41073012Y2790000D01*
X42746988Y2790000D01*
X42714075Y2732993D01*
G37*
%TD.AperFunction*%
%TA.AperFunction,Conductor*%
G36*
X99867534Y53420210D02*
G01*
X99913292Y53367409D01*
X99924500Y53315891D01*
X99924500Y23062421D01*
X99904815Y22995382D01*
X99852011Y22949627D01*
X99782853Y22939683D01*
X99719297Y22968708D01*
X99681523Y23027486D01*
X99677280Y23048537D01*
X99650667Y23284724D01*
X99650666Y23284736D01*
X99575475Y23614172D01*
X99556288Y23669004D01*
X99463873Y23933111D01*
X99463871Y23933117D01*
X99317258Y24237561D01*
X99137481Y24523675D01*
X98926799Y24787862D01*
X98687862Y25026799D01*
X98423675Y25237481D01*
X98137561Y25417258D01*
X98137558Y25417260D01*
X97833124Y25563868D01*
X97833110Y25563874D01*
X97514183Y25675472D01*
X97514171Y25675476D01*
X97184739Y25750666D01*
X97184723Y25750668D01*
X96848958Y25788500D01*
X96848954Y25788500D01*
X96511046Y25788500D01*
X96511041Y25788500D01*
X96175276Y25750668D01*
X96175260Y25750666D01*
X95845828Y25675476D01*
X95845816Y25675472D01*
X95526889Y25563874D01*
X95526875Y25563868D01*
X95222441Y25417260D01*
X94936326Y25237482D01*
X94672138Y25026800D01*
X94433200Y24787862D01*
X94222518Y24523674D01*
X94042740Y24237559D01*
X93896132Y23933125D01*
X93896126Y23933111D01*
X93784528Y23614184D01*
X93784524Y23614172D01*
X93709334Y23284740D01*
X93709332Y23284724D01*
X93671500Y22948959D01*
X93671500Y22611042D01*
X93709332Y22275277D01*
X93709334Y22275261D01*
X93784524Y21945829D01*
X93784528Y21945817D01*
X93896126Y21626890D01*
X93896132Y21626876D01*
X94042740Y21322442D01*
X94042742Y21322439D01*
X94222519Y21036325D01*
X94433201Y20772138D01*
X94672138Y20533201D01*
X94936325Y20322519D01*
X95222439Y20142742D01*
X95526883Y19996129D01*
X95526889Y19996127D01*
X95845816Y19884529D01*
X95845828Y19884525D01*
X96175264Y19809334D01*
X96511042Y19771501D01*
X96511043Y19771500D01*
X96511046Y19771500D01*
X96848957Y19771500D01*
X96848957Y19771501D01*
X97184736Y19809334D01*
X97514172Y19884525D01*
X97833117Y19996129D01*
X98137561Y20142742D01*
X98423675Y20322519D01*
X98687862Y20533201D01*
X98926799Y20772138D01*
X99137481Y21036325D01*
X99317258Y21322439D01*
X99463871Y21626883D01*
X99575475Y21945828D01*
X99650666Y22275264D01*
X99672144Y22465884D01*
X99677280Y22511464D01*
X99704347Y22575878D01*
X99761941Y22615433D01*
X99831778Y22617570D01*
X99891685Y22581612D01*
X99922640Y22518974D01*
X99924500Y22497580D01*
X99924500Y199500D01*
X99904815Y132461D01*
X99852011Y86706D01*
X99800500Y75500D01*
X17299466Y75500D01*
X17232427Y95185D01*
X17186672Y147989D01*
X17175466Y199479D01*
X17174923Y3365938D01*
X17174623Y5115098D01*
X17174390Y6475967D01*
X17174188Y7655097D01*
X17170705Y27970916D01*
X18021500Y27970916D01*
X18021500Y27757085D01*
X18054951Y27545883D01*
X18121026Y27342520D01*
X18121027Y27342517D01*
X18183642Y27219630D01*
X18218106Y27151991D01*
X18343794Y26978996D01*
X18494996Y26827794D01*
X18667991Y26702106D01*
X18671873Y26699727D01*
X18718748Y26647914D01*
X18730169Y26578984D01*
X18702512Y26514822D01*
X18671873Y26488273D01*
X18667991Y26485895D01*
X18494993Y26360204D01*
X18343796Y26209007D01*
X18218106Y26036010D01*
X18121027Y25845484D01*
X18121026Y25845481D01*
X18054951Y25642118D01*
X18021500Y25430916D01*
X18021500Y25217085D01*
X18054951Y25005883D01*
X18121026Y24802520D01*
X18121027Y24802517D01*
X18218106Y24611991D01*
X18343794Y24438996D01*
X18494996Y24287794D01*
X18564139Y24237559D01*
X18667991Y24162106D01*
X18671873Y24159727D01*
X18718748Y24107914D01*
X18730169Y24038984D01*
X18702512Y23974822D01*
X18671873Y23948273D01*
X18667991Y23945895D01*
X18494993Y23820204D01*
X18343796Y23669007D01*
X18218106Y23496010D01*
X18121027Y23305484D01*
X18121026Y23305481D01*
X18054951Y23102118D01*
X18038046Y22995382D01*
X18021500Y22890916D01*
X18021500Y22677084D01*
X18031960Y22611042D01*
X18054951Y22465883D01*
X18121026Y22262520D01*
X18121027Y22262517D01*
X18218106Y22071991D01*
X18343794Y21898996D01*
X18494996Y21747794D01*
X18636914Y21644685D01*
X18667988Y21622108D01*
X18671869Y21619730D01*
X18718745Y21567919D01*
X18730169Y21498990D01*
X18702513Y21434826D01*
X18671878Y21408278D01*
X18667997Y21405900D01*
X18494993Y21280205D01*
X18343796Y21129008D01*
X18218106Y20956011D01*
X18121027Y20765485D01*
X18121026Y20765482D01*
X18054951Y20562119D01*
X18021500Y20350917D01*
X18021500Y20137086D01*
X18054951Y19925884D01*
X18121026Y19722521D01*
X18121027Y19722518D01*
X18218106Y19531992D01*
X18343794Y19358997D01*
X18494996Y19207795D01*
X18667988Y19082109D01*
X18667994Y19082105D01*
X18671868Y19079731D01*
X18718746Y19027921D01*
X18730171Y18958992D01*
X18702517Y18894828D01*
X18671878Y18868277D01*
X18667998Y18865900D01*
X18494993Y18740204D01*
X18343796Y18589007D01*
X18218106Y18416010D01*
X18121027Y18225484D01*
X18121026Y18225481D01*
X18054951Y18022118D01*
X18021500Y17810916D01*
X18021500Y17597085D01*
X18054951Y17385883D01*
X18121026Y17182520D01*
X18121027Y17182517D01*
X18172239Y17082009D01*
X18218106Y16991991D01*
X18343794Y16818996D01*
X18494996Y16667794D01*
X18667991Y16542106D01*
X18671873Y16539727D01*
X18718748Y16487914D01*
X18730169Y16418984D01*
X18702512Y16354822D01*
X18671873Y16328273D01*
X18667991Y16325895D01*
X18494993Y16200204D01*
X18343796Y16049007D01*
X18218106Y15876010D01*
X18121027Y15685484D01*
X18121026Y15685481D01*
X18054951Y15482118D01*
X18021500Y15270916D01*
X18021500Y15057085D01*
X18054951Y14845883D01*
X18121026Y14642520D01*
X18121027Y14642517D01*
X18172239Y14542009D01*
X18218106Y14451991D01*
X18343794Y14278996D01*
X18494996Y14127794D01*
X18667991Y14002106D01*
X18671873Y13999727D01*
X18718748Y13947914D01*
X18730169Y13878984D01*
X18702512Y13814822D01*
X18671873Y13788273D01*
X18667991Y13785895D01*
X18494993Y13660204D01*
X18343796Y13509007D01*
X18218106Y13336010D01*
X18121027Y13145484D01*
X18121026Y13145481D01*
X18054951Y12942118D01*
X18021500Y12730916D01*
X18021500Y12517085D01*
X18054951Y12305883D01*
X18121026Y12102520D01*
X18121027Y12102517D01*
X18172239Y12002009D01*
X18218106Y11911991D01*
X18343794Y11738996D01*
X18494996Y11587794D01*
X18667991Y11462106D01*
X18671873Y11459727D01*
X18718748Y11407914D01*
X18730169Y11338984D01*
X18702512Y11274822D01*
X18671873Y11248273D01*
X18667991Y11245895D01*
X18494993Y11120204D01*
X18343796Y10969007D01*
X18218106Y10796010D01*
X18121027Y10605484D01*
X18121026Y10605481D01*
X18054951Y10402118D01*
X18021500Y10190916D01*
X18021500Y9977085D01*
X18054951Y9765883D01*
X18121026Y9562520D01*
X18121027Y9562517D01*
X18218106Y9371991D01*
X18343794Y9198996D01*
X18494996Y9047794D01*
X18624742Y8953528D01*
X18667992Y8922105D01*
X18672685Y8919714D01*
X18723481Y8871740D01*
X18740277Y8803919D01*
X18717740Y8737784D01*
X18676204Y8701791D01*
X18676590Y8701161D01*
X18672793Y8698835D01*
X18672693Y8698748D01*
X18672446Y8698623D01*
X18672440Y8698619D01*
X18618282Y8659272D01*
X18618282Y8659271D01*
X19250591Y8026962D01*
X19187007Y8009924D01*
X19072993Y7944098D01*
X18979901Y7851006D01*
X18914075Y7736992D01*
X18897037Y7673408D01*
X18264728Y8305717D01*
X18264727Y8305717D01*
X18225380Y8251560D01*
X18128904Y8062217D01*
X18063242Y7860130D01*
X18063242Y7860127D01*
X18030000Y7650246D01*
X18030000Y7437753D01*
X18063242Y7227872D01*
X18063242Y7227869D01*
X18128904Y7025782D01*
X18225375Y6836449D01*
X18264728Y6782283D01*
X18897037Y7414591D01*
X18914075Y7351006D01*
X18979901Y7236992D01*
X19072993Y7143900D01*
X19187007Y7078074D01*
X19250590Y7061037D01*
X18649970Y6460418D01*
X18728710Y6343105D01*
X18729919Y6339272D01*
X18732841Y6336512D01*
X18740341Y6306226D01*
X18749726Y6276471D01*
X18748670Y6272594D01*
X18749637Y6268692D01*
X18739574Y6239163D01*
X18731382Y6209052D01*
X18728397Y6206360D01*
X18727101Y6202556D01*
X18682053Y6163519D01*
X18672446Y6158624D01*
X18672440Y6158620D01*
X18618282Y6119273D01*
X18618282Y6119272D01*
X19250591Y5486963D01*
X19187007Y5469925D01*
X19072993Y5404099D01*
X18979901Y5311007D01*
X18914075Y5196993D01*
X18897037Y5133409D01*
X18264728Y5765718D01*
X18264727Y5765718D01*
X18225380Y5711561D01*
X18128904Y5522218D01*
X18063242Y5320131D01*
X18063242Y5320128D01*
X18030000Y5110247D01*
X18030000Y4897754D01*
X18063242Y4687873D01*
X18063242Y4687870D01*
X18128904Y4485783D01*
X18225375Y4296450D01*
X18264728Y4242284D01*
X18897037Y4874592D01*
X18914075Y4811007D01*
X18979901Y4696993D01*
X19072993Y4603901D01*
X19187007Y4538075D01*
X19250591Y4521038D01*
X18588371Y3858819D01*
X18527048Y3825334D01*
X18500690Y3822500D01*
X18481345Y3822500D01*
X18420797Y3815989D01*
X18420795Y3815989D01*
X18283795Y3764889D01*
X18166739Y3677261D01*
X18079111Y3560205D01*
X18028011Y3423205D01*
X18028011Y3423203D01*
X18021500Y3362655D01*
X18021500Y1565346D01*
X18028011Y1504798D01*
X18028011Y1504796D01*
X18079111Y1367796D01*
X18166739Y1250739D01*
X18283796Y1163111D01*
X18420799Y1112011D01*
X18448050Y1109082D01*
X18481345Y1105501D01*
X18481362Y1105500D01*
X20278638Y1105500D01*
X20278654Y1105501D01*
X20305692Y1108409D01*
X20339201Y1112011D01*
X20476204Y1163111D01*
X20593261Y1250739D01*
X20680889Y1367796D01*
X20731989Y1504799D01*
X20738421Y1564625D01*
X20738499Y1565346D01*
X20738500Y1565363D01*
X20738500Y3362638D01*
X20738498Y3362657D01*
X20732391Y3419460D01*
X20731989Y3423201D01*
X20731315Y3425007D01*
X20726225Y3438655D01*
X26581500Y3438655D01*
X26581500Y1641346D01*
X26588011Y1580798D01*
X26588011Y1580796D01*
X26639111Y1443796D01*
X26726739Y1326739D01*
X26843796Y1239111D01*
X26980799Y1188011D01*
X27008050Y1185082D01*
X27041345Y1181501D01*
X27041362Y1181500D01*
X28838638Y1181500D01*
X28838654Y1181501D01*
X28865692Y1184409D01*
X28899201Y1188011D01*
X29036204Y1239111D01*
X29153261Y1326739D01*
X29240889Y1443796D01*
X29285957Y1564629D01*
X29327827Y1620558D01*
X29393291Y1644975D01*
X29461564Y1630123D01*
X29489818Y1608972D01*
X29594996Y1503794D01*
X29767991Y1378106D01*
X29861438Y1330493D01*
X29958516Y1281028D01*
X29958519Y1281027D01*
X30051735Y1250740D01*
X30161884Y1214951D01*
X30373084Y1181500D01*
X30373085Y1181500D01*
X30586915Y1181500D01*
X30586916Y1181500D01*
X30798116Y1214951D01*
X31001483Y1281028D01*
X31192009Y1378106D01*
X31365004Y1503794D01*
X31516206Y1654996D01*
X31641894Y1827991D01*
X31641896Y1827996D01*
X31644270Y1831868D01*
X31696080Y1878746D01*
X31765009Y1890171D01*
X31829173Y1862517D01*
X31855730Y1831868D01*
X31858103Y1827995D01*
X31858105Y1827992D01*
X31858106Y1827991D01*
X31983794Y1654996D01*
X32134996Y1503794D01*
X32307991Y1378106D01*
X32401438Y1330493D01*
X32498516Y1281028D01*
X32498519Y1281027D01*
X32591735Y1250740D01*
X32701884Y1214951D01*
X32913084Y1181500D01*
X32913085Y1181500D01*
X33126915Y1181500D01*
X33126916Y1181500D01*
X33338116Y1214951D01*
X33541483Y1281028D01*
X33732009Y1378106D01*
X33905004Y1503794D01*
X34056206Y1654996D01*
X34181894Y1827991D01*
X34181896Y1827996D01*
X34184270Y1831868D01*
X34236080Y1878746D01*
X34305009Y1890171D01*
X34369173Y1862517D01*
X34395730Y1831868D01*
X34398103Y1827995D01*
X34398105Y1827992D01*
X34398106Y1827991D01*
X34523794Y1654996D01*
X34674996Y1503794D01*
X34847991Y1378106D01*
X34941438Y1330493D01*
X35038516Y1281028D01*
X35038519Y1281027D01*
X35131735Y1250740D01*
X35241884Y1214951D01*
X35453084Y1181500D01*
X35453085Y1181500D01*
X35666915Y1181500D01*
X35666916Y1181500D01*
X35878116Y1214951D01*
X36081483Y1281028D01*
X36272009Y1378106D01*
X36445004Y1503794D01*
X36596206Y1654996D01*
X36721894Y1827991D01*
X36721896Y1827996D01*
X36724270Y1831868D01*
X36776080Y1878746D01*
X36845009Y1890171D01*
X36909173Y1862517D01*
X36935730Y1831868D01*
X36938103Y1827995D01*
X36938105Y1827992D01*
X36938106Y1827991D01*
X37063794Y1654996D01*
X37214996Y1503794D01*
X37387991Y1378106D01*
X37481438Y1330493D01*
X37578516Y1281028D01*
X37578519Y1281027D01*
X37671735Y1250740D01*
X37781884Y1214951D01*
X37993084Y1181500D01*
X37993085Y1181500D01*
X38206915Y1181500D01*
X38206916Y1181500D01*
X38418116Y1214951D01*
X38621483Y1281028D01*
X38812009Y1378106D01*
X38985004Y1503794D01*
X39136206Y1654996D01*
X39261894Y1827991D01*
X39264283Y1832681D01*
X39312254Y1883478D01*
X39380074Y1900276D01*
X39446210Y1877742D01*
X39482201Y1836212D01*
X39482832Y1836598D01*
X39485164Y1832793D01*
X39485251Y1832692D01*
X39485376Y1832446D01*
X39610272Y1660541D01*
X39610276Y1660536D01*
X39760535Y1510277D01*
X39760540Y1510273D01*
X39932442Y1385380D01*
X40121782Y1288905D01*
X40323871Y1223243D01*
X40390000Y1212769D01*
X40390000Y2106988D01*
X40447007Y2074075D01*
X40574174Y2040000D01*
X40705826Y2040000D01*
X40832993Y2074075D01*
X40890000Y2106988D01*
X40890000Y1212770D01*
X40956126Y1223243D01*
X40956129Y1223243D01*
X41158217Y1288905D01*
X41347557Y1385380D01*
X41519459Y1510273D01*
X41519464Y1510277D01*
X41669723Y1660536D01*
X41669727Y1660541D01*
X41794620Y1832442D01*
X41799514Y1842046D01*
X41847488Y1892843D01*
X41915308Y1909639D01*
X41981444Y1887103D01*
X42020486Y1842046D01*
X42025379Y1832442D01*
X42150272Y1660541D01*
X42150276Y1660536D01*
X42300535Y1510277D01*
X42300540Y1510273D01*
X42472442Y1385380D01*
X42661782Y1288905D01*
X42863871Y1223243D01*
X42930000Y1212769D01*
X42930000Y2106988D01*
X42987007Y2074075D01*
X43114174Y2040000D01*
X43245826Y2040000D01*
X43372993Y2074075D01*
X43430000Y2106988D01*
X43430000Y1212770D01*
X43496126Y1223243D01*
X43496129Y1223243D01*
X43698217Y1288905D01*
X43887557Y1385380D01*
X44059459Y1510273D01*
X44059464Y1510277D01*
X44209723Y1660536D01*
X44209727Y1660541D01*
X44334619Y1832440D01*
X44334738Y1832673D01*
X44334808Y1832748D01*
X44337168Y1836598D01*
X44337976Y1836103D01*
X44382707Y1883474D01*
X44450526Y1900277D01*
X44516663Y1877746D01*
X44555712Y1832689D01*
X44558105Y1827992D01*
X44600002Y1770326D01*
X44683794Y1654996D01*
X44834996Y1503794D01*
X45007991Y1378106D01*
X45101438Y1330493D01*
X45198516Y1281028D01*
X45198519Y1281027D01*
X45291735Y1250740D01*
X45401884Y1214951D01*
X45613084Y1181500D01*
X45613085Y1181500D01*
X45826915Y1181500D01*
X45826916Y1181500D01*
X46038116Y1214951D01*
X46241483Y1281028D01*
X46432009Y1378106D01*
X46605004Y1503794D01*
X46756206Y1654996D01*
X46881894Y1827991D01*
X46978972Y2018517D01*
X47045049Y2221884D01*
X47078500Y2433084D01*
X47078500Y2646916D01*
X47045049Y2858116D01*
X46978972Y3061483D01*
X46978972Y3061484D01*
X46923495Y3170362D01*
X46881894Y3252009D01*
X46864663Y3275725D01*
X46796844Y3369071D01*
X46796842Y3369073D01*
X46756206Y3425004D01*
X46742555Y3438655D01*
X49441500Y3438655D01*
X49441500Y1641346D01*
X49448011Y1580798D01*
X49448011Y1580796D01*
X49499111Y1443796D01*
X49586739Y1326739D01*
X49703796Y1239111D01*
X49840799Y1188011D01*
X49868050Y1185082D01*
X49901345Y1181501D01*
X49901362Y1181500D01*
X51698638Y1181500D01*
X51698654Y1181501D01*
X51725692Y1184409D01*
X51759201Y1188011D01*
X51896204Y1239111D01*
X52013261Y1326739D01*
X52100889Y1443796D01*
X52145957Y1564629D01*
X52187827Y1620558D01*
X52253291Y1644975D01*
X52321564Y1630123D01*
X52349818Y1608972D01*
X52454996Y1503794D01*
X52627991Y1378106D01*
X52721438Y1330493D01*
X52818516Y1281028D01*
X52818519Y1281027D01*
X52911735Y1250740D01*
X53021884Y1214951D01*
X53233084Y1181500D01*
X53233085Y1181500D01*
X53446915Y1181500D01*
X53446916Y1181500D01*
X53658116Y1214951D01*
X53861483Y1281028D01*
X54052009Y1378106D01*
X54225004Y1503794D01*
X54376206Y1654996D01*
X54501894Y1827991D01*
X54501896Y1827996D01*
X54504270Y1831868D01*
X54556080Y1878746D01*
X54625009Y1890171D01*
X54689173Y1862517D01*
X54715730Y1831868D01*
X54718103Y1827995D01*
X54718105Y1827992D01*
X54718106Y1827991D01*
X54843794Y1654996D01*
X54994996Y1503794D01*
X55167991Y1378106D01*
X55261438Y1330493D01*
X55358516Y1281028D01*
X55358519Y1281027D01*
X55451735Y1250740D01*
X55561884Y1214951D01*
X55773084Y1181500D01*
X55773085Y1181500D01*
X55986915Y1181500D01*
X55986916Y1181500D01*
X56198116Y1214951D01*
X56401483Y1281028D01*
X56592009Y1378106D01*
X56765004Y1503794D01*
X56916206Y1654996D01*
X57041894Y1827991D01*
X57041896Y1827996D01*
X57044270Y1831868D01*
X57096080Y1878746D01*
X57165009Y1890171D01*
X57229173Y1862517D01*
X57255730Y1831868D01*
X57258103Y1827995D01*
X57258105Y1827992D01*
X57258106Y1827991D01*
X57383794Y1654996D01*
X57534996Y1503794D01*
X57707991Y1378106D01*
X57801438Y1330493D01*
X57898516Y1281028D01*
X57898519Y1281027D01*
X57991735Y1250740D01*
X58101884Y1214951D01*
X58313084Y1181500D01*
X58313085Y1181500D01*
X58526915Y1181500D01*
X58526916Y1181500D01*
X58738116Y1214951D01*
X58941483Y1281028D01*
X59132009Y1378106D01*
X59305004Y1503794D01*
X59456206Y1654996D01*
X59581894Y1827991D01*
X59581896Y1827996D01*
X59584270Y1831868D01*
X59636080Y1878746D01*
X59705009Y1890171D01*
X59769173Y1862517D01*
X59795730Y1831868D01*
X59798103Y1827995D01*
X59798105Y1827992D01*
X59798106Y1827991D01*
X59923794Y1654996D01*
X60074996Y1503794D01*
X60247991Y1378106D01*
X60341438Y1330493D01*
X60438516Y1281028D01*
X60438519Y1281027D01*
X60531735Y1250740D01*
X60641884Y1214951D01*
X60853084Y1181500D01*
X60853085Y1181500D01*
X61066915Y1181500D01*
X61066916Y1181500D01*
X61278116Y1214951D01*
X61481483Y1281028D01*
X61672009Y1378106D01*
X61845004Y1503794D01*
X61996206Y1654996D01*
X62121894Y1827991D01*
X62121896Y1827996D01*
X62124270Y1831868D01*
X62176080Y1878746D01*
X62245009Y1890171D01*
X62309173Y1862517D01*
X62335730Y1831868D01*
X62338103Y1827995D01*
X62338105Y1827992D01*
X62338106Y1827991D01*
X62463794Y1654996D01*
X62614996Y1503794D01*
X62787991Y1378106D01*
X62881438Y1330493D01*
X62978516Y1281028D01*
X62978519Y1281027D01*
X63071735Y1250740D01*
X63181884Y1214951D01*
X63393084Y1181500D01*
X63393085Y1181500D01*
X63606915Y1181500D01*
X63606916Y1181500D01*
X63818116Y1214951D01*
X64021483Y1281028D01*
X64212009Y1378106D01*
X64385004Y1503794D01*
X64536206Y1654996D01*
X64661894Y1827991D01*
X64758972Y2018517D01*
X64825049Y2221884D01*
X64858500Y2433084D01*
X64858500Y2646916D01*
X64825049Y2858116D01*
X64758972Y3061483D01*
X64758972Y3061484D01*
X64703495Y3170362D01*
X64661894Y3252009D01*
X64536206Y3425004D01*
X64385004Y3576206D01*
X64212009Y3701894D01*
X64021483Y3798973D01*
X64021480Y3798974D01*
X63818117Y3865049D01*
X63712516Y3881775D01*
X63606916Y3898500D01*
X63393084Y3898500D01*
X63322684Y3887350D01*
X63181882Y3865049D01*
X62978519Y3798974D01*
X62978516Y3798973D01*
X62787990Y3701894D01*
X62614993Y3576204D01*
X62463796Y3425007D01*
X62338105Y3252009D01*
X62335727Y3248127D01*
X62283914Y3201252D01*
X62214984Y3189831D01*
X62150822Y3217488D01*
X62124273Y3248127D01*
X62121894Y3252009D01*
X62041505Y3362655D01*
X61996206Y3425004D01*
X61845004Y3576206D01*
X61672009Y3701894D01*
X61481483Y3798973D01*
X61481480Y3798974D01*
X61278117Y3865049D01*
X61172516Y3881775D01*
X61066916Y3898500D01*
X60853084Y3898500D01*
X60782684Y3887350D01*
X60641882Y3865049D01*
X60438519Y3798974D01*
X60438516Y3798973D01*
X60247990Y3701894D01*
X60074993Y3576204D01*
X59923796Y3425007D01*
X59798105Y3252009D01*
X59795727Y3248127D01*
X59743914Y3201252D01*
X59674984Y3189831D01*
X59610822Y3217488D01*
X59584273Y3248127D01*
X59581894Y3252009D01*
X59501505Y3362655D01*
X59456206Y3425004D01*
X59305004Y3576206D01*
X59132009Y3701894D01*
X58941483Y3798973D01*
X58941480Y3798974D01*
X58738117Y3865049D01*
X58632516Y3881775D01*
X58526916Y3898500D01*
X58313084Y3898500D01*
X58242684Y3887350D01*
X58101882Y3865049D01*
X57898519Y3798974D01*
X57898516Y3798973D01*
X57707990Y3701894D01*
X57534993Y3576204D01*
X57383796Y3425007D01*
X57258105Y3252009D01*
X57255727Y3248127D01*
X57203914Y3201252D01*
X57134984Y3189831D01*
X57070822Y3217488D01*
X57044273Y3248127D01*
X57041894Y3252009D01*
X56961505Y3362655D01*
X56916206Y3425004D01*
X56765004Y3576206D01*
X56592009Y3701894D01*
X56401483Y3798973D01*
X56401480Y3798974D01*
X56198117Y3865049D01*
X56092516Y3881775D01*
X55986916Y3898500D01*
X55773084Y3898500D01*
X55702684Y3887350D01*
X55561882Y3865049D01*
X55358519Y3798974D01*
X55358516Y3798973D01*
X55167990Y3701894D01*
X54994993Y3576204D01*
X54843796Y3425007D01*
X54718105Y3252009D01*
X54715727Y3248127D01*
X54663914Y3201252D01*
X54594984Y3189831D01*
X54530822Y3217488D01*
X54504273Y3248127D01*
X54501894Y3252009D01*
X54421505Y3362655D01*
X54376206Y3425004D01*
X54225004Y3576206D01*
X54052009Y3701894D01*
X53861483Y3798973D01*
X53861480Y3798974D01*
X53658117Y3865049D01*
X53552516Y3881775D01*
X53446916Y3898500D01*
X53233084Y3898500D01*
X53162684Y3887350D01*
X53021882Y3865049D01*
X52818519Y3798974D01*
X52818516Y3798973D01*
X52627990Y3701894D01*
X52454997Y3576207D01*
X52349818Y3471028D01*
X52288495Y3437544D01*
X52218803Y3442528D01*
X52162870Y3484400D01*
X52145958Y3515371D01*
X52100889Y3636204D01*
X52013261Y3753261D01*
X51896204Y3840889D01*
X51892729Y3842185D01*
X51759203Y3891989D01*
X51698654Y3898500D01*
X51698638Y3898500D01*
X49901362Y3898500D01*
X49901345Y3898500D01*
X49840797Y3891989D01*
X49840795Y3891989D01*
X49703795Y3840889D01*
X49586739Y3753261D01*
X49499111Y3636205D01*
X49448011Y3499205D01*
X49448011Y3499203D01*
X49441500Y3438655D01*
X46742555Y3438655D01*
X46605004Y3576206D01*
X46432009Y3701894D01*
X46241483Y3798973D01*
X46241480Y3798974D01*
X46038117Y3865049D01*
X45932516Y3881775D01*
X45826916Y3898500D01*
X45613084Y3898500D01*
X45542684Y3887350D01*
X45401882Y3865049D01*
X45198519Y3798974D01*
X45198516Y3798973D01*
X45007990Y3701894D01*
X44834993Y3576204D01*
X44683796Y3425007D01*
X44558103Y3252006D01*
X44555709Y3247307D01*
X44507731Y3196515D01*
X44439908Y3179725D01*
X44373775Y3202268D01*
X44337800Y3243790D01*
X44337168Y3243402D01*
X44334829Y3247219D01*
X44334743Y3247318D01*
X44334620Y3247559D01*
X44209727Y3419460D01*
X44209723Y3419465D01*
X44059464Y3569724D01*
X44059459Y3569728D01*
X43887557Y3694621D01*
X43698215Y3791097D01*
X43496124Y3856759D01*
X43430000Y3867232D01*
X43430000Y2973012D01*
X43372993Y3005925D01*
X43245826Y3040000D01*
X43114174Y3040000D01*
X42987007Y3005925D01*
X42930000Y2973012D01*
X42930000Y3867232D01*
X42929999Y3867232D01*
X42863875Y3856759D01*
X42661784Y3791097D01*
X42472442Y3694621D01*
X42300540Y3569728D01*
X42300535Y3569724D01*
X42150276Y3419465D01*
X42150272Y3419460D01*
X42025377Y3247556D01*
X42020484Y3237952D01*
X41972509Y3187156D01*
X41904688Y3170362D01*
X41838553Y3192900D01*
X41799516Y3237952D01*
X41794622Y3247556D01*
X41669727Y3419460D01*
X41669723Y3419465D01*
X41519464Y3569724D01*
X41519459Y3569728D01*
X41347557Y3694621D01*
X41158215Y3791097D01*
X40956124Y3856759D01*
X40890000Y3867232D01*
X40890000Y2973012D01*
X40832993Y3005925D01*
X40705826Y3040000D01*
X40574174Y3040000D01*
X40447007Y3005925D01*
X40390000Y2973012D01*
X40390000Y3867232D01*
X40389999Y3867232D01*
X40323875Y3856759D01*
X40121784Y3791097D01*
X39932442Y3694621D01*
X39760540Y3569728D01*
X39760535Y3569724D01*
X39610276Y3419465D01*
X39610272Y3419460D01*
X39485376Y3247554D01*
X39485374Y3247552D01*
X39485246Y3247299D01*
X39485172Y3247221D01*
X39482832Y3243402D01*
X39482029Y3243894D01*
X39437264Y3196511D01*
X39369441Y3179726D01*
X39303309Y3202273D01*
X39264285Y3247317D01*
X39261895Y3252008D01*
X39181505Y3362655D01*
X39136206Y3425004D01*
X38985004Y3576206D01*
X38812009Y3701894D01*
X38621483Y3798973D01*
X38621480Y3798974D01*
X38418117Y3865049D01*
X38312516Y3881775D01*
X38206916Y3898500D01*
X37993084Y3898500D01*
X37922684Y3887350D01*
X37781882Y3865049D01*
X37578519Y3798974D01*
X37578516Y3798973D01*
X37387990Y3701894D01*
X37214993Y3576204D01*
X37063796Y3425007D01*
X36938105Y3252009D01*
X36935727Y3248127D01*
X36883914Y3201252D01*
X36814984Y3189831D01*
X36750822Y3217488D01*
X36724273Y3248127D01*
X36721894Y3252009D01*
X36641505Y3362655D01*
X36596206Y3425004D01*
X36445004Y3576206D01*
X36272009Y3701894D01*
X36081483Y3798973D01*
X36081480Y3798974D01*
X35878117Y3865049D01*
X35772516Y3881775D01*
X35666916Y3898500D01*
X35453084Y3898500D01*
X35382684Y3887350D01*
X35241882Y3865049D01*
X35038519Y3798974D01*
X35038516Y3798973D01*
X34847990Y3701894D01*
X34674993Y3576204D01*
X34523796Y3425007D01*
X34398105Y3252009D01*
X34395727Y3248127D01*
X34343914Y3201252D01*
X34274984Y3189831D01*
X34210822Y3217488D01*
X34184273Y3248127D01*
X34181894Y3252009D01*
X34101505Y3362655D01*
X34056206Y3425004D01*
X33905004Y3576206D01*
X33732009Y3701894D01*
X33541483Y3798973D01*
X33541480Y3798974D01*
X33338117Y3865049D01*
X33232516Y3881775D01*
X33126916Y3898500D01*
X32913084Y3898500D01*
X32842684Y3887350D01*
X32701882Y3865049D01*
X32498519Y3798974D01*
X32498516Y3798973D01*
X32307990Y3701894D01*
X32134993Y3576204D01*
X31983796Y3425007D01*
X31858105Y3252009D01*
X31855727Y3248127D01*
X31803914Y3201252D01*
X31734984Y3189831D01*
X31670822Y3217488D01*
X31644273Y3248127D01*
X31641894Y3252009D01*
X31561505Y3362655D01*
X31516206Y3425004D01*
X31365004Y3576206D01*
X31192009Y3701894D01*
X31001483Y3798973D01*
X31001480Y3798974D01*
X30798117Y3865049D01*
X30692516Y3881775D01*
X30586916Y3898500D01*
X30373084Y3898500D01*
X30302684Y3887350D01*
X30161882Y3865049D01*
X29958519Y3798974D01*
X29958516Y3798973D01*
X29767990Y3701894D01*
X29594997Y3576207D01*
X29489818Y3471028D01*
X29428495Y3437544D01*
X29358803Y3442528D01*
X29302870Y3484400D01*
X29285958Y3515371D01*
X29240889Y3636204D01*
X29153261Y3753261D01*
X29036204Y3840889D01*
X29032729Y3842185D01*
X28899203Y3891989D01*
X28838654Y3898500D01*
X28838638Y3898500D01*
X27041362Y3898500D01*
X27041345Y3898500D01*
X26980797Y3891989D01*
X26980795Y3891989D01*
X26843795Y3840889D01*
X26726739Y3753261D01*
X26639111Y3636205D01*
X26588011Y3499205D01*
X26588011Y3499203D01*
X26581500Y3438655D01*
X20726225Y3438655D01*
X20697609Y3515376D01*
X20680889Y3560204D01*
X20593261Y3677261D01*
X20476204Y3764889D01*
X20339203Y3815989D01*
X20278654Y3822500D01*
X20278638Y3822500D01*
X20259309Y3822500D01*
X20192270Y3842185D01*
X20171628Y3858819D01*
X19509408Y4521038D01*
X19572993Y4538075D01*
X19687007Y4603901D01*
X19780099Y4696993D01*
X19845925Y4811007D01*
X19862962Y4874591D01*
X20495270Y4242283D01*
X20495270Y4242284D01*
X20534622Y4296446D01*
X20631095Y4485783D01*
X20696757Y4687870D01*
X20696757Y4687873D01*
X20730000Y4897754D01*
X20730000Y5110247D01*
X20696757Y5320128D01*
X20696757Y5320131D01*
X20631095Y5522218D01*
X20534624Y5711551D01*
X20495270Y5765718D01*
X20495269Y5765718D01*
X19862962Y5133410D01*
X19845925Y5196993D01*
X19780099Y5311007D01*
X19687007Y5404099D01*
X19572993Y5469925D01*
X19509409Y5486963D01*
X20141716Y6119272D01*
X20087547Y6158627D01*
X20077952Y6163516D01*
X20027156Y6211491D01*
X20010362Y6279312D01*
X20032900Y6345447D01*
X20077958Y6384487D01*
X20087553Y6389376D01*
X20141716Y6428729D01*
X20141717Y6428729D01*
X19509408Y7061037D01*
X19572993Y7078074D01*
X19687007Y7143900D01*
X19780099Y7236992D01*
X19845925Y7351006D01*
X19862962Y7414590D01*
X20495270Y6782282D01*
X20495270Y6782283D01*
X20534622Y6836445D01*
X20631095Y7025782D01*
X20696757Y7227869D01*
X20696757Y7227872D01*
X20730000Y7437753D01*
X20730000Y7650246D01*
X20696757Y7860127D01*
X20696757Y7860130D01*
X20631095Y8062217D01*
X20534624Y8251550D01*
X20495270Y8305717D01*
X20495269Y8305717D01*
X19862962Y7673409D01*
X19845925Y7736992D01*
X19780099Y7851006D01*
X19687007Y7944098D01*
X19572993Y8009924D01*
X19509409Y8026962D01*
X20141716Y8659271D01*
X20087547Y8698626D01*
X20087536Y8698633D01*
X20087298Y8698754D01*
X20087223Y8698825D01*
X20083396Y8701170D01*
X20083889Y8701975D01*
X20036509Y8746736D01*
X20019724Y8814559D01*
X20042271Y8880691D01*
X20087323Y8919719D01*
X20092009Y8922106D01*
X20265004Y9047794D01*
X20416206Y9198996D01*
X20541894Y9371991D01*
X20638972Y9562517D01*
X20705049Y9765884D01*
X20738500Y9977084D01*
X20738500Y10190916D01*
X20705049Y10402116D01*
X20638972Y10605483D01*
X20638972Y10605484D01*
X20541893Y10796010D01*
X20416206Y10969004D01*
X20265004Y11120206D01*
X20092009Y11245894D01*
X20092005Y11245897D01*
X20088132Y11248270D01*
X20041254Y11300080D01*
X20029829Y11369009D01*
X20057483Y11433173D01*
X20088132Y11459730D01*
X20092005Y11462104D01*
X20092004Y11462104D01*
X20092009Y11462106D01*
X20265004Y11587794D01*
X20416206Y11738996D01*
X20541894Y11911991D01*
X20638972Y12102517D01*
X20705049Y12305884D01*
X20738500Y12517084D01*
X20738500Y12730916D01*
X20705049Y12942116D01*
X20638972Y13145483D01*
X20638972Y13145484D01*
X20541893Y13336010D01*
X20416206Y13509004D01*
X20265004Y13660206D01*
X20092009Y13785894D01*
X20092005Y13785897D01*
X20088132Y13788270D01*
X20041254Y13840080D01*
X20029829Y13909009D01*
X20057483Y13973173D01*
X20088132Y13999730D01*
X20092005Y14002104D01*
X20092004Y14002104D01*
X20092009Y14002106D01*
X20265004Y14127794D01*
X20416206Y14278996D01*
X20541894Y14451991D01*
X20638972Y14642517D01*
X20705049Y14845884D01*
X20738500Y15057084D01*
X20738500Y15270916D01*
X20705049Y15482116D01*
X20638972Y15685483D01*
X20638972Y15685484D01*
X20541893Y15876010D01*
X20416206Y16049004D01*
X20265004Y16200206D01*
X20092009Y16325894D01*
X20092005Y16325897D01*
X20088132Y16328270D01*
X20041254Y16380080D01*
X20029829Y16449009D01*
X20057483Y16513173D01*
X20088132Y16539730D01*
X20092005Y16542104D01*
X20092004Y16542104D01*
X20092009Y16542106D01*
X20265004Y16667794D01*
X20416206Y16818996D01*
X20541894Y16991991D01*
X20638972Y17182517D01*
X20705049Y17385884D01*
X20738500Y17597084D01*
X20738500Y17810916D01*
X20705049Y18022116D01*
X20638972Y18225483D01*
X20638972Y18225484D01*
X20541893Y18416010D01*
X20416206Y18589004D01*
X20265004Y18740206D01*
X20178506Y18803050D01*
X20092007Y18865896D01*
X20088127Y18868273D01*
X20041251Y18920085D01*
X20029828Y18989014D01*
X20057485Y19053177D01*
X20088137Y19079735D01*
X20091995Y19082101D01*
X20092009Y19082107D01*
X20265004Y19207795D01*
X20416206Y19358997D01*
X20541894Y19531992D01*
X20638972Y19722518D01*
X20654887Y19771500D01*
X20666959Y19808655D01*
X76041500Y19808655D01*
X76041500Y18011346D01*
X76048011Y17950798D01*
X76048011Y17950796D01*
X76099111Y17813796D01*
X76186739Y17696739D01*
X76303796Y17609111D01*
X76424626Y17564044D01*
X76480557Y17522173D01*
X76504974Y17456709D01*
X76490122Y17388436D01*
X76468972Y17360182D01*
X76363793Y17255003D01*
X76238106Y17082010D01*
X76141027Y16891484D01*
X76141026Y16891481D01*
X76074951Y16688118D01*
X76041500Y16476916D01*
X76041500Y16263085D01*
X76074951Y16051883D01*
X76141026Y15848520D01*
X76141027Y15848517D01*
X76224098Y15685483D01*
X76238106Y15657991D01*
X76363794Y15484996D01*
X76514996Y15333794D01*
X76687991Y15208106D01*
X76691873Y15205727D01*
X76738748Y15153914D01*
X76750169Y15084984D01*
X76722512Y15020822D01*
X76691873Y14994273D01*
X76687991Y14991895D01*
X76514993Y14866204D01*
X76363796Y14715007D01*
X76238106Y14542010D01*
X76141027Y14351484D01*
X76141026Y14351481D01*
X76074951Y14148118D01*
X76041500Y13936916D01*
X76041500Y13723085D01*
X76074951Y13511883D01*
X76141026Y13308520D01*
X76141027Y13308517D01*
X76224098Y13145483D01*
X76238106Y13117991D01*
X76363794Y12944996D01*
X76514996Y12793794D01*
X76687991Y12668106D01*
X76691873Y12665727D01*
X76738748Y12613914D01*
X76750169Y12544984D01*
X76722512Y12480822D01*
X76691873Y12454273D01*
X76687991Y12451895D01*
X76514993Y12326204D01*
X76363796Y12175007D01*
X76238106Y12002010D01*
X76141027Y11811484D01*
X76141026Y11811481D01*
X76074951Y11608118D01*
X76041500Y11396916D01*
X76041500Y11183085D01*
X76074951Y10971883D01*
X76141026Y10768520D01*
X76141027Y10768517D01*
X76224098Y10605483D01*
X76238106Y10577991D01*
X76363794Y10404996D01*
X76514996Y10253794D01*
X76687991Y10128106D01*
X76781438Y10080493D01*
X76878516Y10031028D01*
X76878519Y10031027D01*
X76980200Y9997990D01*
X77081884Y9964951D01*
X77293084Y9931500D01*
X77293085Y9931500D01*
X77506915Y9931500D01*
X77506916Y9931500D01*
X77718116Y9964951D01*
X77921483Y10031028D01*
X78112009Y10128106D01*
X78285004Y10253794D01*
X78436206Y10404996D01*
X78561894Y10577991D01*
X78658972Y10768517D01*
X78725049Y10971884D01*
X78758500Y11183084D01*
X78758500Y11396916D01*
X78725049Y11608116D01*
X78658972Y11811483D01*
X78658972Y11811484D01*
X78561893Y12002010D01*
X78436206Y12175004D01*
X78285004Y12326206D01*
X78112009Y12451894D01*
X78112005Y12451897D01*
X78108132Y12454270D01*
X78061254Y12506080D01*
X78049829Y12575009D01*
X78077483Y12639173D01*
X78108132Y12665730D01*
X78112005Y12668104D01*
X78112004Y12668104D01*
X78112009Y12668106D01*
X78285004Y12793794D01*
X78436206Y12944996D01*
X78561894Y13117991D01*
X78658972Y13308517D01*
X78725049Y13511884D01*
X78758500Y13723084D01*
X78758500Y13936916D01*
X78725049Y14148116D01*
X78658972Y14351483D01*
X78658972Y14351484D01*
X78561893Y14542010D01*
X78436206Y14715004D01*
X78285004Y14866206D01*
X78112009Y14991894D01*
X78112005Y14991897D01*
X78108132Y14994270D01*
X78061254Y15046080D01*
X78049829Y15115009D01*
X78077483Y15179173D01*
X78108132Y15205730D01*
X78112005Y15208104D01*
X78112004Y15208104D01*
X78112009Y15208106D01*
X78285004Y15333794D01*
X78436206Y15484996D01*
X78561894Y15657991D01*
X78658972Y15848517D01*
X78725049Y16051884D01*
X78758500Y16263084D01*
X78758500Y16476916D01*
X78725049Y16688116D01*
X78658972Y16891483D01*
X78658972Y16891484D01*
X78561893Y17082010D01*
X78436206Y17255004D01*
X78331028Y17360182D01*
X78297543Y17421505D01*
X78302527Y17491197D01*
X78344399Y17547130D01*
X78375367Y17564041D01*
X78496204Y17609111D01*
X78613261Y17696739D01*
X78700889Y17813796D01*
X78751989Y17950799D01*
X78755591Y17984308D01*
X78758499Y18011346D01*
X78758500Y18011363D01*
X78758500Y19808638D01*
X78758499Y19808655D01*
X78755157Y19839730D01*
X78751989Y19869201D01*
X78746273Y19884525D01*
X78729522Y19929436D01*
X78700889Y20006204D01*
X78613261Y20123261D01*
X78496204Y20210889D01*
X78359203Y20261989D01*
X78298654Y20268500D01*
X78298638Y20268500D01*
X76501362Y20268500D01*
X76501345Y20268500D01*
X76440797Y20261989D01*
X76440795Y20261989D01*
X76303795Y20210889D01*
X76186739Y20123261D01*
X76099111Y20006205D01*
X76048011Y19869205D01*
X76048011Y19869203D01*
X76041500Y19808655D01*
X20666959Y19808655D01*
X20680483Y19850276D01*
X20680483Y19850277D01*
X20685596Y19866017D01*
X20705049Y19925885D01*
X20738500Y20137085D01*
X20738500Y20350917D01*
X20705049Y20562117D01*
X20638972Y20765484D01*
X20638972Y20765485D01*
X20541893Y20956011D01*
X20416206Y21129005D01*
X20265004Y21280207D01*
X20092009Y21405895D01*
X20092010Y21405895D01*
X20092008Y21405896D01*
X20088127Y21408274D01*
X20041252Y21460087D01*
X20029831Y21529017D01*
X20057488Y21593179D01*
X20088136Y21619733D01*
X20092003Y21622103D01*
X20092009Y21622106D01*
X20265004Y21747794D01*
X20416206Y21898996D01*
X20541894Y22071991D01*
X20638972Y22262517D01*
X20705049Y22465884D01*
X20738500Y22677084D01*
X20738500Y22890916D01*
X20705049Y23102116D01*
X20638972Y23305483D01*
X20638972Y23305484D01*
X20541893Y23496010D01*
X20416206Y23669004D01*
X20265004Y23820206D01*
X20092009Y23945894D01*
X20092005Y23945897D01*
X20088132Y23948270D01*
X20041254Y24000080D01*
X20029829Y24069009D01*
X20057483Y24133173D01*
X20088132Y24159730D01*
X20092005Y24162104D01*
X20092004Y24162104D01*
X20092009Y24162106D01*
X20265004Y24287794D01*
X20416206Y24438996D01*
X20541894Y24611991D01*
X20638972Y24802517D01*
X20705049Y25005884D01*
X20738500Y25217084D01*
X20738500Y25430916D01*
X20705049Y25642116D01*
X20638972Y25845483D01*
X20638972Y25845484D01*
X20541893Y26036010D01*
X20416206Y26209004D01*
X20265004Y26360206D01*
X20092009Y26485894D01*
X20092005Y26485897D01*
X20088132Y26488270D01*
X20041254Y26540080D01*
X20029829Y26609009D01*
X20057483Y26673173D01*
X20088132Y26699730D01*
X20092005Y26702104D01*
X20092004Y26702104D01*
X20092009Y26702106D01*
X20265004Y26827794D01*
X20416206Y26978996D01*
X20541894Y27151991D01*
X20638972Y27342517D01*
X20705049Y27545884D01*
X20738500Y27757084D01*
X20738500Y27970916D01*
X20705049Y28182116D01*
X20638972Y28385483D01*
X20638972Y28385484D01*
X20541893Y28576010D01*
X20416206Y28749004D01*
X20265004Y28900206D01*
X20092009Y29025894D01*
X19901483Y29122973D01*
X19901480Y29122974D01*
X19698117Y29189049D01*
X19592516Y29205775D01*
X19486916Y29222500D01*
X19273084Y29222500D01*
X19202684Y29211350D01*
X19061882Y29189049D01*
X18858519Y29122974D01*
X18858516Y29122973D01*
X18667990Y29025894D01*
X18494993Y28900204D01*
X18343796Y28749007D01*
X18218106Y28576010D01*
X18121027Y28385484D01*
X18121026Y28385481D01*
X18054951Y28182118D01*
X18021500Y27970916D01*
X17170705Y27970916D01*
X17170704Y27975767D01*
X17169500Y34997534D01*
X17169500Y34997542D01*
X17169500Y35015018D01*
X17169498Y35015024D01*
X17169498Y35015027D01*
X17169497Y35015030D01*
X17169497Y35015031D01*
X17163818Y35028736D01*
X17159670Y35038749D01*
X17158334Y35042328D01*
X17158128Y35042649D01*
X17147375Y35053398D01*
X17147375Y35053399D01*
X17147369Y35053404D01*
X17136767Y35064006D01*
X17136763Y35064008D01*
X17136759Y35064012D01*
X17130951Y35066417D01*
X17122711Y35069829D01*
X17122709Y35069830D01*
X17109521Y35075292D01*
X17109520Y35075293D01*
X17109027Y35075501D01*
X17109011Y35075504D01*
X17093995Y35075501D01*
X17093987Y35075500D01*
X203246Y35075500D01*
X136207Y35095185D01*
X90452Y35147989D01*
X79247Y35199031D01*
X77250Y35727031D01*
X75501Y36189665D01*
X75500Y36190134D01*
X75500Y51698655D01*
X17437500Y51698655D01*
X17437500Y49901346D01*
X17444011Y49840798D01*
X17444011Y49840796D01*
X17495111Y49703796D01*
X17582739Y49586739D01*
X17699796Y49499111D01*
X17836799Y49448011D01*
X17864050Y49445082D01*
X17897345Y49441501D01*
X17897362Y49441500D01*
X19694638Y49441500D01*
X19694654Y49441501D01*
X19721692Y49444409D01*
X19755201Y49448011D01*
X19892204Y49499111D01*
X20009261Y49586739D01*
X20096889Y49703796D01*
X20141957Y49824629D01*
X20183827Y49880558D01*
X20249291Y49904975D01*
X20317564Y49890123D01*
X20345818Y49868972D01*
X20450996Y49763794D01*
X20623991Y49638106D01*
X20717438Y49590493D01*
X20814516Y49541028D01*
X20814519Y49541027D01*
X20893627Y49515324D01*
X21017884Y49474951D01*
X21229084Y49441500D01*
X21229085Y49441500D01*
X21442915Y49441500D01*
X21442916Y49441500D01*
X21654116Y49474951D01*
X21857483Y49541028D01*
X22048009Y49638106D01*
X22221004Y49763794D01*
X22372206Y49914996D01*
X22497894Y50087991D01*
X22497896Y50087996D01*
X22500270Y50091868D01*
X22552080Y50138746D01*
X22621009Y50150171D01*
X22685173Y50122517D01*
X22711730Y50091868D01*
X22714103Y50087995D01*
X22714105Y50087992D01*
X22714106Y50087991D01*
X22839794Y49914996D01*
X22990996Y49763794D01*
X23163991Y49638106D01*
X23257438Y49590493D01*
X23354516Y49541028D01*
X23354519Y49541027D01*
X23433627Y49515324D01*
X23557884Y49474951D01*
X23769084Y49441500D01*
X23769085Y49441500D01*
X23982915Y49441500D01*
X23982916Y49441500D01*
X24194116Y49474951D01*
X24397483Y49541028D01*
X24588009Y49638106D01*
X24761004Y49763794D01*
X24912206Y49914996D01*
X25037894Y50087991D01*
X25040283Y50092681D01*
X25088254Y50143478D01*
X25156074Y50160276D01*
X25222210Y50137742D01*
X25258201Y50096212D01*
X25258832Y50096598D01*
X25261164Y50092793D01*
X25261251Y50092692D01*
X25261376Y50092446D01*
X25386272Y49920541D01*
X25386276Y49920536D01*
X25536535Y49770277D01*
X25536540Y49770273D01*
X25708442Y49645380D01*
X25897782Y49548905D01*
X26099871Y49483243D01*
X26166000Y49472769D01*
X26166000Y50366988D01*
X26223007Y50334075D01*
X26350174Y50300000D01*
X26481826Y50300000D01*
X26608993Y50334075D01*
X26666000Y50366988D01*
X26666000Y49472770D01*
X26732126Y49483243D01*
X26732129Y49483243D01*
X26934217Y49548905D01*
X27123557Y49645380D01*
X27295459Y49770273D01*
X27295464Y49770277D01*
X27445723Y49920536D01*
X27445727Y49920541D01*
X27570619Y50092440D01*
X27570738Y50092673D01*
X27570808Y50092748D01*
X27573168Y50096598D01*
X27573976Y50096103D01*
X27618707Y50143474D01*
X27686526Y50160277D01*
X27752663Y50137746D01*
X27791712Y50092689D01*
X27794105Y50087992D01*
X27836002Y50030326D01*
X27919794Y49914996D01*
X28070996Y49763794D01*
X28153579Y49703794D01*
X28196386Y49672693D01*
X28239051Y49617363D01*
X28247500Y49572375D01*
X28247500Y28306220D01*
X28249117Y28298091D01*
X28251500Y28273897D01*
X28251500Y27566907D01*
X28242061Y27519454D01*
X28182570Y27375832D01*
X28182568Y27375824D01*
X28151500Y27219635D01*
X28151500Y27060366D01*
X28182568Y26904177D01*
X28182570Y26904169D01*
X28243517Y26757031D01*
X28331995Y26624613D01*
X28332001Y26624606D01*
X28444605Y26512002D01*
X28444612Y26511996D01*
X28577030Y26423518D01*
X28577031Y26423518D01*
X28577032Y26423517D01*
X28724169Y26362570D01*
X28880365Y26331501D01*
X28880369Y26331500D01*
X28880370Y26331500D01*
X29039631Y26331500D01*
X29039632Y26331501D01*
X29195831Y26362570D01*
X29342968Y26423517D01*
X29475389Y26511997D01*
X29588003Y26624611D01*
X29676483Y26757032D01*
X29737430Y26904169D01*
X29768500Y27060370D01*
X29768500Y27219630D01*
X29737430Y27375831D01*
X29677939Y27519454D01*
X29668500Y27566907D01*
X29668500Y28441782D01*
X29666882Y28449916D01*
X29664500Y28474105D01*
X29664500Y49572375D01*
X29684185Y49639414D01*
X29715614Y49672693D01*
X29841004Y49763794D01*
X29992206Y49914996D01*
X30117894Y50087991D01*
X30117896Y50087996D01*
X30120270Y50091868D01*
X30172080Y50138746D01*
X30241009Y50150171D01*
X30305173Y50122517D01*
X30331730Y50091868D01*
X30334103Y50087995D01*
X30334105Y50087992D01*
X30334106Y50087991D01*
X30459794Y49914996D01*
X30610996Y49763794D01*
X30783991Y49638106D01*
X30877438Y49590493D01*
X30974516Y49541028D01*
X30974519Y49541027D01*
X31053627Y49515324D01*
X31177884Y49474951D01*
X31389084Y49441500D01*
X31389085Y49441500D01*
X31602915Y49441500D01*
X31602916Y49441500D01*
X31814116Y49474951D01*
X32017483Y49541028D01*
X32208009Y49638106D01*
X32381004Y49763794D01*
X32532206Y49914996D01*
X32657894Y50087991D01*
X32657896Y50087996D01*
X32660270Y50091868D01*
X32684778Y50114044D01*
X32708600Y50136998D01*
X32710582Y50137391D01*
X32712080Y50138746D01*
X32744692Y50144152D01*
X32777137Y50150582D01*
X32779016Y50149841D01*
X32781009Y50150171D01*
X32811368Y50137087D01*
X32842137Y50124956D01*
X32843782Y50123117D01*
X32845173Y50122517D01*
X32866627Y50099541D01*
X32872078Y50091970D01*
X32874106Y50087991D01*
X32968031Y49958714D01*
X32968127Y49958581D01*
X32979612Y49925953D01*
X32991298Y49893203D01*
X32991311Y49892719D01*
X32991327Y49892675D01*
X32991314Y49892623D01*
X32991500Y49886123D01*
X32991500Y34926907D01*
X32982061Y34879454D01*
X32922570Y34735832D01*
X32922568Y34735824D01*
X32891500Y34579635D01*
X32891500Y34420366D01*
X32922568Y34264177D01*
X32922570Y34264169D01*
X32983517Y34117031D01*
X33071995Y33984613D01*
X33072001Y33984606D01*
X33184605Y33872002D01*
X33184612Y33871996D01*
X33317030Y33783518D01*
X33317031Y33783518D01*
X33317032Y33783517D01*
X33464169Y33722570D01*
X33620365Y33691501D01*
X33620369Y33691500D01*
X33620370Y33691500D01*
X33779631Y33691500D01*
X33779632Y33691501D01*
X33935831Y33722570D01*
X34082968Y33783517D01*
X34215389Y33871997D01*
X34328003Y33984611D01*
X34416483Y34117032D01*
X34477430Y34264169D01*
X34508500Y34420370D01*
X34508500Y34579630D01*
X34477430Y34735831D01*
X34417939Y34879454D01*
X34408500Y34926907D01*
X34408500Y49402530D01*
X34428185Y49469569D01*
X34480989Y49515324D01*
X34494177Y49520460D01*
X34557483Y49541028D01*
X34748009Y49638106D01*
X34921004Y49763794D01*
X35072206Y49914996D01*
X35197894Y50087991D01*
X35197896Y50087996D01*
X35200270Y50091868D01*
X35252080Y50138746D01*
X35321009Y50150171D01*
X35385173Y50122517D01*
X35411730Y50091868D01*
X35414103Y50087995D01*
X35414105Y50087992D01*
X35414106Y50087991D01*
X35539794Y49914996D01*
X35690996Y49763794D01*
X35773579Y49703794D01*
X35816386Y49672693D01*
X35859051Y49617363D01*
X35867500Y49572375D01*
X35867500Y40466255D01*
X35847815Y40399216D01*
X35831181Y40378574D01*
X35772001Y40319395D01*
X35771995Y40319388D01*
X35683517Y40186970D01*
X35622570Y40039832D01*
X35622568Y40039824D01*
X35591500Y39883635D01*
X35591500Y39724366D01*
X35622568Y39568177D01*
X35622570Y39568169D01*
X35683517Y39421031D01*
X35771995Y39288613D01*
X35772001Y39288606D01*
X35884605Y39176002D01*
X35884612Y39175996D01*
X36017030Y39087518D01*
X36017031Y39087518D01*
X36017032Y39087517D01*
X36164169Y39026570D01*
X36320365Y38995501D01*
X36320369Y38995500D01*
X36320370Y38995500D01*
X36479631Y38995500D01*
X36479632Y38995501D01*
X36635831Y39026570D01*
X36782968Y39087517D01*
X36915389Y39175997D01*
X37028003Y39288611D01*
X37116483Y39421032D01*
X37177430Y39568169D01*
X37183004Y39596194D01*
X37191489Y39622767D01*
X37195741Y39632243D01*
X37203865Y39644400D01*
X37235150Y39719930D01*
X37257273Y39773338D01*
X37284500Y39910219D01*
X37284500Y44029635D01*
X73486500Y44029635D01*
X73486500Y43870366D01*
X73517568Y43714177D01*
X73517570Y43714169D01*
X73578517Y43567031D01*
X73666995Y43434613D01*
X73667001Y43434606D01*
X73779605Y43322002D01*
X73779612Y43321996D01*
X73912030Y43233518D01*
X73912031Y43233518D01*
X73912032Y43233517D01*
X74059169Y43172570D01*
X74215370Y43141500D01*
X74215375Y43141500D01*
X74221431Y43140903D01*
X74221171Y43138269D01*
X74277206Y43121815D01*
X74297848Y43105181D01*
X80786742Y36616287D01*
X80820227Y36554964D01*
X80815243Y36485272D01*
X80813622Y36481154D01*
X80757571Y36345836D01*
X80757568Y36345824D01*
X80726500Y36189635D01*
X80726500Y36030366D01*
X80757568Y35874177D01*
X80757570Y35874169D01*
X80818517Y35727031D01*
X80906995Y35594613D01*
X80907001Y35594606D01*
X81019605Y35482002D01*
X81019612Y35481996D01*
X81152030Y35393518D01*
X81152031Y35393518D01*
X81152032Y35393517D01*
X81299169Y35332570D01*
X81455365Y35301501D01*
X81455369Y35301500D01*
X81455370Y35301500D01*
X81614631Y35301500D01*
X81614632Y35301501D01*
X81770831Y35332570D01*
X81917968Y35393517D01*
X82050389Y35481997D01*
X82163003Y35594611D01*
X82251483Y35727032D01*
X82312430Y35874169D01*
X82343500Y36030370D01*
X82343500Y36189630D01*
X82312430Y36345831D01*
X82252939Y36489454D01*
X82243500Y36536907D01*
X82243500Y36939782D01*
X82243499Y36939786D01*
X82216275Y37076655D01*
X82216272Y37076664D01*
X82200630Y37114428D01*
X82162868Y37205595D01*
X82162861Y37205608D01*
X82085328Y37321643D01*
X82085325Y37321647D01*
X74906646Y44500326D01*
X74906642Y44500329D01*
X74860804Y44530957D01*
X74842013Y44546379D01*
X74810393Y44578000D01*
X74810387Y44578005D01*
X74677969Y44666483D01*
X74530831Y44727430D01*
X74530823Y44727432D01*
X74374634Y44758500D01*
X74374630Y44758500D01*
X74215370Y44758500D01*
X74215365Y44758500D01*
X74059176Y44727432D01*
X74059168Y44727430D01*
X73912030Y44666483D01*
X73779612Y44578005D01*
X73779605Y44577999D01*
X73667001Y44465395D01*
X73666995Y44465388D01*
X73578517Y44332970D01*
X73517570Y44185832D01*
X73517568Y44185824D01*
X73486500Y44029635D01*
X37284500Y44029635D01*
X37284500Y49572375D01*
X37304185Y49639414D01*
X37335614Y49672693D01*
X37461004Y49763794D01*
X37612206Y49914996D01*
X37737894Y50087991D01*
X37737896Y50087996D01*
X37740270Y50091868D01*
X37792080Y50138746D01*
X37861009Y50150171D01*
X37925173Y50122517D01*
X37951730Y50091868D01*
X37954103Y50087995D01*
X37954105Y50087992D01*
X37954106Y50087991D01*
X38079794Y49914996D01*
X38230996Y49763794D01*
X38313579Y49703794D01*
X38356386Y49672693D01*
X38399051Y49617363D01*
X38407500Y49572375D01*
X38407500Y46012435D01*
X38405118Y45988246D01*
X38394684Y45935786D01*
X38394682Y45935779D01*
X38391500Y45919786D01*
X38391500Y45426907D01*
X38382061Y45379454D01*
X38322570Y45235832D01*
X38322568Y45235824D01*
X38291500Y45079635D01*
X38291500Y44920366D01*
X38322568Y44764177D01*
X38322570Y44764169D01*
X38383517Y44617031D01*
X38471995Y44484613D01*
X38472001Y44484606D01*
X38584605Y44372002D01*
X38584612Y44371996D01*
X38717030Y44283518D01*
X38717031Y44283518D01*
X38717032Y44283517D01*
X38864169Y44222570D01*
X39020365Y44191501D01*
X39020369Y44191500D01*
X39020370Y44191500D01*
X39179631Y44191500D01*
X39179632Y44191501D01*
X39335831Y44222570D01*
X39482968Y44283517D01*
X39615389Y44371997D01*
X39728003Y44484611D01*
X39816483Y44617032D01*
X39877430Y44764169D01*
X39908500Y44920370D01*
X39908500Y45079630D01*
X39877430Y45235831D01*
X39817939Y45379454D01*
X39808500Y45426907D01*
X39808500Y45703570D01*
X39810883Y45727762D01*
X39824500Y45796219D01*
X39824500Y49572375D01*
X39844185Y49639414D01*
X39875614Y49672693D01*
X40001004Y49763794D01*
X40152206Y49914996D01*
X40277894Y50087991D01*
X40277896Y50087996D01*
X40280270Y50091868D01*
X40332080Y50138746D01*
X40401009Y50150171D01*
X40465173Y50122517D01*
X40491730Y50091868D01*
X40494103Y50087995D01*
X40494105Y50087992D01*
X40494106Y50087991D01*
X40619794Y49914996D01*
X40770996Y49763794D01*
X40943991Y49638106D01*
X41037438Y49590493D01*
X41134516Y49541028D01*
X41134519Y49541027D01*
X41213627Y49515324D01*
X41337884Y49474951D01*
X41549084Y49441500D01*
X41549085Y49441500D01*
X41762915Y49441500D01*
X41762916Y49441500D01*
X41974116Y49474951D01*
X42177483Y49541028D01*
X42368009Y49638106D01*
X42541004Y49763794D01*
X42692206Y49914996D01*
X42817894Y50087991D01*
X42914972Y50278517D01*
X42981049Y50481884D01*
X43014500Y50693084D01*
X43014500Y50906916D01*
X42981049Y51118116D01*
X42914972Y51321483D01*
X42914972Y51321484D01*
X42881354Y51387461D01*
X42817894Y51512009D01*
X42692206Y51685004D01*
X42678555Y51698655D01*
X44361500Y51698655D01*
X44361500Y49901346D01*
X44368011Y49840798D01*
X44368011Y49840796D01*
X44419111Y49703796D01*
X44506739Y49586739D01*
X44623796Y49499111D01*
X44760799Y49448011D01*
X44788050Y49445082D01*
X44821345Y49441501D01*
X44821362Y49441500D01*
X46618638Y49441500D01*
X46618654Y49441501D01*
X46645692Y49444409D01*
X46679201Y49448011D01*
X46816204Y49499111D01*
X46933261Y49586739D01*
X47020889Y49703796D01*
X47065957Y49824629D01*
X47107827Y49880558D01*
X47173291Y49904975D01*
X47241564Y49890123D01*
X47269818Y49868972D01*
X47374996Y49763794D01*
X47547991Y49638106D01*
X47641438Y49590493D01*
X47738516Y49541028D01*
X47738519Y49541027D01*
X47817627Y49515324D01*
X47941884Y49474951D01*
X48153084Y49441500D01*
X48153085Y49441500D01*
X48366915Y49441500D01*
X48366916Y49441500D01*
X48578116Y49474951D01*
X48781483Y49541028D01*
X48972009Y49638106D01*
X49145004Y49763794D01*
X49296206Y49914996D01*
X49421894Y50087991D01*
X49421896Y50087996D01*
X49424270Y50091868D01*
X49476080Y50138746D01*
X49545009Y50150171D01*
X49609173Y50122517D01*
X49635730Y50091868D01*
X49638103Y50087995D01*
X49638105Y50087992D01*
X49638106Y50087991D01*
X49763794Y49914996D01*
X49914996Y49763794D01*
X50087991Y49638106D01*
X50181438Y49590493D01*
X50278516Y49541028D01*
X50278519Y49541027D01*
X50357627Y49515324D01*
X50481884Y49474951D01*
X50693084Y49441500D01*
X50693085Y49441500D01*
X50906915Y49441500D01*
X50906916Y49441500D01*
X51118116Y49474951D01*
X51321483Y49541028D01*
X51512009Y49638106D01*
X51685004Y49763794D01*
X51836206Y49914996D01*
X51961894Y50087991D01*
X51961896Y50087996D01*
X51964270Y50091868D01*
X52016080Y50138746D01*
X52085009Y50150171D01*
X52149173Y50122517D01*
X52175730Y50091868D01*
X52178103Y50087995D01*
X52178105Y50087992D01*
X52178106Y50087991D01*
X52303794Y49914996D01*
X52454996Y49763794D01*
X52627991Y49638106D01*
X52721438Y49590493D01*
X52818516Y49541028D01*
X52818519Y49541027D01*
X52897627Y49515324D01*
X53021884Y49474951D01*
X53233084Y49441500D01*
X53233085Y49441500D01*
X53446915Y49441500D01*
X53446916Y49441500D01*
X53658116Y49474951D01*
X53861483Y49541028D01*
X54052009Y49638106D01*
X54225004Y49763794D01*
X54376206Y49914996D01*
X54501894Y50087991D01*
X54501896Y50087996D01*
X54504270Y50091868D01*
X54556080Y50138746D01*
X54625009Y50150171D01*
X54689173Y50122517D01*
X54715730Y50091868D01*
X54718103Y50087995D01*
X54718105Y50087992D01*
X54718106Y50087991D01*
X54843794Y49914996D01*
X54994996Y49763794D01*
X55167991Y49638106D01*
X55261438Y49590493D01*
X55358516Y49541028D01*
X55358519Y49541027D01*
X55437627Y49515324D01*
X55561884Y49474951D01*
X55773084Y49441500D01*
X55773085Y49441500D01*
X55986915Y49441500D01*
X55986916Y49441500D01*
X56198116Y49474951D01*
X56401483Y49541028D01*
X56592009Y49638106D01*
X56765004Y49763794D01*
X56916206Y49914996D01*
X57041894Y50087991D01*
X57041896Y50087996D01*
X57044270Y50091868D01*
X57096080Y50138746D01*
X57165009Y50150171D01*
X57229173Y50122517D01*
X57255730Y50091868D01*
X57258103Y50087995D01*
X57258105Y50087992D01*
X57258106Y50087991D01*
X57383794Y49914996D01*
X57534996Y49763794D01*
X57707991Y49638106D01*
X57801438Y49590493D01*
X57898516Y49541028D01*
X57898519Y49541027D01*
X57977627Y49515324D01*
X58101884Y49474951D01*
X58313084Y49441500D01*
X58313085Y49441500D01*
X58526915Y49441500D01*
X58526916Y49441500D01*
X58738116Y49474951D01*
X58941483Y49541028D01*
X59132009Y49638106D01*
X59305004Y49763794D01*
X59456206Y49914996D01*
X59581894Y50087991D01*
X59581896Y50087996D01*
X59584270Y50091868D01*
X59636080Y50138746D01*
X59705009Y50150171D01*
X59769173Y50122517D01*
X59795730Y50091868D01*
X59798103Y50087995D01*
X59798105Y50087992D01*
X59798106Y50087991D01*
X59923794Y49914996D01*
X60074996Y49763794D01*
X60247991Y49638106D01*
X60341438Y49590493D01*
X60438516Y49541028D01*
X60438519Y49541027D01*
X60517627Y49515324D01*
X60641884Y49474951D01*
X60853084Y49441500D01*
X60853085Y49441500D01*
X61066915Y49441500D01*
X61066916Y49441500D01*
X61278116Y49474951D01*
X61481483Y49541028D01*
X61672009Y49638106D01*
X61845004Y49763794D01*
X61996206Y49914996D01*
X62121894Y50087991D01*
X62121896Y50087996D01*
X62124270Y50091868D01*
X62176080Y50138746D01*
X62245009Y50150171D01*
X62309173Y50122517D01*
X62335730Y50091868D01*
X62338103Y50087995D01*
X62338105Y50087992D01*
X62338106Y50087991D01*
X62463794Y49914996D01*
X62614996Y49763794D01*
X62787991Y49638106D01*
X62881438Y49590493D01*
X62978516Y49541028D01*
X62978519Y49541027D01*
X63057627Y49515324D01*
X63181884Y49474951D01*
X63393084Y49441500D01*
X63393085Y49441500D01*
X63606915Y49441500D01*
X63606916Y49441500D01*
X63818116Y49474951D01*
X64021483Y49541028D01*
X64212009Y49638106D01*
X64385004Y49763794D01*
X64536206Y49914996D01*
X64661894Y50087991D01*
X64758972Y50278517D01*
X64825049Y50481884D01*
X64858500Y50693084D01*
X64858500Y50906916D01*
X64825049Y51118116D01*
X64758972Y51321483D01*
X64758972Y51321484D01*
X64709507Y51418562D01*
X64661894Y51512009D01*
X64536206Y51685004D01*
X64385004Y51836206D01*
X64212009Y51961894D01*
X64021483Y52058973D01*
X64021480Y52058974D01*
X63818117Y52125049D01*
X63712516Y52141775D01*
X63606916Y52158500D01*
X63393084Y52158500D01*
X63322684Y52147350D01*
X63181882Y52125049D01*
X62978519Y52058974D01*
X62978516Y52058973D01*
X62787990Y51961894D01*
X62614993Y51836204D01*
X62463796Y51685007D01*
X62338105Y51512009D01*
X62335727Y51508127D01*
X62283914Y51461252D01*
X62214984Y51449831D01*
X62150822Y51477488D01*
X62124273Y51508127D01*
X62121894Y51512009D01*
X62121891Y51512013D01*
X61996206Y51685004D01*
X61845004Y51836206D01*
X61672009Y51961894D01*
X61481483Y52058973D01*
X61481480Y52058974D01*
X61278117Y52125049D01*
X61172516Y52141775D01*
X61066916Y52158500D01*
X60853084Y52158500D01*
X60782684Y52147350D01*
X60641882Y52125049D01*
X60438519Y52058974D01*
X60438516Y52058973D01*
X60247990Y51961894D01*
X60074993Y51836204D01*
X59923796Y51685007D01*
X59798105Y51512009D01*
X59795727Y51508127D01*
X59743914Y51461252D01*
X59674984Y51449831D01*
X59610822Y51477488D01*
X59584273Y51508127D01*
X59581894Y51512009D01*
X59581891Y51512013D01*
X59456206Y51685004D01*
X59305004Y51836206D01*
X59132009Y51961894D01*
X58941483Y52058973D01*
X58941480Y52058974D01*
X58738117Y52125049D01*
X58632516Y52141775D01*
X58526916Y52158500D01*
X58313084Y52158500D01*
X58242684Y52147350D01*
X58101882Y52125049D01*
X57898519Y52058974D01*
X57898516Y52058973D01*
X57707990Y51961894D01*
X57534993Y51836204D01*
X57383796Y51685007D01*
X57258105Y51512009D01*
X57255727Y51508127D01*
X57203914Y51461252D01*
X57134984Y51449831D01*
X57070822Y51477488D01*
X57044273Y51508127D01*
X57041894Y51512009D01*
X57041891Y51512013D01*
X56916206Y51685004D01*
X56765004Y51836206D01*
X56592009Y51961894D01*
X56401483Y52058973D01*
X56401480Y52058974D01*
X56198117Y52125049D01*
X56092516Y52141775D01*
X55986916Y52158500D01*
X55773084Y52158500D01*
X55702684Y52147350D01*
X55561882Y52125049D01*
X55358519Y52058974D01*
X55358516Y52058973D01*
X55167990Y51961894D01*
X54994993Y51836204D01*
X54843796Y51685007D01*
X54718105Y51512009D01*
X54715727Y51508127D01*
X54663914Y51461252D01*
X54594984Y51449831D01*
X54530822Y51477488D01*
X54504273Y51508127D01*
X54501894Y51512009D01*
X54501891Y51512013D01*
X54376206Y51685004D01*
X54225004Y51836206D01*
X54052009Y51961894D01*
X53861483Y52058973D01*
X53861480Y52058974D01*
X53658117Y52125049D01*
X53552516Y52141775D01*
X53446916Y52158500D01*
X53233084Y52158500D01*
X53162684Y52147350D01*
X53021882Y52125049D01*
X52818519Y52058974D01*
X52818516Y52058973D01*
X52627990Y51961894D01*
X52454993Y51836204D01*
X52303796Y51685007D01*
X52178105Y51512009D01*
X52175727Y51508127D01*
X52123914Y51461252D01*
X52054984Y51449831D01*
X51990822Y51477488D01*
X51964273Y51508127D01*
X51961894Y51512009D01*
X51961891Y51512013D01*
X51836206Y51685004D01*
X51685004Y51836206D01*
X51512009Y51961894D01*
X51321483Y52058973D01*
X51321480Y52058974D01*
X51118117Y52125049D01*
X51012516Y52141775D01*
X50906916Y52158500D01*
X50693084Y52158500D01*
X50622684Y52147350D01*
X50481882Y52125049D01*
X50278519Y52058974D01*
X50278516Y52058973D01*
X50087990Y51961894D01*
X49914993Y51836204D01*
X49763796Y51685007D01*
X49638105Y51512009D01*
X49635727Y51508127D01*
X49583914Y51461252D01*
X49514984Y51449831D01*
X49450822Y51477488D01*
X49424273Y51508127D01*
X49421894Y51512009D01*
X49421891Y51512013D01*
X49296206Y51685004D01*
X49145004Y51836206D01*
X48972009Y51961894D01*
X48781483Y52058973D01*
X48781480Y52058974D01*
X48578117Y52125049D01*
X48472516Y52141775D01*
X48366916Y52158500D01*
X48153084Y52158500D01*
X48082684Y52147350D01*
X47941882Y52125049D01*
X47738519Y52058974D01*
X47738516Y52058973D01*
X47547990Y51961894D01*
X47374997Y51836207D01*
X47269818Y51731028D01*
X47208495Y51697544D01*
X47138803Y51702528D01*
X47082870Y51744400D01*
X47065958Y51775371D01*
X47020889Y51896204D01*
X46933261Y52013261D01*
X46816204Y52100889D01*
X46679203Y52151989D01*
X46618654Y52158500D01*
X46618638Y52158500D01*
X44821362Y52158500D01*
X44821345Y52158500D01*
X44760797Y52151989D01*
X44760795Y52151989D01*
X44623795Y52100889D01*
X44506739Y52013261D01*
X44419111Y51896205D01*
X44368011Y51759205D01*
X44368011Y51759203D01*
X44361500Y51698655D01*
X42678555Y51698655D01*
X42541004Y51836206D01*
X42368009Y51961894D01*
X42177483Y52058973D01*
X42177480Y52058974D01*
X41974117Y52125049D01*
X41868516Y52141775D01*
X41762916Y52158500D01*
X41549084Y52158500D01*
X41478684Y52147350D01*
X41337882Y52125049D01*
X41134519Y52058974D01*
X41134516Y52058973D01*
X40943990Y51961894D01*
X40770993Y51836204D01*
X40619796Y51685007D01*
X40494105Y51512009D01*
X40491727Y51508127D01*
X40439914Y51461252D01*
X40370984Y51449831D01*
X40306822Y51477488D01*
X40280273Y51508127D01*
X40277894Y51512009D01*
X40277891Y51512013D01*
X40152206Y51685004D01*
X40001004Y51836206D01*
X39828009Y51961894D01*
X39637483Y52058973D01*
X39637480Y52058974D01*
X39434117Y52125049D01*
X39328516Y52141775D01*
X39222916Y52158500D01*
X39009084Y52158500D01*
X38938684Y52147350D01*
X38797882Y52125049D01*
X38594519Y52058974D01*
X38594516Y52058973D01*
X38403990Y51961894D01*
X38230993Y51836204D01*
X38079796Y51685007D01*
X37954105Y51512009D01*
X37951727Y51508127D01*
X37899914Y51461252D01*
X37830984Y51449831D01*
X37766822Y51477488D01*
X37740273Y51508127D01*
X37737894Y51512009D01*
X37737891Y51512013D01*
X37612206Y51685004D01*
X37461004Y51836206D01*
X37288009Y51961894D01*
X37097483Y52058973D01*
X37097480Y52058974D01*
X36894117Y52125049D01*
X36788516Y52141775D01*
X36682916Y52158500D01*
X36469084Y52158500D01*
X36398684Y52147350D01*
X36257882Y52125049D01*
X36054519Y52058974D01*
X36054516Y52058973D01*
X35863990Y51961894D01*
X35690993Y51836204D01*
X35539796Y51685007D01*
X35414105Y51512009D01*
X35411727Y51508127D01*
X35359914Y51461252D01*
X35290984Y51449831D01*
X35226822Y51477488D01*
X35200273Y51508127D01*
X35197894Y51512009D01*
X35197891Y51512013D01*
X35072206Y51685004D01*
X34921004Y51836206D01*
X34748009Y51961894D01*
X34557483Y52058973D01*
X34557480Y52058974D01*
X34354117Y52125049D01*
X34248516Y52141775D01*
X34142916Y52158500D01*
X33929084Y52158500D01*
X33858684Y52147350D01*
X33717882Y52125049D01*
X33514519Y52058974D01*
X33514516Y52058973D01*
X33323990Y51961894D01*
X33150993Y51836204D01*
X32999796Y51685007D01*
X32874105Y51512009D01*
X32871727Y51508127D01*
X32819914Y51461252D01*
X32750984Y51449831D01*
X32686822Y51477488D01*
X32660273Y51508127D01*
X32657894Y51512009D01*
X32657891Y51512013D01*
X32532206Y51685004D01*
X32381004Y51836206D01*
X32208009Y51961894D01*
X32017483Y52058973D01*
X32017480Y52058974D01*
X31814117Y52125049D01*
X31708516Y52141775D01*
X31602916Y52158500D01*
X31389084Y52158500D01*
X31318684Y52147350D01*
X31177882Y52125049D01*
X30974519Y52058974D01*
X30974516Y52058973D01*
X30783990Y51961894D01*
X30610993Y51836204D01*
X30459796Y51685007D01*
X30334105Y51512009D01*
X30331727Y51508127D01*
X30279914Y51461252D01*
X30210984Y51449831D01*
X30146822Y51477488D01*
X30120273Y51508127D01*
X30117894Y51512009D01*
X30117891Y51512013D01*
X29992206Y51685004D01*
X29841004Y51836206D01*
X29668009Y51961894D01*
X29477483Y52058973D01*
X29477480Y52058974D01*
X29274117Y52125049D01*
X29168516Y52141775D01*
X29062916Y52158500D01*
X28849084Y52158500D01*
X28778684Y52147350D01*
X28637882Y52125049D01*
X28434519Y52058974D01*
X28434516Y52058973D01*
X28243990Y51961894D01*
X28070993Y51836204D01*
X27919796Y51685007D01*
X27794103Y51512006D01*
X27791709Y51507307D01*
X27743731Y51456515D01*
X27675908Y51439725D01*
X27609775Y51462268D01*
X27573800Y51503790D01*
X27573168Y51503402D01*
X27570829Y51507219D01*
X27570743Y51507318D01*
X27570620Y51507559D01*
X27445727Y51679460D01*
X27445723Y51679465D01*
X27295464Y51829724D01*
X27295459Y51829728D01*
X27123557Y51954621D01*
X26934215Y52051097D01*
X26732124Y52116759D01*
X26666000Y52127232D01*
X26666000Y51233012D01*
X26608993Y51265925D01*
X26481826Y51300000D01*
X26350174Y51300000D01*
X26223007Y51265925D01*
X26166000Y51233012D01*
X26166000Y52127232D01*
X26165999Y52127232D01*
X26099875Y52116759D01*
X25897784Y52051097D01*
X25708442Y51954621D01*
X25536540Y51829728D01*
X25536535Y51829724D01*
X25386276Y51679465D01*
X25386272Y51679460D01*
X25261376Y51507554D01*
X25261374Y51507552D01*
X25261246Y51507299D01*
X25261172Y51507221D01*
X25258832Y51503402D01*
X25258029Y51503894D01*
X25213264Y51456511D01*
X25145441Y51439726D01*
X25079309Y51462273D01*
X25040285Y51507317D01*
X25037895Y51512008D01*
X25006472Y51555258D01*
X24912206Y51685004D01*
X24761004Y51836206D01*
X24588009Y51961894D01*
X24397483Y52058973D01*
X24397480Y52058974D01*
X24194117Y52125049D01*
X24088516Y52141775D01*
X23982916Y52158500D01*
X23769084Y52158500D01*
X23698684Y52147350D01*
X23557882Y52125049D01*
X23354519Y52058974D01*
X23354516Y52058973D01*
X23163990Y51961894D01*
X22990993Y51836204D01*
X22839796Y51685007D01*
X22714105Y51512009D01*
X22711727Y51508127D01*
X22659914Y51461252D01*
X22590984Y51449831D01*
X22526822Y51477488D01*
X22500273Y51508127D01*
X22497894Y51512009D01*
X22497891Y51512013D01*
X22372206Y51685004D01*
X22221004Y51836206D01*
X22048009Y51961894D01*
X21857483Y52058973D01*
X21857480Y52058974D01*
X21654117Y52125049D01*
X21548516Y52141775D01*
X21442916Y52158500D01*
X21229084Y52158500D01*
X21158684Y52147350D01*
X21017882Y52125049D01*
X20814519Y52058974D01*
X20814516Y52058973D01*
X20623990Y51961894D01*
X20450997Y51836207D01*
X20345818Y51731028D01*
X20284495Y51697544D01*
X20214803Y51702528D01*
X20158870Y51744400D01*
X20141958Y51775371D01*
X20096889Y51896204D01*
X20009261Y52013261D01*
X19892204Y52100889D01*
X19755203Y52151989D01*
X19694654Y52158500D01*
X19694638Y52158500D01*
X17897362Y52158500D01*
X17897345Y52158500D01*
X17836797Y52151989D01*
X17836795Y52151989D01*
X17699795Y52100889D01*
X17582739Y52013261D01*
X17495111Y51896205D01*
X17444011Y51759205D01*
X17444011Y51759203D01*
X17437500Y51698655D01*
X75500Y51698655D01*
X75500Y53310511D01*
X95185Y53377550D01*
X147989Y53423305D01*
X199491Y53434511D01*
X99800495Y53439891D01*
X99867534Y53420210D01*
G37*
%TD.AperFunction*%
%TD*%
M02*
