M48
; DRILL file {KiCad 9.0.7} date 2026-04-13T21:23:37+0200
; FORMAT={-:-/ absolute / inch / decimal}
; #@! TF.CreationDate,2026-04-13T21:23:37+02:00
; #@! TF.GenerationSoftware,Kicad,Pcbnew,9.0.7
; #@! TF.FileFunction,Plated,1,2,PTH
FMAT,2
INCH
; #@! TA.AperFunction,Plated,PTH,ViaDrill
T1C0.0118
; #@! TA.AperFunction,Plated,PTH,ViaDrill
T2C0.0157
; #@! TA.AperFunction,Plated,PTH,ComponentDrill
T3C0.0394
; #@! TA.AperFunction,Plated,PTH,ComponentDrill
T4C0.1181
%
G90
G05
T1
X0.0551Y1.8854
X0.0862Y2.0323
X0.1004Y1.4252
X0.2303Y1.7185
X0.299Y1.722
X0.447Y1.7189
X0.4823Y2.0492
X0.5197Y1.7185
X0.5787Y1.435
X0.6949Y1.9047
X0.7224Y1.4587
X0.735Y1.8315
X0.9134Y0.7598
X0.943Y0.077
X0.9469Y1.5335
X0.9508Y1.2362
X0.9764Y0.9567
X0.9802Y1.0532
X0.9843Y1.1673
X1.124Y0.9744
X1.128Y0.3228
X1.1402Y1.0685
X1.2205Y1.3071
X1.2224Y1.7283
X1.2264Y1.5079
X1.2303Y1.4154
X1.2854Y1.2205
X1.3268Y1.3583
X1.3819Y1.8307
X1.3858Y1.5709
X1.3878Y1.6693
X1.4114Y1.439
X1.4331Y1.5671
X1.4902Y1.7677
X1.5118Y0.7677
X1.5236Y1.6496
X1.5394Y1.7717
X1.6063Y1.8504
X1.8878Y0.4961
X2.0425Y0.4933
X2.1567Y0.4988
X2.263Y0.497
X2.2768Y1.1898
X2.3425Y0.878
X2.373Y0.377
X2.4299Y1.8524
X2.6563Y2.0524
X2.6587Y0.0594
X2.7028Y1.2539
X2.7362Y0.7657
X2.852Y0.565
X3.025Y2.0449
X3.0278Y1.4437
X3.0852Y1.2858
X3.1201Y1.126
X3.1266Y1.9528
X3.1435Y1.7942
X3.2161Y0.0638
X3.3748Y0.7988
X3.44Y1.9429
X3.4407Y1.4245
X3.4411Y1.4953
X3.4435Y2.0142
X3.4628Y1.6409
X3.49Y1.7626
X3.7096Y1.1874
X3.7329Y1.6455
X3.7368Y1.715
X3.7774Y1.989
X3.8618Y0.0846
X3.863Y0.6717
T2
X1.2047Y2.7701
X2.925Y1.7303
X3.21Y1.4217
T3
X0.74Y2.0
X0.763Y1.097
X0.763Y0.997
X0.763Y0.897
X0.763Y0.797
X0.763Y0.697
X0.763Y0.597
X0.763Y0.497
X0.763Y0.397
X0.763Y0.297
X0.763Y0.197
X0.763Y0.097
X0.84Y2.0
X0.94Y2.0
X1.04Y2.0
X1.1Y0.1
X1.14Y2.0
X1.2Y0.1
X1.24Y2.0
X1.3Y0.1
X1.34Y2.0
X1.4Y0.1
X1.44Y2.0
X1.5Y0.1
X1.54Y2.0
X1.6Y0.1
X1.64Y2.0
X1.7Y0.1
X1.8Y2.0
X1.8Y0.1
X1.9Y2.0
X2.0Y2.0
X2.0Y0.1
X2.1Y2.0
X2.1Y0.1
X2.2Y2.0
X2.2Y0.1
X2.3Y2.0
X2.3Y0.1
X2.4Y2.0
X2.4Y0.1
X2.5Y2.0
X2.5Y0.1
X3.0472Y0.7445
X3.0472Y0.6445
X3.0472Y0.5445
X3.0472Y0.4445
T4
X3.8063Y0.8969
M30
