%TF.GenerationSoftware,KiCad,Pcbnew,9.0.7*%
%TF.CreationDate,2026-04-13T21:23:37+02:00*%
%TF.ProjectId,gameshield-v2,67616d65-7368-4696-956c-642d76322e6b,rev?*%
%TF.SameCoordinates,Original*%
%TF.FileFunction,Soldermask,Top*%
%TF.FilePolarity,Negative*%
%FSLAX46Y46*%
G04 Gerber Fmt 4.6, Leading zero omitted, Abs format (unit mm)*
G04 Created by KiCad (PCBNEW 9.0.7) date 2026-04-13 21:23:37*
%MOMM*%
%LPD*%
G01*
G04 APERTURE LIST*
G04 Aperture macros list*
%AMRoundRect*
0 Rectangle with rounded corners*
0 $1 Rounding radius*
0 $2 $3 $4 $5 $6 $7 $8 $9 X,Y pos of 4 corners*
0 Add a 4 corners polygon primitive as box body*
4,1,4,$2,$3,$4,$5,$6,$7,$8,$9,$2,$3,0*
0 Add four circle primitives for the rounded corners*
1,1,$1+$1,$2,$3*
1,1,$1+$1,$4,$5*
1,1,$1+$1,$6,$7*
1,1,$1+$1,$8,$9*
0 Add four rect primitives between the rounded corners*
20,1,$1+$1,$2,$3,$4,$5,0*
20,1,$1+$1,$4,$5,$6,$7,0*
20,1,$1+$1,$6,$7,$8,$9,0*
20,1,$1+$1,$8,$9,$2,$3,0*%
G04 Aperture macros list end*
%ADD10R,1.700000X1.700000*%
%ADD11O,1.700000X1.700000*%
%ADD12RoundRect,0.250000X0.350000X0.450000X-0.350000X0.450000X-0.350000X-0.450000X0.350000X-0.450000X0*%
%ADD13RoundRect,0.250000X-0.450000X0.350000X-0.450000X-0.350000X0.450000X-0.350000X0.450000X0.350000X0*%
%ADD14R,1.000000X0.750000*%
%ADD15RoundRect,0.250000X-0.337500X-0.475000X0.337500X-0.475000X0.337500X0.475000X-0.337500X0.475000X0*%
%ADD16RoundRect,0.250000X0.450000X-0.350000X0.450000X0.350000X-0.450000X0.350000X-0.450000X-0.350000X0*%
%ADD17RoundRect,0.250000X0.337500X0.475000X-0.337500X0.475000X-0.337500X-0.475000X0.337500X-0.475000X0*%
%ADD18C,5.000000*%
%ADD19RoundRect,0.250000X-0.350000X-0.450000X0.350000X-0.450000X0.350000X0.450000X-0.350000X0.450000X0*%
%ADD20R,0.750000X1.000000*%
%ADD21RoundRect,0.250000X0.475000X-0.337500X0.475000X0.337500X-0.475000X0.337500X-0.475000X-0.337500X0*%
%ADD22C,1.700000*%
G04 APERTURE END LIST*
D10*
%TO.C,J1*%
X27940000Y2540000D03*
D11*
X30480000Y2540000D03*
X33020000Y2540000D03*
X35560000Y2540000D03*
X38100000Y2540000D03*
X40640000Y2540000D03*
X43180000Y2540000D03*
X45720000Y2540000D03*
%TD*%
D10*
%TO.C,J3*%
X50800000Y2540000D03*
D11*
X53340000Y2540000D03*
X55880000Y2540000D03*
X58420000Y2540000D03*
X60960000Y2540000D03*
X63500000Y2540000D03*
%TD*%
D10*
%TO.C,J2*%
X18796000Y50800000D03*
D11*
X21336000Y50800000D03*
X23876000Y50800000D03*
X26416000Y50800000D03*
X28956000Y50800000D03*
X31496000Y50800000D03*
X34036000Y50800000D03*
X36576000Y50800000D03*
X39116000Y50800000D03*
X41656000Y50800000D03*
%TD*%
D10*
%TO.C,J4*%
X45720000Y50800000D03*
D11*
X48260000Y50800000D03*
X50800000Y50800000D03*
X53340000Y50800000D03*
X55880000Y50800000D03*
X58420000Y50800000D03*
X60960000Y50800000D03*
X63500000Y50800000D03*
%TD*%
D12*
%TO.C,R11*%
X17150000Y38830000D03*
X15150000Y38830000D03*
%TD*%
D13*
%TO.C,R3*%
X92145000Y38080000D03*
X92145000Y36080000D03*
%TD*%
D14*
%TO.C,SW1*%
X82899600Y41821600D03*
X76899600Y41821600D03*
X82899600Y45571600D03*
X76899600Y45571600D03*
%TD*%
D15*
%TO.C,C1*%
X95725000Y47470000D03*
X97800000Y47470000D03*
%TD*%
%TO.C,C2*%
X95745000Y39870000D03*
X97820000Y39870000D03*
%TD*%
D16*
%TO.C,R12*%
X17060000Y40700000D03*
X17060000Y42700000D03*
%TD*%
D17*
%TO.C,C4*%
X79080000Y47490000D03*
X77005000Y47490000D03*
%TD*%
D18*
%TO.C,REF\u002A\u002A*%
X96680000Y22780000D03*
%TD*%
D19*
%TO.C,R1*%
X92015000Y47440000D03*
X94015000Y47440000D03*
%TD*%
D16*
%TO.C,R10*%
X1910000Y40730000D03*
X1910000Y42730000D03*
%TD*%
D14*
%TO.C,SW2*%
X90418000Y47409600D03*
X84418000Y47409600D03*
X90418000Y51159600D03*
X84418000Y51159600D03*
%TD*%
D20*
%TO.C,SW6*%
X15103800Y46614600D03*
X15103800Y40614600D03*
X11353800Y46614600D03*
X11353800Y40614600D03*
%TD*%
%TO.C,SW5*%
X3844600Y40614600D03*
X3844600Y46614600D03*
X7594600Y40614600D03*
X7594600Y46614600D03*
%TD*%
D21*
%TO.C,C5*%
X1910000Y44450000D03*
X1910000Y46525000D03*
%TD*%
%TO.C,C6*%
X17080000Y44435000D03*
X17080000Y46510000D03*
%TD*%
D19*
%TO.C,R9*%
X1800000Y38900000D03*
X3800000Y38900000D03*
%TD*%
D12*
%TO.C,R6*%
X82795000Y39910000D03*
X80795000Y39910000D03*
%TD*%
%TO.C,R8*%
X82785000Y47450000D03*
X80785000Y47450000D03*
%TD*%
D14*
%TO.C,SW4*%
X84418000Y39932800D03*
X90418000Y39932800D03*
X84418000Y36182800D03*
X90418000Y36182800D03*
%TD*%
%TO.C,SW3*%
X91916600Y45546200D03*
X97916600Y45546200D03*
X91916600Y41796200D03*
X97916600Y41796200D03*
%TD*%
D13*
%TO.C,R5*%
X82705000Y38100000D03*
X82705000Y36100000D03*
%TD*%
D16*
%TO.C,R4*%
X92125000Y49480000D03*
X92125000Y51480000D03*
%TD*%
%TO.C,R13*%
X19600000Y32350000D03*
X19600000Y34350000D03*
%TD*%
D19*
%TO.C,R2*%
X92035000Y39890000D03*
X94035000Y39890000D03*
%TD*%
D10*
%TO.C,J6*%
X77400000Y18910000D03*
D22*
X77400000Y16370000D03*
X77400000Y13830000D03*
X77400000Y11290000D03*
%TD*%
D10*
%TO.C,J5*%
X19380000Y2464000D03*
D22*
X19380000Y5004000D03*
X19380000Y7543999D03*
X19380000Y10084000D03*
X19380000Y12624000D03*
X19380000Y15164000D03*
X19380000Y17704000D03*
X19380000Y20244001D03*
X19380000Y22784000D03*
X19380000Y25324000D03*
X19380000Y27864000D03*
%TD*%
D17*
%TO.C,C3*%
X79100000Y39900000D03*
X77025000Y39900000D03*
%TD*%
D16*
%TO.C,R7*%
X82675000Y49260000D03*
X82675000Y51260000D03*
%TD*%
M02*
