%TF.GenerationSoftware,KiCad,Pcbnew,9.0.7*%
%TF.CreationDate,2026-04-13T21:23:37+02:00*%
%TF.ProjectId,gameshield-v2,67616d65-7368-4696-956c-642d76322e6b,rev?*%
%TF.SameCoordinates,Original*%
%TF.FileFunction,Soldermask,Bot*%
%TF.FilePolarity,Negative*%
%FSLAX46Y46*%
G04 Gerber Fmt 4.6, Leading zero omitted, Abs format (unit mm)*
G04 Created by KiCad (PCBNEW 9.0.7) date 2026-04-13 21:23:37*
%MOMM*%
%LPD*%
G01*
G04 APERTURE LIST*
%ADD10R,1.700000X1.700000*%
%ADD11O,1.700000X1.700000*%
%ADD12C,5.000000*%
%ADD13C,1.700000*%
G04 APERTURE END LIST*
D10*
%TO.C,J1*%
X27940000Y2540000D03*
D11*
X30480000Y2540000D03*
X33020000Y2540000D03*
X35560000Y2540000D03*
X38100000Y2540000D03*
X40640000Y2540000D03*
X43180000Y2540000D03*
X45720000Y2540000D03*
%TD*%
D10*
%TO.C,J3*%
X50800000Y2540000D03*
D11*
X53340000Y2540000D03*
X55880000Y2540000D03*
X58420000Y2540000D03*
X60960000Y2540000D03*
X63500000Y2540000D03*
%TD*%
D10*
%TO.C,J2*%
X18796000Y50800000D03*
D11*
X21336000Y50800000D03*
X23876000Y50800000D03*
X26416000Y50800000D03*
X28956000Y50800000D03*
X31496000Y50800000D03*
X34036000Y50800000D03*
X36576000Y50800000D03*
X39116000Y50800000D03*
X41656000Y50800000D03*
%TD*%
D10*
%TO.C,J4*%
X45720000Y50800000D03*
D11*
X48260000Y50800000D03*
X50800000Y50800000D03*
X53340000Y50800000D03*
X55880000Y50800000D03*
X58420000Y50800000D03*
X60960000Y50800000D03*
X63500000Y50800000D03*
%TD*%
D12*
%TO.C,REF\u002A\u002A*%
X96680000Y22780000D03*
%TD*%
D10*
%TO.C,J6*%
X77400000Y18910000D03*
D13*
X77400000Y16370000D03*
X77400000Y13830000D03*
X77400000Y11290000D03*
%TD*%
D10*
%TO.C,J5*%
X19380000Y2464000D03*
D13*
X19380000Y5004000D03*
X19380000Y7543999D03*
X19380000Y10084000D03*
X19380000Y12624000D03*
X19380000Y15164000D03*
X19380000Y17704000D03*
X19380000Y20244001D03*
X19380000Y22784000D03*
X19380000Y25324000D03*
X19380000Y27864000D03*
%TD*%
M02*
